<mxfile host="65bd71144e">
    <diagram id="N9YYksRfYLxavfJXIClX" name="PÃ¡gina-1">
        <mxGraphModel dx="623" dy="253" grid="1" gridSize="10" guides="1" tooltips="1" connect="1" arrows="1" fold="1" page="1" pageScale="1" pageWidth="827" pageHeight="1169" math="0" shadow="0">
            <root>
                <mxCell id="0"/>
                <mxCell id="1" parent="0"/>
                <mxCell id="5" value="" style="shape=image;verticalLabelPosition=bottom;labelBackgroundColor=#ffffff;verticalAlign=top;aspect=fixed;imageAspect=0;image=data:image/png,iVBORw0KGgoAAAANSUhEUgAAAewAAAEdCAIAAABBhsOLAAAgAElEQVR4Aex9eVSiR7r3d+4f9/5575zMPjnJ5E5mMskkmWydTt8knW0m6ZjesvV0T9L7om23tq22u4i7uIHKIrihoqi4gIjiLuKCCiIiKK4oIrihiIAiwnfaJ/N+fNhtupNMbncPdTiceuuteuqpX9X7q3qft5b/Y//XcDabDQpqc3D/GkV3ldKFgAuBRxmB//MoF+5OZXPg8G9o/U6xXGEuBFwIuBB4OBBwkfjDUU8uLV0IuBBwIXBHBFwkfkdYXIEuBFwIuBB4OBBwkfjDUU8uLV0IuBBwIXBHBFwkfkdYXIEuBFwIuBB4OBC4bxJHpnk8HOXbpeXdPmxC+K7orgAXAi4EXAg80AjcN4lvb28/0AX6HsrZbLbtHffjdFRId/I9VHYldSHgQuBfHYH7I3Gbzba1tbUHZt+f/r6/hD3U2/uW1Wq1WCybO25ra8upu/rBFdva2rJYLE657NbwB88Xsvgnid2tvyvEhYALgX8qAvdN4pubm4hCRqNRqVR2dHR0dXV1dna2t7dPTU3Nzc1NTEx0d3d3dnZKJJKVlRWVSiWRSLq6ung7TiAQzM/Pq9VqoVAICQUCweDg4PLyMkjW6XSjo6OdnZ3Nzc1dXV0KhWJqakoqlXZ2dvb29srl8oWFBbvdvrS0NDAw0NzczOPxxGLxzMzM8PBwX18fj8fj8/kKhUKv19tstpmZGZFI1NPT09XVNTo6CqRptVo1Gg3o3N3d3dfXp9Vqt7a2NjY2TCaTRqMRCoV1dXUsFovL5Q4MDGg0GoPBMDMzIxaL+Xx+W1tbT0/P5OQkdGk2m02n0wmFQtBQIpHMz8+bzealpSW5XN7Z2dnY2NjZ2SmTyebn500m0+zsLMRZX19fXl7u7e0dHR3VaDQLCwt9fX1tbW2dnZ08Hk8mk62urhoMhrGxMR6Px+Fw2traRCKRQqHo6OhoaWnp6urq6OiA8s7Ozq6uri4uLvb393d1dQkEAplMptfrAdLp6enu7m72jhMIBLOzs3t3xkgVuzwuBFwIPOAI3DeJb2xsIEUaHx8vKSm5cOGCj49PcHBweHh4S0tLb28vk8kMCAi4fPlySEiISCTicDipqane3t4+Pj5BQUHx8fG9vb319fWBgYHXrl3z9vYOCAgICwtraWlZW1szmUx8Ph+Px9+4ccPLywuNRufl5ZWVlSUkJJw7d+7q1asUCkUsFptMJg6HExkZCRISEhIqKyvz8/MjIyMvXLjg6elZXFw8Pj6uVqtLSkpQKFRYWFhAQACZTB4bGzMYDBMTEwwGIzQ01MfH59atW2g0uru7e2Njw2w2m0ymgYGBpKSkc+fOffHFF2fPng0NDeVwOKOjoxUVFREREVeuXPHy8vLz86NQKEql0mg0zs7OcrncmJgYPz+/W7duRUVFcbncsbExkUiEw+E8PT0vXbrk7e2dnJxcW1srkUjKysri4uIGBgaWl5cVCkV4eDiVSm1tbe3s7EShUB4eHoGBgV5eXpmZmQMDAxKJJCsry8PD48KFCzdv3kxISKDT6VFRUV5eXu7u7leuXPH09AwNDa2vr+/q6mKz2Wg02tfXNyAgAIPB9PX16XS65eVlGo0WEBBw9uzZ8+fPx8TEcLlcs9lst9td43GkMbs8LgQeUgTum8QdR3ACgSAgIOA///M/jx8/HhgYGBMT09TU1Nvby2azPT09X3311ddee62qqio2Nvbo0aNvvPHGhQsXUChUUlKSUCjMzs7et2/fe++9d/LkybNnzz777LOBgYGtra1dXV3Xrl374IMPvv7666tXrwYGBsbFxVGpVE9Pz6effvqZZ56JjY3t6elhMplffvnlvn373N3dvby8IHcSiXT27NnHH3/8rbfeSktL4/F4sbGxX3zxxeHDh4OCgr744ovjx497e3u3tbVRKBQ3N7dTp075+PiEhoZeuHCBxWKtrKzYbDaLxdLQ0ODm5rZv376PPvro7NmzL7zwwvXr1+l0+rVr1w4ePPj6669fvnx5//79H3zwARaLlclkDAbj0KFDR44cOX369Llz51599dVLly7l5OQ0NTUdO3bsD3/4w4kTJ44ePfrXv/71ww8/JBAIHh4eb7zxBofDmZubEwgEBw4cuH79OoFAIJFI77zzzltvvRUYGBgeHl5QUNDU1BQcHPzpp5+6ubmFhIT4+vreunUrNTUVhUJ99tlnP/vZz373u9+5ubmFhoYWFRWFhoZ+8sknR44cuXLlyvnz5//0pz8FBgaWlpbW1dUdO3bs/fffv3r1KvQxVCp1ZWUFmqzVanVR+UP69LrUdiFgt9vvj8SdIOvu7vb29v63f/u3jz/+OCAgIDExkc/nT+24kpKSzz777MUXXywqKgoPDz906NCLL77o7u6emJhIIBDEYjGBQHjuuee++uqrhISE5OTkJ554wt3dnUajRUZGHjt27OzZs3V1dWAq6ejoGB4eTk1NfeONNw4ePJiTk9Pb2+vp6XnkyJFr1651dHS0t7e3tra2tLT09/ejUKinn37666+/Li0tra+vf/PNN48fPx4XFycSiSgUyvnz51955RUcDufj4/OHP/zh6NGjYWFhVCq1tLRUJpPB4HR7e7umpmb//v0ff/xxaGhofn7+Cy+8cOLECSwWe/bs2Q8//PDUqVPl5eVHjx49cOBAaGhoRUVFWFjYH//4x5iYmOrq6qqqqpMnTx49evTatWssFsvNzW3//v14PD4wMPDjjz/+3e9+Fx8ff/78+ZdffrmqqkqtVgsEgn379l26dCklJSUtLe31HRccHBwVFVVeXt7R0XHq1KnXX3/9/fffj4mJyc3Nra6u7txxycnJf/rTn/bv3x8WFtbd3V1WVnbmzJk33niDQCA0NTWVlJS4ubmdOHHCz88Pj8e/9NJLr7/+emBgIJlMrqmpEYvF6+vrUJtbW1suEndq2K5LFwIPEQLfi8R7e3tv3rz57//+74cOHbp161ZSUlJvb+/a2prdbp+YmPD19X3llVeKiooiIyOPHDny0ksveXp6pqamkslkiURCIBCeffbZs2fPpqSkpKenv/TSS8HBwVQq1c3N7dChQ/Hx8U4gMpnMTz/99KuvvmKz2QKB4I033vj73/9Op9ORaEBGOTk5r7/+ekhISHNzM4fD+clPfnLu3LmOjg5QCYVC/fSnPw0KCvLx8XnzzTcPHz7s5eWFx+MbGxsnJycRSxGHw3n99deB/SsrKw8ePHj+/Hk8Hn/x4sUjR45cvHiRw+GcPn366NGjGRkZRCLxzJkzTz/9dGtrq91uN5vNSUlJh3dcaWnpkSNH3nvvvdzcXDQafeLEiX379uFwuCtXruzbt4/FYmm1WpFI9Pbbb3t4eGCxWDwev3///tdffz04OBiNRrNYLKlUev369ffee+/gwYOenp6ZmZl8Pn9hYcFqtba1tX3yySeff/45g8Gw2+2VlZXHjh178803R0dH7Xa7RqMJCQn56KOPTpw4QSQSDx48eODAAehEORzO5OSkyWQC6FwMjjQhl8eFwMOIwPcicZFI5O/v/x//8R8fffTRzZs3Y2Ji+vr6gB3Gx8evXr36xz/+sby8PCoqys3N7aWXXjp79mxERAQOhxscHCSRSE8++eQvf/nL3/zmN88///zJkydZLFZra+uBAwfc3NzS0tKc0CwvLz9y5MiJEyfKy8tbW1v/9Kc/nTt3jsViOUXLysp67bXXbty4wWKxKisrf/3rX9+4cWNgYMBut6tUqpiYmF/84heJiYnV1dV5eXlg6/jNb36zf//+zMxMlUoFtoXGxsZ33nnnt7/97VNPPbVv375Dhw4RCAQ+n+/h4fHiiy8+9thjTz755GuvvRYYGKhSqWg02ldfffXnP/+5t7fXbrdvb2/n5OR8+eWXbm5u+fn5f/nLX37yk5/87ne/e+aZZw4fPhwXF1dWVnb58uXnn3++trZ2dXV1aGgICDotLQ2Px7/88st//vOf/fz8AgMDGQyGSqXq6uoKCwvbt2/fY4899sQTT5w4cYLP5+t0upaWlo8//vjTTz8tKyuz2+35+fkfffTRW2+9NTU1BSSOwWDef//9s2fPSiSSuLi4Q4cO/frXv37sscfef//91NRU5DOyE4CuSxcCLgQeLgS+F4kLBIKbN2/+9Kc/DQsLq6+vFwgEarXavOP4fP7Jkyd///vf19bWYjCYzz///NChQyQSqaurSywWz87OksnkZ5555tixY4cPHz548OBf//rXkpISkUh04cKF999//8aNGxqNZnV1dWlpaWZmRqfTUanUDz/88Pjx46WlpR0dHe++++4nn3yCwWBWVlZ0Op1Go5mcnFxcXMzIyHj55ZevXLnCYrEaGhqeffbZr776qry83G63t7W1Xb169Wc/+xmYy3k8XllZWXR09Oeff/74448HBwdLpVKoPC6Xu3///jfffPPq1at0Op3NZg8PD8vl8vPnz7///vvvvvvu559//j//8z9XrlwZGhpqamry9vZ+6qmnioqK1Gr19PT0zZs3Dx8+fPr06crKyg8//PCFF14IDw8nEAh1dXUjIyO9vb03btx47rnncnNzIflLL73k7e1NoVBwONyBAwe++OKLlpaWzs7OkZERjUbT09NTW1tbUFAQGxt78ODBt99+m0qlKpVKLpf7l7/85fPPPy8tLbXb7fX19Z9//vkLL7xQW1s7Ozvb29t7+vTpQ4cO+fn5DQwMcLncwsLCxMRENze3t99++9KlS2q1+uFqqS5tXQi4ELgjAt+FxJGpzb29vbdu3frVr37l5+dXUlLC4XD6+/tFIlFtbW1cXNxHH3309ttvd3Z2pqWlffHFFx988EFSUhKHw2lqahobGyORSK+88kp4eHhKSkpAQMCbb74ZHx/f3NxMoVA+++yzY8eOUSiUoqKikpKSsrIyHo8XFRW1b9++AwcOZGRk8Pn8gICAw4cPnzp1qrCwsLi4uKSkBEbowcHBzzzzzJEjR6hUaltb2+nTp0+cOOHv789kMlEo1Jdffvnee+/RaLTq6moKhVJYWJicnHzx4sVnn302KipqZGQEMKqrqztw4MCJEydoNJrVaoVvuUql8vz581988cWNGzeKi4tBclZWVmdnJxaLfe21127evEkikchk8uHDh8+cOZOYmNjS0vLZZ5+5ubl1dHSo1Wqr1YqMkQ8cOHDjxg0sFhsdHf3iiy/GxMQwmczU1NQDBw4cP368urqaw+EIBIKhoSE6nV5YWFhUVEQgEI4cOfLRRx/RaDSlUllfX//RRx/9/e9/h5H42NhYaGjom2++GRgYSKFQUlJS3nnnHQ8PDzCRFxUVFRQU5Obmnjp1ys3NzcfHR6vV3rFBuAJdCLgQeLgQ+C4kbrVagceHh4fj4uJ+/vOf//KXv/zv//7vV155JTg4GMzNv/3tb9944w1/f//R0VEKhfLJJ5/8+te/fvrpp//85z8fPHiwoqICj8cfPHgQh8P19fUJhcIPPvjg008/TUlJmZycjIyMfOONN37xi188+eSTYGqIiIj47LPPfvnLX/7Xf/2Xh4dHfX29WCz29vZ+7rnnHn/88SeffPKDDz4ICQkJCgpyc3P7+c9//tvf/jYgIKClpaWhocHDw+P555//zW9+88QTTxw/fryoqKi7uzsuLu7pp5/+1a9+hRhzampqDAYDrNhsampyc3Nzd3evra1FqnN6etrT0/PMmTNYLNZut0Nn88477zQ1NbW2tvr5+b388suPP/44FDwjI0Mmk4lEoitXrly4cEEulyMfEm02W21t7enTp5977rknnnjiD3/4wzvvvFNVVTU0NJSSkvLCCy/87Gc/e/XVV5999lkPDw86nX7x4sV9+/b96le/euyxx15++WUfHx+ZTLa+vt7e3n7ixAl3d3cmkwlKtrW1eXl5/f73v3/qqaeef/75N998s7i4uLu7m0wm/+Uvf3nmmWeee+65p5566vz587W1tY7z/ZEyujwuBFwIPHQIfBcS397ehq9hi4uLPT09+fn5RUVFZWVlTCazq6uLz+fX1NSUl5dzOJy+vj69Xi+Xy7lcbkVFRUlJCYPB4HA4Y2NjUqmUw+FIpdKFHVdbW8vhcIRC4cbGxsDAAJPJLCgoKCoqqq2tFYvFQqGwoaGhZMd1d3fDwhahUMhms8vLy+l0el1dnXTHNTY25uXl0Wi07u5ujUaj0+nEYjGbzS4sLKTT6a2trbOzs8vLywMDA3Q6nUajFRcXV1VV8fl8rVZrs9k2Nja2t7dVKlV1dXVHR4dKpUJq1GKxdHZ2NjU1SSQSu90+OTnZ0tJSWVk5PT2t0WjEYjGHwyndcc3NzUql0mw26/V6WPS0trYGw3CQBgt8ysrKGAwGi8XicDhTU1MrKysKhaKqqgpeFFgsVnd39/j4OJhTSkpKaDQak8kUCoUgSqvVNjc3t7e3j42NWSwWm802Pz8vFAqZTGZlZWV1dTWXy52amlpeXp6cnKyvr2cwGIBVZ2fnwsIC8jqFFNDlcSHgQuBhROC7kDiyV9TGxgasEtTpdKurq/p/uLUdt76+bjabt7e3TSaTXq9fX1+HhSewosdoNK6trZnNZsuO0+v1S0tLsMLQbDavrKws7TgYHRuNRr1ev7q6CmktFovdbrdYLEaj0WAw6HQ6YMnt7e319fX5+fnFxUWDwYAspzQajYuLizqdzmg0QiWZTCaQD2lhciHItNlsm5ubS0tL6+vrQI4I362vr6+uroIQm822vr6+tLRkNpu3dpzRaFxdXV1ZWXGcSg+rh3a3DKvVqtPp9Ho9FG1jY8O64/R6Pai0vr5uMpk2NjagmHq9fmVlRa/XIyPora0tg8GwtrZmNBo3NzfhHWJzc3P9H85oNMKMHZvNZjAYVnacTqdDCrtbK1eICwEXAg8dAvdN4giDP3RFfZAVvl9Ud8ffHfIgl9elmwsBFwI/FAL3TeKwVts1ufiHqgCQ46LgHxZPlzQXAv86CLhI/IGoaxeJPxDV4FLChcBDiICLxB+ISnOR+ANRDS4lXAg8hAh8FxJ/CIvpUtmFgAsBFwKPJgIuEn8069VVqgcNAXjZQv4fNPVc+jy8CLhI/OGtO5fmDxMCCH3/k0xn/ySxDxPE/6q6ukj8Aar5H2HOz3d41L9DkgcI0wdGFYDR8f8HUQ1W3iHHwyKXP0Jb+kH0dwn5/gg8OiT+sLfaH4or98bhO+SC8A60tr3lf/8W+WhIQEDbDTjCsz9ISZHqQHL8QcS6hDxECLhI/IGoLHgCf5DHG3mq71iw3Zxyx2iOgU7ssLd8x4Tf2f8jZPGddXtwEsIa3XvU5x4hvcdo95jpd4j2Hdrnd8jlEUvykJH4HnX8I7Q/Jzr7nk3BsSzwOgwr75FV/o4R7j2vvXGAfuLepSFruxCxiOe+hNxX5O+g5L3I/2543pfk+80CiY94kOz2wNlms21tbW1ubsL+E0iSu3mgdd3trmP4d0D+jprvobxjdrv9u6XtjvMdQkDsd9bqO+T4Yyb5kUjcZrNZrVY4897xWJm7FXV7e3tzc1MikbS2tvJ4PLVavbGxAUIQjoO0ThVjNBrHxsa0Wi2cTXHHNrE7EPa9stvtyAaNiHDYFwXCnUj2Ww8adtLNqbDb29uwbwyEW63WjR2n0WgGBgbW1tbg2dvY2HDcjMVRyN7ykZi7y4vcukePowTHTB39jqJg/xnHkHv3A0Pde/zdMWEjM8dwxGR8R4VNJtPs7KxSqVxaWtra2nLcqgyaxOaOg4bndBfJxYn+1Gr1zMyMVqtVKBTz8/OQ1mazra2twTbxyK6WiATwIM0bBDoib7fboTUaDIauri4ejzc0NOSYfGFhYXp6Wq1WSySS6elpRBQkdCo7yN/e3kZK5Ig80uRg4x21Wj05OYlIcMRze3vbbDYvLy+Pj4/D/sZINEfd4GFxVMnpLsjZ2tqCNwzYTQjwh0AkPmCyvLwsEAgWFhZ2VxkS03EI4oSkY5yH3f9jkLjFYtFoNHw+PyoqCo1Gt7S0LC0t7Q3c8vJyV1dXXl5eampqenp6R0cH7DJosViQNgcSkNYGlzMzM3CiPBwEDBtIOeYF4xfH04EdidtsNiOtB1I51v3W1paTAkijvFvDRbKen58fHx+fmppC9p+yWq3ADtBGt7a2jEbj+vq6QqGoqanRarWgGOwRhshBPPD4OeWL6INEQ543JMTR45jcsaSOcZAnAQIdkzhFQy6ht4NL2JAdUt0t7fb2NoAAOmxubjrVshNFIhnBUUpOpXYkcbgF/aVjpTtK0Ov1Q0NDEolkYGBAKpWOjo4ip0hvbm6aTCbHSt9dBEB4a2sLtkIDyUCyg4ODjY2NCoUCirO1taVUKouKigQCAfAdYhIBIcgoASrXqVwg2WazrayscDic+vp6mUzmWBCxWAxHjbPZbJFItL6+DtrCkAiRhgyGkBDIF4YRIBDB32q1KpVK2L8TAqHdOqbV6/Xj4+NcLheO0NqjspAd2XbH2dra0uv1MFaz2+3Ik4sggzQhaC1jY2Ow4TPssofo4wgINCfHf8e7j4z/xyDx1dXV1tbWixcvPvXUU/v378/Pz5+dnd0bQYlE4uvr6+/vHxAQgEKh6HS6XC63WCx6vR42MgTuttlsJpMJefINBgOPx0tLS2tpaZmfn7fZbHNzc8vLy8jhmQaDAbaihR3+tre3YRdGUGZra0u745x2IkRUhU0KjUajzWaDzQXhQFG73b6+vq7X6w0GAzQpJAnwst1u53K5mZmZVCp1dHQU9keEgsCWjRsbG7B14vLyskQiKSkpUSqV6+vrkBx4HP43NzdXVlagiZtMJtjCEBCAfSJhYIK0aYvFAtsaGo1G6KIsFsvm5ibsK2k2m2HjQ9gNEXk9hySQC8Q37jjYWHFpaUmn00Fkm80G3dLW1hbgDFAAAmazWavVajQavV6/vb0NxUR4EMoCqMKejiaTaWtry2QyraysLC8vQye3vr6u1WpXVlbMZjOSFujbaDTqdLrFxUXHrhFgAeaCrSuR2jEajaAkjPtWV1e3t7eXl5dFO66ioiIpKYlMJsNRsQaDQbPjkPYDhbJYLCsrK9CEtra2VldXDQbD6urqzMzM4uIibDNZVlZWWFjI4/EqKioGBwehteh0uq6uLm9vbwaDMT4+bjabAUmABfbIhC0/V1dXHQ+whm2NYY9Pu92+uLjY0tIyNDSk1+uBkY1G4/z8fEVFRU5ODoPBKC0t5fP5c3NzsM3n8o5D0FtdXV1eXl5fX0d2xITtRQ0GAxQKab3QYfB4PCqVmpWVBc/a8vKyRqNBMLFarUtLS2KxmEQiVVdXQ47QVmGnUoPBAE0FHjdoh0ajcXl5GfYEXVlZWVtb0+v1arVar9dDV4EUGemHkM4SKr29vd3d3b29vd1gMFitVtgGVafTIaM6R+5G/EjRHiXPj0Hia2trXV1dN27ceOGFF9599104xswJRCeU+/v7vby8ysvLh4aGtFrtwsLC3Nzc0NAQmUzGYDAkEqmnp8dgMMAg0WKxTExMlJeXo1Co8+fPX7x4sbGxsa+vr7a2Fo1GJycns9nstbW19vb2tLS0q1ev5uTk9PT0KJVKNpudkpISFxfH5/NnZmakUml8fHxoaCgOh+PxeMhRwnA+Z11dXWBgYGRkZFFR0eTkJJPJTExMDAgIKCsrE4lEw8PDOTk5cXFxsbGxJBJpYGBgbm6uqqoqYsdVV1eHhIQcP378rbfeQqPRpB2Hx+MLCwuZTGZVVdXMzIxarabRaD09PW1tbdnZ2bCNeGpqalpaWmNjIwzcNjc3JyYmSktLlUqlVqsVCATt7e21tbV0Op1CocTExMTFxXV3d6+urgK8Vqt1eHiYRCKlpKTExsYmJycPDg4KBILi4uL09PSCggIOh8Pn83E4XHh4OB6Pl8lks7OzAoEgPj4+ICAgJiamqqqqpaWFzWbHxcURicTS0lIul4tGo0NCQrKzs8fHx0UiUUFBAYVCwWKxGRkZtbW1OBwuJSWlra1Nq9UKhcKoqCgfH5/09HSRSIQ8+bAhe0VFBXTV0O+Wl5e3t7fPzc3Nzs52dXVxudz5+fm2tjYcDuft7Z2bmwsDPSiawWBgsViZmZnJyclBQUE1NTVqtXp+fr64uDgqKio+Pr6jo6O7u7uoqCg9PZ1EIhUUFGRnZycnJ8fExGCxWBqNRiaTvby8WCyWQCBobm6uqqqKjIw8duzYe++9FxYWVlFRkZeXB9XHYDCQ0+y2trYGBgYYDMbMzIxGoxkcHKTT6SwWq7i4+ObNm4mJibW1tVqtFg6l6urqKi0tFQqFMzMzRUVFMTExHh4ecPhqW1tbQUEBgMxms8fHx9va2ohEYnJyMpPJVCgU0A2bzWaxWIzD4cLCwlJTU2UymVAozMvL8/X1hTdUk8kkkUjy8/N9fX3Pnj0bHBxcXl5OpVKbm5vHx8f5fH56evrNmzfDw8NrampkMplUKk1PTw8PD8fhcAKBQCKRcLncoKCgsLCwoqKi5eVlhARVKhWLxfL3979w4YKPj09mZqZCoaivr4+Pjw8LC2MymWCxsdlsRqNxcnIyOjra29s7MjIyNjaWw+GMjo6yWKyYmJhbt25RKBQ48wuPxxOJxNzcXDqdnpaWlpSURCAQGhoacnNzw8LC4MyswcFBABCNRoeHh/N4vMXFRah0s9k8OjqamZkZEhLi4eFx7ty59vb28fHxurq6+Ph4HA5XX18PBhbo2+BdFuEWxxGAE/881Jc/Bolvbm4qlUomk3n8+PEjR46UlpbOzc05oYYADeGjo6Opqal5eXksFquzs3Nqaqqzs5NIJHp5eZ07d+7q1aspKSlwrLvdbp+fn29paUlOTsZisUFBQR4eHiUlJRQKJTg4+Ny5c19//XVwcDBE8PX1vXXrVklJSVNTE5vNDgwMPHv27Llz51AoVHNzc39/f1pamre399WrV2NjY5VKJQz3lpaWGhsbge6JRCKdTudwOAJeEUUAACAASURBVEQiMT4+PiUlBYPB5OXl1dbWhoSEREZGZmRkBAcHl5SU1NfXBwYGent7x8fHt7S0xMfHX7hw4csvv8zMzExNTb116xaRSCwuLqbT6enp6aOjo9PT04mJiQ0NDRwOB4fDNTc3Z2dnX79+nUAgILwMJ2bEx8dLpdKpqSk2m11SUkIkEmNjYxMTE6OjoyMjI+FhAxjhIAs/P7+kpCQMBoNGo0tLS3NycmJjYzEYDDxLRCIxPT09MTERjUZXVlYymczMzMyEhATUjoNHjkAg3Lp1Kzc3t76+vqmpKSYm5vLly5cuXaqqqiouLo6NjSUQCBgMJioqikQipaamYjCYlJSUgYGB7u7u2NjYc+fOeXh44PF4xIxmNpu5XG5qampiYmJgYGB0dDSNRsNgMKWlpePj4yMjI0DQbW1tCQkJJ0+ePHLkyJUrV6hUKpgIbDbbwsJCampqfHx8RkZGaGgoiURiMBiFhYUBAQGnT5/++uuvsVgsiUSKjo5GoVB4PL6oqCg8PDwyMjIuLi4gIACDwaSmpqJQqIyMjOLiYg6HQ6fTo6Ojz549+9VXX2VkZDQ0NBQWFoaGhl66dOnKlSvd3d3IuLWvry8zM7Onp0ckEjU0NJBIJBaLVVVVFRQUdPny5aioKB6PRyKRaDQaj8cjk8lMJrO1tTUuLg4gOnXqVGlpaVdXV0lJSXBwsIeHR0BAQGNjY05Ojp+fX1paGpfLnZycBBKfmJggk8lJSUlYLLagoIDL5RYVFSUmJmZkZGCxWAqFIhAICgsLU1JSMjIyfHx8wsPDi4qKiEQig8Hg8XiZmZkpKSnR0dHXr1/PysqC88GTk5Pj4+NTU1NzcnKIRGJ0dLSvr29CQkJNTQ0y2Lfb7S0tLQQCITo6OjAwMCwsLDk5ubCwMCoq6tSpU5999llYWBiHw4GxuclkmpiYQKPR/v7+6enpoaGhFAqlpaWlrq4uMTHx0qVLp06dotFolZWVN27cSEpKolKpdDo9MDAwKiqKRqPx+XyA+vz58yEhIRQKpbGxMTIy0sfHBwZYSLMBY2l8fHxcXFxERIS7u3tlZWVFRYW/vz+M3lAoFPI9CV5JnXjciXYegUubzfZjkDggZbVaAwICTp48WVFRMT8/j1haEfoGD0ReXl7u6OhISEjw8vLy9fUtKytLSkr629/+dubMmfM77ty5cx0dHRB5cHCQRqMlJSVNTk52dHTExcXBiPvo0aOenp6ff/75yZMnk5OTb9y4ERERAQeB1tXVxcTEfPrppydPnrx48eLRo0dzc3MlEklzc3NKSoq7u/uXX37Z29u7sbGxvr4ul8vJZDIKhRoZGVlYWBgcHExJSYGmptFoUlNTIyIiiERiUFAQi8WanJxMSEjIyMggkUiXL1+GMaZKpWIymVlZWTQabWpqCh54gUAANtPExESFQqFWqzEYTG1tbWVlZWxsbG1tLZlMvnXrllAoRIw2ZrNZJBKFhYWJxeLJycmqqqr8/HwsFhsbG1tWVtbQ0FBVVRUYGMjj8WDQYTabeTzezZs3W1pauru76XQ6vGpER0czGIy2tjboybq6umQyGQxUQ0NDg4KCeDxeZ2dnZWUlhULJyMhIS0sjEokymQysPRwOB41Gu7m5YTAYYAR4IcjJycHj8U1NTTU1NZ6enlwut6+vr6KiIjIy8ty5c5cuXZqYmIAqW1hYyMzMTEpK0mg0dXV1ubm5FAoFhUIVFBTAqU9lZWVxcXFYLPbMmTMffvjhhQsXDh8+HBoaqtFo4LFUq9Xx8fFUKnVgYKCxsTE9Pd3Ly+vEiRMXL150d3c/c+aMj49PYGBgaGgokUjk8XgSiQTscnw+H4vFEgiEysrKoaGhtLS0lJQUFovFYDDgfaK0tFQqlarVah6Pl5eXd/Pmzf3791dWViLvN2NjYzQaDU5KKttxPT09EomEyWReunTpwoUL2dnZCQkJubm5DQ0NCQkJqampWVlZGAymq6tLKpVGRkbW1dVJJJLu7m4GgxEQEPDJJ5/k5eUlJSUFBAT09fXBwVVWq3Vtba2trQ2QnJ2dXVpaYjAYqampmZmZc3NzlZWVISEhiYmJERERVCrVZDJVVFQQCAQQRSQS8/Pzw8PDa2tr5XI56EAikfz8/Gpra/v7+1taWlAolLu7+40bN/Ly8trb2x0/2JhMJqB4mUzW1taWn58fERFx7dq1r7/++osdd+nSpYyMjJWVle3tbYPBMDQ0hMFg8vPzp6en6XQ6kUgsKCgYGBhoamrCYDAHDhyIi4ujUCienp7l5eUikai3txdeatVqtUql6unpgU708uXLnp6eZDI5IiICi8U2NzeD+RGaTU9PD5FILCwshPHBrVu30tLSQkJC3nvvvYsXL546deqLL75oaGhYWFiAL6KO3xgc6QWkPRr/PyqJb25u+vr6fvnllwwGA54HsHhaLBbkk7Tj+47VajUYDMPDwxUVFdHR0efPnz927Ji7u7u/vz8KhUpKSkI+zXd0dBQUFFCpVL1ePzw8TCQScTicu7v7Z599Fh4eHhwcnJCQUF9fX1VVRaVSsVgsDoeLi4u7devWuXPn4AUwPj4+Ly8vPz8fjUbHxsbCCH1gYAC+109OThYXF+PxeDDtzc3NxcbGMhgMeBWgUqloNBqDwSQmJvb19W1sbOTl5YHZobS0FI/HJycn4/F4KpVaVFRUUVGhVqvZbDYKhVLuuMbGxqioqOHhYa1Wi8PhWCxWUVFRREQEm80uKChITk5WqVTIVyaz2dzf3x8WFjY0NKRWq7lcLvBsWlpad3f3yMhIV1dXREREV1cXNFCLxSIQCFAo1Pj4+OLiIp/Ph3FofHw8j8fr6OioqKgIDw+XSqV6vb6vrw+Dwdy8eTMmJmZmZmZqaorL5RYUFGRlZeXm5jIYjMnJyaGhITBHhIWFnT59GovFJicnYzAYuVze3d1dUlKSk5MjFAo7OjrAAJKdnQ1M6unpee3aNXi5sdvt09PTBAKBSCTa7XaRSFRaWpqdnR0XF8dgMFQqFfRzERER/v7+ly5dunz5ckREREhICJVK1el0UCkzMzNYLLa2tlav109PT2dmZn799ddubm7Xrl1DoVBoNDo7O5tAIERGRjKZzMnJSY1GEx8fX19fPzExARQMX8uBuJlMZnFxcWZmZkZGRmNjo1QqFQgEERERUVFRcCR3VVUV8lKv1WpbWloSEhIiIiLweHxvb29paWlaWhqZTL5586afnx+JREpKSiosLGxpacFisRgMBo/H0+l0tVq9vLxMIpHKy8sLCgqCgoLi4uJ8fHxOnDiRl5dHJBJTU1OVSqXBYIApSYuLi7W1tZcuXRKLxVChbDYbXvvsdntnZ2dUVJS7u3tCQkJbW5vdboezCel0emJiYkpKCplMTklJEQqFS0tLxcXF2dnZWCzW399fKpWura3J5fL4+PjExEQGg5GVlYXD4XJzc2dmZuBDCLTG7OxsePkrLi5GoVDnzp27ePHijRs3goKCUlJS2Gw2kLjJZBobG8vLy2tsbNzc3GxubiYSiWg0GoZTCQkJf/vb3xITEwkEgo+PD/QWIpEoNjaWxWLp9XqRSJSdnR0SEhIREeHh4REeHt7b21tcXJySkgIHiCOf0Nra2uCcdJgMg0KhYmJifHx8jhw5AlrFxsYODAyAIRQ+DkOXD99RkfHio0HfUIoficQ3NzdVKlVdXd0nn3zy6quvBgYGCgSCiYkJgUBApVL5fL7JZIKZAwiJLy0t8Xg8MIzm5ORER0f7+/tDPUVHR2Ox2Ly8PIVCAcUYHBykUqnh4eEcDqewsDA8PDwjIyMwMPDChQtoNDohISErK6utra28vBzer/38/AIDA1EolJeXV2hoKAxtCARCfHy8p6cnGHwvXrwoFotBK7C0hoeHt7a2CoXC5ubmtLQ0HA5XUFDA4/EwGExMTAyFQklOThYKhVtbW3DoaHV1dVlZGRaLDQsLCwgIyM7OJpPJMTExTU1NeXl50dHRYMPl8Xj+/v5lZWXV1dVeXl4lJSV0Oh2NRrPZbBqNhsPh5ufnkckeFotlYGAgKCiopKSkvLw8OTk5Ly+PTCYTiUSJRKJUKnt7eyMiIgQCASCzubnJ5/N9fHwqKirYbHZWVhaRSIT3+u7ubqlU2tDQEBAQUFRUVFNTk5OTk5GRERMTA/ZTsKtkZGQQicS8vDygwu7ubkA1JCTk4sWLOBwuKSkpPj5eoVD09fVVVlYWFxcDA968eTMtLS0xMfHq1atRUVH+/v4+Pj5TU1OgmE6ng9EWn8+HfKlUampqKtg9ysrKcDhcaGhoSkpKUFAQGBlwOFx1dTXyKU+lUsXHx+PxeC6XW15enpGRAXbS4ODg+Pj4tLS0ioqK/Pz8uLg4Nps9OTmpVqujoqIaGhqmp6cLCwtLS0vb29s1Gg2ZTE5NTa2srASjOZlMJhAIxcXF+fn5V65cQaPRERERR44cqayshPGd3W43Go3Dw8Ngw8VisUqlkkqlBgYGpqSk+Pj4BAQEkEgkDAYDHzbT09OJRCKMHthsNofD8fX1BRMWIBkQEHD+/HkqlQqDD6VSCV8XYRDD5/O9vb1pNFp7e3tPT09JSQkejycQCE1NTWQyOSwsDJofmUwWCoXp6ekpKSmlpaVga6bRaBEREWCESU1NpVAomZmZ0Hg4HE5BQUF0dHR6ejqDwQBzWXBwsFQqNRqN8LGXQCAkJCQ0NDTk5+fjcLiYmJigoKCbN2/6+/snJCTk5eW1tbWtrKxYrdb19fWRkZHk5OT09PSmpiYwdicmJnp7e8fExGAwmPPnz8NQxsfHp7e3V61Wi0Si+Pj4uro6o9FYX18fFxfn7e0dGxvr5eWFRqMFAgGNRgMrEB6PHxwchGbT09NDIpFyc3O5XC6Dwbh27VpaWlpCQsLZs2fDwsISEhJIJJJcLl9bW4NpP8hIHKFvhGFA4CPw/yOR+Orqand3d2ho6P79+5955pnDhw/n5eXBKO+rr76iUCjr6+tOJK5QKJKSkmJiYuAjVV5eXnFxcUFBQVpaGhaLzczMrKqqQhhBq9VWVFRAHx4YGOjr60uj0SgUSmxsbHh4OIyJYLSelJSERqODg4MTExNzc3Pjdlx6enphYWFOTk5SUtL169ejo6NjYmL8/f0lEgmYQdfX16urq2GeDAaDAStndHQ0dCpoNDorK4vL5RKJRKFQuLm5Sd9xMFUgKSkpKioqNja2srKSTCZfuXKFRCKlp6fjcLi5uTmDwSCRSEJCQuLi4qKjo8+cOcNgMNhsdmpqalNTU0VFBZlMXlxchPkhYKBXKBQYDCY2NjYsLMzX15dMJlOp1Pz8fLlcrlKp+vv7k5KS+vv7oXWaTKbm5mYwNYaFhYWGhlZXV9NoNCKRKBKJZmdnBwYGYmJiwsLCgoKCAgICGAxGSUlJTExMZGRkSEhIYGBgfHw8iUSi0+lcLnd6erqnp+fq1auROw56JgKBgMPhRkZG+vv7uVxuTU2NQqEQiURoNJpCoaSlpfn5+aWmpsbExKDRaKVSCU+RzWarqKgIDg4OCwvz9vYODw8v3HEpKSn+/v5oNBqFQmEwmMbGRjKZHB0djcfjs7OzW1tbYRbK9va2Wq0ODw/39vYODQ0NDAykUChVVVV5eXlpaWnJyckEAoHD4VRUVBCJRC6XOz4+Pj09nZCQ0NLSolKp4MBuWH+Qn59PJpPr6upKS0srKioYDEZISAh8Jbtx40bijjt9+nRNTQ3YAGFMt7S0lJycjEKh8vLyVldXKysrUShUQkJCUFBQTExMcXFxRkZGaWlpd3d3dnZ2VVVVQ0NDeHh4dHQ0Go0+ffo0FMff3z8xMTE2NjYkJATeRQgEwtTUFEznAAJSKBRpaWkoFCoiIgKHw5WVlWVmZoaFhQUGBt66dSsxMbGjowOPx4PNOigoKCkpic1mZ2ZmlpWVNTU1wbfBiIgILy8vMpnMYDDS09PRaHRAQADYIqDxpKam+vv7wxseIGw2m+ENOCQkJDQ0NC4uLjMzs7i4GIvFQudaUlLS09Ozvr4OZ72OjIxER0f7+Pig0WhfX18CgVBVVQUJk5OTfX19KRRKXl4eCoUSi8VarXZwcDAjI6Otrc1sNjc0NMAcAdAtJSWFz+dnZWWhUCgfHx+YJgDteXx8nMFgRERExMbGRkVFeXh4VFRUsFisqKioxMTEtLS0/Px8hUIB07eAxx/hMThg8iORuE6n6+7ujoqK8vPz8/DwOH/+fFZWVmNjI4/HS09Pb25uhnN+HY1Wi4uLPB4PvlzRaLTJyUmdTjczM1NXV0ckEgkEQm9vL2KjtFqtCoWioKAgKSkpPT29vLxcIpGMj493dXWFhIRERUUVFxcrlcr29vacnBwUCsXhcEZGRmZnZxsbG2E+QHNzs1wuFwgEcXFxWVlZdDq9vLxcpVLBl/rt7W2tVtvW1hYaGpqcnFxXV7e6ugrW82vXrjU2Nk7uuPb29pmZGbvdLhAIxDuOTqfjcLi8vDywlnR3d6ekpOTn59Pp9JqaGng9X19fr6+vB/sjjUaTSqWDg4MsFgvmIbS2tsKMRmTOwOrqqkQioVKpJBKpqqqqfce1tbUplcqFhQWlUllXV4dYLYxGY1NT0+XLl8PDw9PS0srKyqampiQSSUtLy8zMzMrKyvz8vFAozMjIAFPGxMTE1NQUfLr09fUNDAxMS0tjsVi9vb1DQ0NwMHRNTQ2RSCSTyWw2u6Ojo7m5ua6ubmJiYnh4WCQSwSM6NTUFk3Z4PB4ej8/NzS0oKHC0SNjt9tnZWS6XCwN/MGfJZLLOzk4KhUKj0crLy9va2vR6fX9/f2FhIQqFAvM3NFxHEkej0SkpKQKBwGAw6PX6hoYGPB4PFobe3t6mpiaZTLa0tLSyslJbWzs6OmowGPr7+/v6+kZGRvR6vUAg6OzsHB0dFQqFIyMjExMTRUVFLBarpaWFTqdnZWVRKJSioqL+/n5YQQYVsbGx0dvby+fzpVLp9vb21NRUbW1tcnJybm5ubW2tWCxubGzk8/kSiaSurm54eHh+fr60tJS84woKCsCGXl9fX1hYSKPR2Gx2T09PY2NjTU2NRqOBE8bBzLi+vq5SqXJychITE6lU6vj4uFwur6ysDA0NpVKpME98YmKipqYGh8NVVlZ2dnYODg42NzcPDAzMzs42NDTA15oLFy5kZmZ2d3crlUroF7Ozs2GyCpPJhJF1b28vMlPTbrfD4xYXF0elUqurqzs6OhYXF3t7e8G+X1lZCa/CVqsVJjiyWCw8Hg9qjI2N6fX6urq6zMzMtLQ0eO/p6OiorKwcHR1dXFxUqVSNjY1yudxut6+trdXX1+Px+JKSEiaTyefzVSoVfK3Nzs4eHR1FJjXBpPWioiLAraCgYHh4WKVS9fb2ZmZmEggEJpM5OzuLTH4FHn+Eh+HwZfHH+LBpsViWlpZkMplEIunr64OmD5Nq5XK5Wq12XOgBT6nZbIb5W2KxeGxszGg0wkoErVY7MjIik8kWFxfhcUIOp1coFGKxeGhoSKVSGQyGzc1NmJbb19cHyzfm5uZGRkZ6e3th/qzFYtHpdGNjY4ODg3Nzc2tra4uLi319fVKpdHx8XKVSIbMRYCq0VquFZw+m1iwuLg4NDfH5fJjSZLFYkAnpOp0OpjlPTU3JZLKJiQmz2Wy1WpeXl4eGhkZHRycmJlQqFTRNm82m0WhGR0eHh4fBHqrX61UqFRx7v7Cw4PgCCPPTDQbD1NSUQqGYnp5e2HEajQYmjBuNRrVajawGNJlM7e3tvr6+LBZrYGBgamoKpiHPz8/DnPH19fXl5eXBwcH+/v7p6Wmj0ahUKisqKtzd3S9cuBAVFQVdFExph4V/Go1GLpePjo4uLS0tLCyo1erZ2dm1tbXV1dWlpaXFxUWYKYwUYWpqamJiYmxszGmlrsFgUKlUcrm8uroaOjaNRrOysgLgaLXa1dVVWOI4MzMDSxBhUimooVKpMBhMVlZWb2+vWCyen5+HiepqtXp4eHhwcHB+fn55eXl+ft5gMMBCR7Vavba2BmYKmJYOlbK8vGw0GmHq98bGxtTU1Ozs7Pz8vFKpHB4eVigUWq12bW0NjMXIBHy9Xr+ysgJQm0ymubk5iUSiUCigdcHs+KWlJa1WCzOylUrl2NgYlA6mli8uLs7uOERVrVaLEBboDGuIJicnR0ZGoILW1tZmZmb6+/snJibgizc8LPAoQbm0Wi2oV1ZWFhwcfPHixVu3bnG5XOgh5HJ5f38/TFRfW1ubmJgYGBhQKBSIvQh5BhcWFsbGxpRKpVqtXlxctFqtOp0OHrSpqSnkezusU1Or1aOjozKZTKVSwchjfn5+bGxseHgYFq9ChOXlZZjIPz8/j0iYn5+Xy+WAPDxHk5OT8EQgr+lAWGazeWZmZnrHwVqKjY2NlZUVyAi0gm9IwN2ukTjU5g//77h2Dlmc5jgSB9MBZIx81rujHtvb26Yd57g4AomJMODeQiA+UORuObDKAHl6EeF7e5Cs9452X3fvBtHdhGxubg4NDeXl5SmVyt0IIOsYHYsG30ujoqLi4uLKysqmp6eRl4A75uJUTGQJ4u7IYB+A+ND1gkrT09MCgYDP5yOP9O60TiFbW1vz8/NVVVX9/f3I9yvgOyd9nBL+mJdOlXW/WSOLthxrB4gMEbV3FkajkcPhwBTD4uLi8fFxq9VqsVicIIJagMYA8p1yRLLbw/OtSeDhgsVcTgrsIRZuwaJfGOrtHRk+ejsRN6C0N1Z7i33A7/4YI/G9IQBwkRcfp8iOS6jhFtQoEg3WAcILFBK4hwcWDe9NTE7Jkep3bA0/mt9RGehO7iVrSAWFtVgsd2zWyIJ4R4GwphnWEN4toWP8O/qBC3bfQmrZ8Rbk6Pg2htyFUjhdIoFAc3AXJN+xmAhlIHK+jwepDkTI7hDkFnjuWGqnOLsvnSY4Q4S7Abs7ObK+EZkDhnx2umNkRD4CLxKCxN+d++4QJPK9eL4VOichTro53YXLvdFGcnyUPA8QiSMPmxO+UDdOgcglrK5GrGBIOHgcBwh3k++UZPflHdvKjxboqM/9kjiMUu+mKjI0vluEHzx87wdsd3ZOHOEEhWP8vSVDQsf438f/w0q7oyZOr6d3jPPPCNy7aE7VAQ/U91Fj7+x2S76X+PfSEkDOI/P/oJA4VJgTrBsbGwaDYW1tDUYTsJfF4uIiWDkhsiOJw7YbYL5cWVmBremMRiPEhKGN3W6HvRocOd3R76QD0pLuNspDIvzzPIhKezdQJwXAJLWH2ntTvJO0H+TyvvTfzREIDruVuV/JuyU8aCH/KyXaTdN7w3K/8feW9oPc3Rs3pAk9Sp4Hi8SdyFSpVA4ODsrlctgbaGhoCFaKd3V1Oe50g2ysbLFYZmdnxWLx9PR0b29vdXU1h8NRqVRIhcF0qL6+vuHhYZPJBNMAoIdwHLNDfMcmtXfLcIz5T/Xflxr3QuJ7UPw/oyD3pf8dFbgba3x/yXfM7n8x8NEr0Y8D5t64IVTwKHn+90n8jmjCljowYwmmmsEWVwkJCaGhobGxsUwmE9mTyHFX7pGREZh4B/sfjY2NgaUFvqjAZ3RYRqRQKBgMhlAohNVxTiTu1OCQQevdSMQpvuvShYALgQcQgTuyzcMe+ICS+Pr6+tjYGEwiZrFYKysrc3Nz7e3tTCYTi8VGRkZSqdTJyUlAHyaKDQ8Pt7W15eTkxMTEVFZW1tTUtLa2zs/Pq1QqkUhUXl5eU1MDq8U4HA6TyWSxWLCYsK6ubmpqqq+vj8vlcjgcqVQ6Nze3sLDQ09PT0NAAy0PW19cdWf4BbJ0ulVwIuBD4VgQedr6+o/4PKInD1HIKhYLBYMrLy2HKMCw2aWxspFAoFRUViJ1ka2tLJpORyWQ/Pz/YIauwsBDWvk9PT1dXV6PR6LNnz545cyYhIaGvr6+4uDgrKwuLxR48ePDdd9+9du0ai8VKSEiA3YtIJFJjY2N3d3dkZOSVK1f8/Pza29sXFxddJP6tT4grgguBBxyBO5Lgwx74gJI4wMpisXJycrjcelhSodOttLa2paZio6KimpqakA2JpqenKyoqwkLDGhsbKyoqMBgMLLvPJGW2tLSkpmIxmESRSEQkEjMyMurq6pKTkykUCqu6+rqXV1p6OuyJmpmZWVFZ2S0QEAiEqKjoVCw2Ao0mkkjt7fzba3DW15Ga/mba+APeWl3quRBwIbALAeQpfpQ8DzSJNzY2FRTS6hsajSbz7RObNi2K0TEmk0UgkHJycicnv9lNSS4fpheXxMXFq1SzUulQbk5ecTE9M5Ocnp5RVsZITcUWFBTa7PY6bj01v6CKyYpPwGTn5DY1t6AjI5msaumQLBwVQS8pVYyOmTc2yZSssPDwnNy8tPQMPIFIKyoWikRLyzqo9W2b3bpts27btm22bZv9QfvZ7PZv/9nstkfqt+tJdQW4ELgLAo8SdyNleaBJvKqKlZFBKCljLCzpLNZtg9G0uKzrE/YXF9EjI6MHJVIohlw2XFZWnpKCnZ5WDQwMZmXlFBYUEQgkbCqOXlySkUGg00vNG5a6+oaCwqKKKiYmKTkvv6CljRcZFcOoqOzpEwYGh9BLyxRj46trBhKZEo9JbGhqLigsioyO8brhU1pWPqIYM21sbli2trbt23b71rbNarM/aL/te2HwnTg7n2d3qHzbbnvYf7c7JJdzIXBPCCDE9yh5HlASX183jo9PBgQE/+3k3339A3gdnT1CEYvNyaUWxMTFh4dHZGXljI9/82FTNaMuLi65eOFSRjohPg7jdf1GGi4Dk5CUlJTS2sqLiorxvOZFpmQHBodGx8Yzq9nxmERqAY3H7/S6cTMoJCwtgxAegQ6PQEfHxqdg08LRkcmpODanjpyVExIWfsX9agaByGJzBL3C8Unl5pb19n7z98PgtwfvP8pv2367g7nbz3GEfrsFw2D8YWdw0N/F4/fEYK5ItkeJTnkMIQAAIABJREFUu5GyPKAkvqpfk0ik0TFx7lc9A0NCG1taBX3CusYmcnZOWgYhv4A2ODi0sqKHYpiMGyJhP4mQmUkkE/GkTBKFXV1TVcGsqeZMTSorK5iYxOT4hMSr17wiIqPqG5tKGRU8fufYxFRxSRkuHZ+OJzCra6gFNGxaekJiUhG9pLmVJxSJc/PyE5NSsLj0ppbWVh6/pY03Oj5p2rDcF4k72lu+M5U7CrkbR98x3JG4/7/263jjjinvJfAHEXIvGe28YnzLG4OLx10U/W0IIKz3iHkeUBJfNxonJqeqa2qphbSiktJ+qXRsSjk0ouA2NTe2tA4MDm1sblnBfLBTIWurBvnQMK+F18HrGByQTo5Njo9OKCenjevm3l5hTi41ODTM87o3JimlT9Q/OCSfndMajGbljIrf2cVtaJqZVQ8OyZpbecxq9rBidGFJp9EuNDW31tTUdXYJtPOLE1PKgUHpnHbBvLl17yQO5Gv7h+n8+5P4bVv2vY21EYK9a3tFYty7x4lw7z2hU0wnOXtcOib81pcGF49/G4s91Pfv2pL/5W88oCR+x3rZttstNvuGdXtja9titcHQ0mK5bd+4m7NYrPX1TRHoqJNfnb7h619QRNcuLm/smETulgTCwfa9O8623W6999+OFeX/mVPuPaFjTAche9Ad3HIkPSf/7rLcwzfQXVZ2RAMn6fd1iQi5d4+DfNu2fdvh9/9G6C4Sf6hJ+tuUv0MDdgXtIPDAkTg8rY61s3vsCXGQgfjtSwdjwfb2/3epUmsFff2NrbzOnr7xaZXVbt+02S0741kkkdVu39oJub1U/R/+rR2PxWY3Wm4P+u07CTe2v0lusd8WsvcPJCD/e0e+291vktvsW7bbSu7dhdyNFXej6ojwffhBEALcfaR0iIoI2V21SAEc4/zDj0yqcSTx29X9bZbx3UuxEW2+jTp+mPvI9gaOO1s5rf51vETU2+0BhaBEiNjd+8w4RUNigsC9S3UvcZx2yHAS6AQ4FA3RwVE3p4R7X+5GwxVit9sfLBKHpxUeZHjAgbMsO3wKVLv1j/kVcAuMG5tbdhhe2+x2y9btD4mI27bbN7btGzsMCMEbtm8uIaOtHS7e3OHH2wcO7FyCx7xtX7dY9ebNzR1xRqvNZLVt2Oyb9v+d392IHsLvSPFOrIjA8qB4/kHQzq8Fd9Lvm7j/ME8hnwoQct/x3IEHnDjFkYDuEPuHCAL1EW5F+Av23YXLO7K2o253wuD2VByEwRGxSCon3aHPcDwsGJGJ6OaUxDGC0y3HSyQaeBxvOWroqJijtrDx9+7dcRFpiMdJslO+rssHjsRvN+udH/A1UkNAmha73WizG7ft5p3x8obdvrETw7htX7feJl+ExRDmQjwIq6/b7Qa73biTdsNuN+34TTukDMNt6z+G5Hb77YxWrXb99jdJ1u32H+pn2BFlsNvXbHeQadhRcndexh1t7/Zv2imOeecf/KadIph3/jf+0fE49QSOLwpOnZNTTOhKkUDo7ZD+w1EOxISQu/mhD4YK2s3kSMUhHoh/Wya8lNi+eSlBXsigtQCDIJtxOxKlIx0gTQvxOCV0jIyw0h2JD5HgmBeiDAQibAVnL+xB4o7S7uhHlHHsmZCYjmpDBOSwYCRTJDJ4IAnCsE53kUtHyQg1777r1G3ccZ0zxIHz5+4oFpGPFBaJhuTo8iAIPFgjcVDLtmO4WNu0Wex2rcEiGBrrkU30j85IlRrZzDz8K5fXJ5cME4trE0uGEY1ueG5pRLM8pJof0eimdMYpnXFStz6xbBhb1I8u6hWLesWSXrGsH15clc0vyxd08oUVqWaxXT7WqZjon9EolvWDc4tilVY2r5PN6+QLuuHFVfnCimxeN6RdFqu0Us3S8OKqVLM0OLc4OLco1SwNaZd3Yt6WI9UsyeZ1EvVC/4ymf0YzpF2Wam5HG15cGdUZRnUGkCa9ncXtuz3j080Sed/UbGlzO6WS3TU6BTKFU7NSzdLA7HynYrJpYKh7TDmypJdqlsSqedG0dmB2UTq3ItPqhxcMMu3akGZVOrcinVsZVK8MqnWDat2QVj+yZJxYtYwum+TzBplW3zky0yYd7xieHlAtyzR62dyqfE4/tmgaWzB2y5QC+YxkamFyyTy5ZB6Z0wvH5tg8Ib2WV8RuKWA21nYM9I9rZaqVbpmyuW+4Uzoln12Rz652DE7UC6Sd0qmJRZN0eqlnWNUlU44vGJUrlqnljdH5db5korVfIVevjmoNCs2abHZlVGsY1RqG5/QylW5EszasXu0eUnZLp7oHJzvF4+IR9fC0blJrHJ9bG5nWyaaWJjXrE3OGkWnd0MSCYlo3rtKPzqxMzK5NzK6Nq/STasPMvEm7smXe6bmBxKEbAMZcWVmRSqUqlWptbc2JmqGBmUwmR3KBQKvVKpfLuVyuWq1GzkhDnhPYEhI5kQrOqdl9WJLNZoNzBIF0kENzHE+lsVgsiBxH+ffuR4jS6cgbCIcib25uwqZvQOKOvRpkBBqC32w2GwwGOAjtW9WAMt4x2ubm5tLS0tDQEBx0ubGx4UTHkCnEWV5ehmML7ygKApGSfmsfs4eQR/7Wg0vi+q3bQ9SBSU1mCQtPq6TVtHAFg9weaW23pK5nsHVwrEUy2jgw0iAerhcPc8Xyun55rXCIKx5uko7d/g2ONgwq6gcV3EFF7YCcJRyslQzXSRV1gyPcodH6oTG2WEas5may64vbBfWyMZZwkNElrOqT1AzIa76JfztmnVTBFA4y+yQskbRGLK8Ry9iOv/4htlhWMyCvlYzUDMjZ/UMskbT6dkxZ3eBIg3y8aXiicXiifmisbnCELZZV9Ukqe8TpFewwUk5eIy+hsDQsM7eE31MjltWIZaWdfTViWWXvQE59a3plDYFVl8NtzaxpKGztquqVsvuHq0XD7P4R7uBE7cBYjXiU3a+oFo1UC4dZwuFq4XCNeJQ7ONEkn64fmqqVjLP7FRmV9QmFlfiqhkqBtFY8ViMaqROPNUmnOH0jyQVV+LLakpY+3vAsT65idUszSmuvR6WeD4z2QCVdjUiKzykrbRUyu6RxWSXXo7DxOWXl7f1VnYPJBVXXo1IjCAWsbim9uZfAqEulMRsGxvkKdZt8pl48llnZkF5Sw+oeqhMpavtGmF3SevFYw8B4nWiU0zdcJ1IwOyU4WnVqfhWukJlRxM6vbmO1D/AGlc394w19ivpexW2/aKy2c4jNG2gQDLf0jTZ0ydv6xnnC8WbBSLtwQijXjKuNa5bbRq3d37Xn5uYqKyt7enrUajU8/HAsGVC844AUoZjbb11ms1gsrqmpmZubQ45XdXr+Ib7BYFAqlX19fbOzsxABGTDC5ebmJsLmyEAYEQUkjlwiA2okZLfHUU+4i4h15GLED5vsm83mzc1NOP8IEHA80AphfLvdbrFYxsbGenp6oOfb3cPtVskpBLork8k0NjZWXFzc09OztbXlWFKwn4ACCoWiuLh4cnLSaDTukReCKhQfKZ1T1q7LB5TELTs2gZVte7NI7h+Lu3QrMgqfV9LYVVjXTuW05lQ3kSrq8P+Xvff+SjRb/wX/jPnpzlrzy6xZa+bOzPd+v/c79/RJHc7p3NXVlbty0ipzziiCKBkkgwICCoIoYiJJFFQUc845iyJKBmUW7CraY3VX1+lwbvU59ay9Xjb73fF59/vZz/vsvZ/d0E5t7GC1aKrbtMxWDVWmZLVp2R16tsLAURq5ahNHbapS6JkdWpJcWV4nZSh0HJ2lSmNkqgzVGhNToculVudSqxF8CbNDR2pWYiVyXEMLo0NLb+/ESuRVaiNP383VmmmtGkx9M7KukanQVauMTIWe2qomNysrZQqSTEFpUVFb1NQWNVtj4um7OZ1d2IYWSouK3dnFM/TwDT18Yy/f0MPp7GIqdKRmRRlffDsf+uf7cQUMLkIgQYmamAodU6kny5UVwkayXEloaodyhfl0zrNy3PWswm/S8nIobEaHnqU0VTap8A0KRruxWt1drbLQ2gzEJnWlTENrM1SpLGxND0fTw+nsrVKZaa16QqPqKZzwbS48FcsgN3dWKc2U5k5Gm4GttFRKVbcyoc/hRBRf1mAeabCMVjYoHxRU/MelO/9x6c5Xz7KvphRm4VhkqbqyQfnZk/T/7b1Pv3qWjeQ1ESWKBwUV//v7X/3++mNYlRhWLX4OJ97NgbMVZknXiFA/wFGYC6n8LByL1KCiNKqJEgW2roXWrGUrzDXqnup2E1XWCa+W3M4svZMFe1KISikjQci8SmG7SNNXLddXy/V8hUWk6WPLDaS6NpKglSszCNu7OY06QbOJ32SoEqlqm03q7ump1eOjQESfFlm3Hw77g+HjE8/xScTEzdLSEolEam1tnZmZAeASCAQcDsfJycne3l7M5I7H49nd3bXb7UDuPjg4mJ2dHR8fB+eQ2O32w8PD74WYlZWV5uZmKBSqVCrB+dTHx8cHBwcxK2ngqOj9/X1wNDNAUq/X63A49qMEZGS/37+/v7+7u3t0dHT+6Etw4qDT6QTnKfv9frfb7fF4wNnf4ESUC/gIMnc6nSBnAN/gKHCXyxUIBFwu106UQGNPT08dDgc46hqcOa5Wq5FIZGtrKziFHNw9PDwEyc+PIuDolZgQHTvMGtRhYGCgpKRELpf7/X6Xy7W7u7u9ve31egGmezyecDjc29sLgUBGRkacTqfb7d7Z2YkdgR2xruHz2e324+PjWBExmD5fjVjgO8/bC+LucPjwNKwdnMmqID3OhSOYdTLLsLRrsKpFW0TlfhmX9umjpG+ziqGs2mImPw6G+fD+s0uJ2akYCqlJye201HXZqlSmDBLrERzzTVbRHx8+e4oi5rMFuVX8u6XIO8WIJ+W4RzB0Cp6WRa6+X1x+Paf469TcT56lPYah7xWXv//weVw5HsaXEGSKBBTpckru5wkZWaSqEo4wn1HzoAR5Mxf6CIYurBLcyoN+HJf6SXxqCp4G40sg7LqPn6V98jztbnE5TNDAVJtqzTa+qY/ars2hcb5Mzv7gceLvbj/+04NnSThqHrOmpKae0KxMwlI+T8r8j+v3PkvIeAhD5dC5yTjqpbS8//rV9f/yp4//EpeaiKWl4JmXUgo+fJR6IxuGqm/HSpVx5aQPHqV8mVyQSa5hqiw84wBXb+PqbTC+7H4J9vd3nv371YcfPk6LKycVsyUpONYXiXmXUgrTiWyEQH49qzSurLKM18TXDzT0TNBaDE9hxMvJhXFwIkGqRvCbSTJtldKST6u9klb8+5txf7qTUMpuIDdrn5dTfn8r/k93Ep6U4iFM0bMy0vXMUpbCIuwa4Wn76a3GVCzzCRQPZTc8gKAvJRV88Tz3Siokl8KvUlqKGMKb2bDfXX/yf/zlypVUSAqKHl9KKKYLK2pkUEb95ef5nz1Kv5MJzyfWxBVhP72X8qcrT5KhlVi2rIwqis9FXXucc+luWnIBrqbRMLfl9UQR3OkPL2/Ym1sUOAIJTyCazebe3l4ajdbR0TE3Nwde+/X19fb2djqdDoPBKioqFArF7Oxsf38/AoEoLCxksVjDw8Ojo6NWq7Wrq2tiYqK+vr6kpAQGg3V1dcVOhoqBhc1mg8Ph77///tOnTwUCweTkpFQqraioKCoq0mg0AwMDHR0d1dXVcDi8uLjYbDZvbGwsLi5WV1eXlZWVlJSgUKi+vr6BgYHKysr8/Hw8Hq/X653OFzvXwuHw0dFRf38/DodDoVBCoXBlZcVkMtXV1aHR6NzcXAaDYbPZjo+PwSdFIBCYmZmRSqXZ2dkIBKK2ttZqtfb29i4sLOzs7MhkMpvNtra2ptFosFhseXl5S0vL/Px8f38/kUjEYrHAGNzExASRSPzkk0++/vprPB4vk8nYbHZpaSkOh+vs7LTb7bG2Ly4uymSy8vLyysrKjo6Ok5MTrVZLIBCys7MbGhp6e3v7+vpwOFxra+v8/HxtbW1JSQkUCtVqtXt7e+B07LOzs76+vrKyspGRkdHRUalUmp+fj0Kh2tranE5nf38/m83OzMzkcDh9fX3nz85+J4nHnsIFz1sK4v7ozN7BWVg3PJ+LpscVIivYkubeCallpJwnfVyCvp5edDWt8GZWyaNi1K2c0s+fZ/3xTvz1rJJsMpsk13C0PbWWQUqH/tvi8q9zIF/nFF8pKL2UW3ytCH6/HP/B87TLuSUpJNa3RYjHCHx8ReWHj5O/Ss37JrPoj/effZ1ecCO39JvMoqs5JQ/g2AQM5eP49P+8dv/fr9z9OD7t28Kye8XIv8al3SkqfwTHXssu+Tq94HJ64dWs4itZkFuFZTcL4O/di/s8JfcZhoxsaGWou3hmW233UEFV7QMo+koW5Fou9OOEjD8+THhYhn2GoTzHUhPx9LtQ1DfZkC9S8z6KT72SU5JOqX6EwH+VXvC7u3H/du3eF6n5D+C4y5kl13LgVzJL/xKXFY+kPUaQP3iS8VFc5s2CihymkK7q5hqH2HobVWF5hqZ/kVJ0LRfx4dPMvz7LuQfF3SpEfZZU8J+34v+fb+5/kVL0tIJ6OQP6tJxcypOxtf11lrFKuf4RjPiXp5nfZECzKPxUArtC2E5pMz0qJd4rxn5bgPzgYVoeXYis73iKIF/NhF1KhdzIRaQTufcg2K9TixnK7lrzKEdno7SaElCMuxBMAbP+Uirk0+e5d4rQf3mSeacIXVglvl2IupGL+CYD+p/Xn17Lgj8tI13PgmcQOOk49s0s+OWkopuZ8GdwchFNmFRG/To+/72vH339NDe+EJddwbr5vOjr+5l3EouvPs5FUOpHl5wn0c+1lV1XfVMHFI58npiSkJhEIBDYbDaZTG5vb4+B+MzMTHV1dUVFBZFIpFKpSCRSpVIZDAYikZidnZ2Tk4PH41taWpRKZXNzs1gsxmAwhYWFVCrVarWeh1egkBkZGSEQCNeuXYNAIGKxmM1ml5SUxMXFXb9+HQ6HUygUAI5IJBKBQLDZ7La2to6ODiQSSSAQ8Hh8enq6VqsdGBhgs9n5+flpaWllZWXT09MxXUd/fz+ZTE5ISHj27FlhYSGfz6dSqQCC0Wg0FovlcrkAE0Oh0O7ubmNjIwaDwePxfD5fJpO1tbU1NzePjo5ubW2RSCSJRKLRaEpKSlJTU5OSktLT0xsbG0UiUWZmJo1GI5FIKBSqs7MTjUbfvHkzKSmpvr7eZDLV1tZCIJCUlJTCwsKhoSGvN2KB7vT0VK1WQyAQNBotEAhUKlVvby+TyUQikQwGo7Kysra2Vq1WE4nEmpqatrY2YpTIZDIOhxsYGHC73UCpYrVakUikwWBobm7G4/GAYyQSSaPRkMlkCASCRCLFYvHg4OAF5l8Ar3d/AQfeXhB3hcMHZ2H9yEIBjpVQgkXXNDZbJ8Rdgxk4xtX0opJqUSm7PhVD+yw+4y+Pkj+JS7uWAUnF0RH8Rmqrlt3ZzTfZKls7r+SUXC+EJ1QykLKOL7IKf/8k8VJu8R+fJj1CErDNypuFZbch5fdL0b+7/eReMTKNwPwmvfBqJiQOQYDxGq7nQD95lv5xfPq/Xb793y7f/u/X7v+fn1/76HHy16n5f77/PJfOy6Jw/v3qvYcwTBFbCOVJ/vos/b178R/GpX6SmPWonFDMk1S2axkaM9fUJ+wduVuCvJJdnEWvgQtlj8rxf3qceAuCuANFXsuHfZyY+RCBy6uqLRM13yiEX8svTSNX3y1F3yiE3ywsu1OCjEORn1SQPorLyKYLYAL5l6mQz5IK3n+S/p/fxt+F4tLIPEhNI1VpYRsGWNo+ZIPySk7Zl2kQUnvXMwzzah7iZiHyP7999m/XHr93L/G/Xr733r3EL1KLvkorflJBgfKb2foBvnkEJ+u8X0r4H7efvXc34Wpu2Y38yMCAlCg+Tcq/VYh6VEb686O0ZxhGDkN4rxQfj6I/LiffKkTdhxEuZZR8kVJEV/XUdo+xDQPk9q5naPptCDqPVX8pveROCRbVoLyUXvJZcsGtQtSHTzNTiBy0VP1tEepuMfZ2EfrT57lP4JV3ClB/uJ2QQeBg6hWVTVq0sKOQWhcPJX4Vl/vnm88/uZeWVEq+l1GWUIhHMhu/epCZDqN1T24fhsLH4fDo/FZGfunT5ynPElOSklMyMzOLi4vxeHxra+vs7CzQh0xMTDCZzKqqKqvVOjg4mJWVxWazFQqFXC4nkUgZGRl3795lMBhisVggEJBIJCwWS6PRdDrd9PT0wcEBeFVikuDS0lJTUxMcDu/o6BgcHHz+/HlcXNzz58/v3LmTkJCQnp6ek5PD4/EUCkVHRwccDi8rKyOTyUwms7u7u6enp6CgQKVSjY6OarVaFouVkpJy/fp1k8kEVA3BYFAgEDx58iQhISEpKSk1NTUzM7OgoIBIJDY1NdlstpqaGigUCtTxwWBwdnYWg8FUVFQsLCwcHBwAqbyurm5oaGh/fx+DwZBIJCqVeuXKlbS0tJycnEuXLmGxWDKZnJub29PTo9PpqFRqU1MTiUQqLS2Vy+Xz8/Orq6sKhYJOp6ekpHz22WcdHR1HR0dAdS4Wi1NTU0FNAIJjsdiGhoa9vT0ajYbFYkUiEfiGIBKJXC53KErp6elyuXx7extkYrVaUSiUWCym0WgYDGZhYUGtVmOx2IqKiqysLDgcrtFoTCbT5OQk+OB4B9av58BbCuJgiaEjHNYNzeUgaYklODSvSdYzJtBaExDEq+lFLKWpWm0uqRb99XHKUxguHo7/JiX/i+eZcTAcSiSvUpl5hj5SmzYiShMZsPpmjsV2s6TivccJHyVlXs4ryWHXkpWGa/ml30LKn5QTPnicnIJnIARNCRWkZwhCLoVLbFTezIZ+9DDpo4eJ/+P6w48eJV1OLfgqKfdWDvR2HvyrxBx4TUMhq/b/u/kwnyVgqLuoCsOXqXlfpuc/ROCu5EE/Tcm5lFWURmETWjU1XTauqf9KLvR6AQwtU1R26JIqmR89T78JQdyOgvhHz9IyGTWVHTpCW+dtKPJGUVkWk/e4gninFHWnFPUYSUzAM+JQlM9T8uHCForC/KCs8os0yKVM6EME6auMkk+TC64XVODlOrZxkKbqzqsWX86G3SpCifqnCzgN92GE6wUV/++1R//3lfvvP834LKXwekHFHSjucjbsUQUFWisX9k/VD8ySFOZ4LOPbEkwmo47TNczotFZ2dOVzGv6vy/f+148u/5cPL/0vv//0rwm5D8tJj8rJSZWcLEZdBr32r4l5f3iY8k0OnNFpre2dYJuGyEpzHJp+E4LKqaq/VlCRVMnhd4/dKsZ8mlJwOQf20fPswhopxzQUh6LFoWhPyilXsmB3IJhrOWUfx2cTm3WSvukaw2BGZc03aSV/vpP04b2U31+P++v91EQ4JamUXEoV1Sr7vk2BZlYwzZNb9tPIUtGJ5b0nyVnxyekQKByNxXG53JqaGgKBcB7EZ2Zm6uvrW1patra27HY7CoWqiBIUCq2oqIBAIKmpqSwWSyAQiESigYEBiUQCg8FycnLEYvHc3BwQwGMK2a2tLYVCQSAQzGbz1NTU/fv3nz9/XlxcXF5ezuFwGAxGcXGxWq2enJwcGRkpLy8vKCggEAgajWZzc3N+fr64uFgkEtXX1xcVFZWVlaWkpNy9e9dqtQJJ/OTkhEql3r17t6CgAIFAUCiUuro6LBbL4XBsNtvW1pZcLkcgELGzCUdGRkgkEp/PB+/5xsZGXV2dQCAYHBy02+1UKpVAIGAwmNu3b+fm5qLRaAQCIRKJeDxeRUXF2tra/Px8Q0ODVCoFQ5fVap2entbr9Xl5eYWFhUlJSVevXjUajWCACYVCY2NjIpGITCbTaDQKhQKDwdhs9tDQUDgcbmtro1KpdDodhUKVlpZiMBiLxeJ0Ore2tqBQqEQimZ+fB5UcGhpCIpEsFotGo/H5/GAwODMzA/RF4BGg0eiysrLGxsZ3IP56+AZ331IQBxObziiIp5TgLj1Ku5sJzatk55M5t3NhXyVmp2BpmZVVT2DYDx8mxpcRkipI1zMgf74TfzWtsJDOr1J28Q19RLn6TkkEE++VYZPIrM/S8/4Un/JZet51SFlxrZTd1XcbirxdUvEIgf8oLjWXVkNsVKbjGIkVpFwyBy9uu5EB+epZ5o3M4g/uP/8iIetuAeJeYflDSMW9AsTV1AJknQzOa/jwUdLdYmQygZFayfokKetqfukzHPV6Efyj5+kfxKfeg6NRTR2C7iFBz9A9OOarzMInqMoUctXV/NL3Hjy7XYq8j8DdKi7/Ij3/HhyTRGJlMLhfZhZ8nQ1JJrFuQ5G3SsrvlKK+yiy6A0U9LCP85VnWo3JSIqH6Uhb0cjbsRiHyLgz/WUrhew+S/vgotZgvo2l66Jreklr5pUzoR8+yc1iiq/mIz1IKbxQh//Q47Xf3Ez96ln01v/wBovJRBeWbXPiDclIhr5HbPVrbP0XoMD1CUT9NK7wOQeVxG3K5knSG4AGS/IcnqZ9nFF+HoP6SnPfB8+xPUgtuFKMfY2j5NQ1ImeajxJx/u/X00/QimtYq6JvkWIapnb2PMbSrRRW5HPE1CDKZUiPom7xbRrycV/YtDPeHJ2m3YfgUKu/DZ1k3CpH3YYTPkgoewiu/LUL94X7ycwwjlylMreRcziz94FHaH+8kfhqX/cG95E8eZ8aXViYjaOXsJolx9F52eRa62ji5uX8aWeY/t3WUBSnLLoQiMXgKjS6TyRobGysrK9va2gD+hsPhhYWF2tpaPB4vlUrb29tLSkpKS0uLi4tTUlLKysqgUGh6enpVVRUvSj09PXK5HIfDJScnM5lMg8EwPj6+tLTkcDjAO7O3twcUFEDcTktLy83NRaFQdDpdKpXW1NSUlJQYjcbl5eWZmRkkEgmFQgkEAo1Ga2tra2pqSk1NpdFoVCo1MTERj8cXFhbev3/farWCKUefzycUCoGOBYfDcTgchUJBoVAEAsF26GTaAAAgAElEQVTIyMjOzk5bWxsGgwFSbTgcXl1dZTAYGAzGarUODAyYTCaJRIJCoTgcTltbW3Z2Nh6PZ7PZ8fHxcDicwWDQ6fTW1laBQFBcXLy4uDg9PV1fX19bW0smk9FodFVVlUgkYjAYjx49gkKheXl5N27c0Gq1oO3BYHB8fLy+vr6ysrKoqCg/Px9oY7hc7uDgIIlEIhAIIpEIiUTicDg2my0QCNRqdXt7e35+fltbW2zg6e/vh8FgEomEyWRWVFSYTCaxWEwkEkHpfD4fhUIB5oNFom8CZP/Kcd5SEPeHw8ehyBJD8+hiRin+gysPfv/1nc8eJt1IK7yTA72VVfzl84xLiVlXUvKupxemoShpSPLtzOLPHibdziwupvFqVGaRsZ/crPo2v/ST5+kfPk36+Hn6F6k51/JK7sNQD8swCFFTbffAcww5roLwHEO6nFFQwhVRWztzyNXpBHo+vQYtar5XWPagCJFBYFzJKLicln+7ABaPwCcgifEI/L0iBK6hDd/YfrcYcSk97/OU7EsZ+VdyIU9QhFQK63oR7OOkzE9Ssp6gCFi5orZ3SNg/ksWsuVYA/WtSxjd5xZ+kZL0fn/wYRXiGpzzFVD5C4i9lFXySknW1APqnp4lfpOcmk5h3YchHFbh4HPmjhLSr+dBHFYQv0ws+Tcn7NCX/87TCJyhKPJZ+o6ji89SC9+PS/5qQXVjTQFGZWfo+fKvuHgz3flz6Z6kF7z1I/PBZ5sPyyttQzOWc0k9T8q/kwR8jyYnEqm+hmDg8A1Inq+oaqLGO4TsMT3H03z9N+R8PE7/IKr6UV3o5H36lCHEbjisVt1K1PUV1Td8Uln2UlHO9GPkES4PWtzCM/VcKEX+IS72UW0rV9vD7xrk9I0xjfwKp+jYcVyCQ3kHg0xh8TvfwUxz9IYqcTOV+kl7wSVrBp2kF/3776fXC8qdo6tdZJalkTgKO+XFCzqdJuZ+nFnyZXvR5SsGnCTmfJeRez4ZdToNcy4AmlFPSsSwkXy42jTwrJRZRa43Tm7tnEUl87cjPqpXgKQwihUZjMJVKpUaj4XK5er1+ZWUFvNtLS0tcLjc1NRXMoaHRaCaTSSaTs7KyUCgUBoOBw+H19fVSqbS+vl6n08lkMjqdXlJSUltb29raymazTSZTbEHh8fExgCEsFsvj8ZhMJpFIxOPxNBqtpaVFKpUSCISBgYGtra3FxUWgxuHz+eCAbwQC8fTpUwaDweFw8vLyqqqqMBhMRkbG0NBQbAa1u7ubTqcTosTj8YCGWiaTTUxMbG9v63Q6Npsdm2x0u93Nzc1IJBKNRlMoFIlEotPpEAgEkIWTk5O5XK5Op0Oj0WQyubq6msPh6PV6uVyORCLn5uamp6ebm5ulUmldXR2dTi8sLMTj8UQiMS0trbKyEovFpqSkmEymg4MDsNd0dHS0traWSCQWFxdXVFSoVCosFltSUkKhUBAIRE1NTXd3N5PJFIvFGo0GfATgcDgMBmOz2cA69NPT08HBQSKR2NXVJZFIwPQpmK5Qq9VSqbSqqgqLxebl5QkEghhP/pUx+kfb/paCeOAsfBKMyFlDc5s4Zt2dxNy/3Hz8/o2H11Jy8ypZZWzhvTzotZTcp5ByfF0TSSQvIlbdSs5NLEaVMQScVq3E0NfcPczp0N/LK/06KetSUtaNrMIsEhPOE5fxxfl0DkbczNVZijm1ELYAWiPMIDGw0la6QlvKE5XVStCSZqKsI5/BLeWJyC2qHBr7Ri7k04S0JCy5hCssq23IY3DpCm2NsaeyVZlOYd6FIm4WlkJ4wgqpHMIXXckv/jqn4DEKR+xQs009/B4br7ufpjHkcQRXC4rvwMqfoPGJlbRMJjunugYiEOFalXfhyPfjEz9KSP3dgyff5BWV1ElyqmtKRVKUrO12afljJD6TwY0OA7CvMotSKWxiuw7VpHxUQbyUBXmAwMPq5RRVV7Wxj2se4FoG0c2qZFLVJ8m5V/PhcRhqEU9SIW3Pqaq9Xlj2l4Ss+wh8AU+SRq+B1DUSlAa+bbzGOkLSdOXxxF/nl36QlPXXtNyPUrK/yi15gK4sqmuk6rr5/WOsrv58viS+kplIqS6qaySojJzeoTyeOIFclc7iU3QWTs8Qt3eY3TNYLJJlVAlgDa3pVfwiYSPN0JPNFeXxxOUyRR5P/ABdeaWo7CGqspAnQTS0FdaIkY0dqCZFUY3kWgH8Sl5pHJqSzxYmE1kPSrEJGFoqgZVN4UKqRVC2GC/p4Ov6Icw6olRlWdrdPovoxB1n4fmt/Y5OPaOaQ6JQ9Xr9yMiIxWKZmpqKId3CwgKPx8vOzi4uLmaz2X19fcvLy0NDQzQajc1mi8VilUpls9mGhoYGBgZGR0cbGhqIRKJQKBwdHbVYLMnJyRqNJrY2MRwOO51OhUIhFApbW1vX1tba29uxWCzQothsNrAYw+VybW5u9vT0jI+PT0xMAP0vDAbLyMjo7OwcHBwUCoVcLhdUYHV1NbYF6eTkZGxsjMvlEolEHo83NDTU29s7PDy8urpqt9unpqZ6e3vPo9vOzo7JZAIjk06n297ebm1t5XK5HA5HJBKNjIzs7e0BCZpCodTU1IyNjc3MzBiNRrvdvr+/PzU1NTY2Njk5abVa6XR6e3u7xWKRyWTiKMlksqWlJbBw/uzsbHFxUS6Xw2Cwurq68fHxQCBgs9nq6uoIBAIYNY+OjqxW68zMzPb2tkqlotPpLBZramoKyNRgefvW1hZYPzMxMaFWqzEYTG1t7cDAgMPhsFqtPB6vpKREJpPF1C8/imL/4hHeRhAHVqhC4bDnLDy3Zm9WW+i1TdhqIYorqqyX8ZQGodZCEjcThU1USQunRV3boefKVBRBI6dJKewwNHRamo398i4bu1l1PxsSD0HkVzJwwkZaUzu7vZOnNjLkSo5SJzL1spU6tlrP7TRVqXRcrYmr62IqtSyVjqXSMZSdJHkHtU1VpdHTOtT4phaMREZpUzKUnUyVlq7QcHVdPGM3R9dFVWiI8na8rLVaa6wxdbO0xjKRpEzUQGjtqO3pF1ptwr6B+v4hQXdfld5EaleiG+UYWQuxVUHuUJEVakJrR5lIcikj+79dv/XevYfX8oqyGFVUpYaiUDM0+iq9idyhrmxTVrapyR2dyIaWCrGcotDzzDaO0YqXq5CSlsq2zpqufrahl2O0ck191bpuVqeF1K6F1TZWiFvwzUqq0lCt66arjJimjjKRDNusoKqMxPZOitrIMvZwuwc4FhvT2ENSG0pEjYV8MbS+CSpqKmtoQbcoKRoTy9jLsfRzuwcYegtJbahU6klqA0PfzbHYCB1aTIuKqNByuwe43QNsS39NzyBNayapIhHIagNNZ+Z224hKHUmlZxp6qNouokKHa1UT2ztZum6OqY+ltTA15iqtha3vwTS2Ixta8XIVXWUkt3XimhSVcjWltZPeoa9Wm1kKI0dtFnUNMNp0oq4B6+r+mj98EI7iuP90Y8++sLK6sLS0s7PjiJLL5Yqt95idnRUKhRwOx2g0rq6u7uzsOJ1Ou90+Ozu7sLAAQg4PDx0OB7iurq5OT08vLy9vbGz09fUhEIixsbHzO4ACgcD6+vrS0tLm5iZY7j0/Pz88PLy1tXVwcLCzswPWp/t8PqfTub293dfXB4FA4uLiUlJSqFTq1NSUw+FYWVlZjNLa2prH4wGbKgEeud3utbW1ubk5sFLQ4XA4owQWXx8dHYGtOmB1OVjwPj09vbS0tLe35/P5dnd3N6O0trbmdDqDwWAsw5WVFU+UwPJtn893cnLicDiOjo4ODw9XV1fB2vnt7W2Qw+7uboyN4XAYlDU7O7u0tARGtZOTk+3t7aWlJbADMxgM7u/vHx8f+/3+3d3dhYWFubk5u90ONkCBnauBQMDtdoOid3Z2Zmdn19fXHQ6Hx+Ox2+1ra2uzs7N7e3tgSQyYkDi/jv5fHLJfbf5bCuKgov6z8O6hZ3xurW9srnt8rntqwTy90DO31DO3ZByfsUzNm8ZmFD0D+oFx88h0z/hc/9Ri7/hc1/CUeXSma2SqzWRFM7l0UaO002QcndYNTehHJs0Tc/rhSf3wpGlspmti1jw5Z5ma755ZNIzPaEcm9KNTutGpzuFxlW1EPTiqHhhVDYxoRya6puZ6ZpdMk3P60SntyKRhbFo7PKEZGu8cnjBOzHRNzZmn5rsmX1w7h8d1I5OmiVnL9ELX5JxpctY8vWCanO2eWexfXNNH0+pGp/Rj0/rRKUXfkKBDU1xJSyiGpcAqyMKGRoMFFKEfndKPTlnnV7qmFrTDU7qRacPYnHF80TSxaJ5c7ppcMo4vmMYXzVPLlumVzsFpzcCUZmCqwzrWOTRtGJ3Xj8zpRmaBM4zOG8cXuyaXuiaXDOMLurH5ztHZztFZ9eisanhaOTytHpnpHJtTDE1FtrxOLOiiTjs+rxmbi2yFHZzUjM0ZppdNMyuGqSX16IxyeFo1MqMYmlIOT2tGZ/WTi5rRWeXwdOf4nHZ8PpJ8ckE/uaifXNRNLKhHZzWjsyDcNLtqmV83Ti2bppa7ppZNk0va4RndyKxlegW0yDA6bxhbMJ5zprFFy+SycXTeMDJnGlswjsz1za7P7RzvesLHUUM6/pc20V7t3yBkY2PDYrEMDg7GVln4/X6Asz+UBISfnJzMz88rlcrzYjiAlTdJDjJxuVzj4+NVVVUVFRVkMtliscRWvFwoPTZ3ej48NnhcKBFswgSy7fcmPJ/Jq36wUxSExxbevBotFvJqEbGKxeLEcrsQ4vP5Yqvav3f/FIj/vdYOwNLG8zv4L2T+7u9bDeJn0YPQvMHwocu/e+Ldcnk33C/cpsu76wtsu72Lu/YNx8nusWfvxHfe7R57to9c6/aj1b3DdfvR3onP7gkceIN2T8Du9u+7fPsnvr1j796xdzfqgP/V667Tvb7n2Dxw7jrdu073ntOz5/R85zly7zrcuw7XnsO173DvO9x2h+fgyHNw5I26mAf8fd11x368tLq9az9xnPid7uDRif/w2AfysTu8UeezO/wHR4GDo+CxK+w8ObMf+vcP/PsHvhfu0G//W3fgiES+4OxHQftRcP8ouOf8n+b2nZEKgJocOIIX3ctbIMKLaM7ggTN04Aw5Tk6dnrDbF/YFw/5QOHgaMVoZO3/jDV9psKX7DSO/Gu1VRHs1zj8gBLTiJ1fmTbD7F2zFeeNfoOjz1/P2HWPhsdJ/chtjOfwTe95qEI+KPJH30x8Ke6KmBI+jn88vrmdnJ2dnEZN+Z5G7nlDEeU//1oXCvlDYf/rCxmHMzGHEJN7ZueMoI+cJfJ+LHj4QDIZDob+xUR6VDsIB/1nAGzqN2cmN2dl76TnzRi2Xg7+vvwbDYd+Z78gbsQYCTDqFXlrIBaYFfeFTd9QOIbAN6I2aYQxF7BOeeV64iNHFCw5YerxwfWmr8MwfPgu8kTv1hwPeX8wFPeGgJxzyhEPuSKO+14Xc0QggWjR+EFTAE6lG0Bc+9YfPYo8zZgXxjd/Un4lfbw+m/JyG/Jy0b8zp7yICezJAJI/BdMwDFEQX7n6X+J3vhznwtoN4BMejLhhFsAtw5Do7O3B7DlzuE38AgNt5qIyZOQ2ehd2+4KHz5NgNjNf+MD9+7I4/cOrxBvyB6EchMHn+miTAuO1rIly4FYo0NegJOvYckWEn1njAAmAkN1rosd3tdkTbAs6weLXxgBExQ64xTwzvgOdCBX7oL2hpLJOf6Tn/kGJG4kETYtcLcaJ/z0Lh01D4NBi5noVenAXxon/8UM1/nfC3CsR/chP/wa2IfTfEgPuC5x2C/7RH+RsAcQBlr4L4aTjs8Hr7R0fHZmY39/YvAAsAgcBpOBA6O3F71za2RsYm5pdWYtEuoNmP/g2dhd0e//LK+tjE1Oz84vFJxJRPhGIpX/z/WT+n/tPVxVWj1ug6ithyOvex8GIoC/nCAXdoZmJ+cXYlYsEvhnoxsfQ8/MVa+6onVu038fysNv3CiSP1jX02RbnyCxfwLrtfjQOvHzZef/dXq9RvOONQKOT1en8zIH5BuwBs1+0fO2uEwg5N58zi4vc+CoBdJ27v0spqj7VvYmr6e6O9PjB2TpA/GBoYGpa3tmn1hu3dvRdo8vK8x8gRceddLNPzga/xR+O7j93WHiuVTNvb2Y9l8MJzFhFC/Z6g0+GydvcP2UaCvtMIyv+L0YWvgthxH/9ibHjX3HcciFizCQQCbzuIO50nM9NzNttgj7W/f3h4aWOjf2RUodUptNrlzc351ZVqXk2rQtHd1zc6MaHR6dRabd/goNvnO3Q6J6anWzs6FCqVyWwZGRszmLqGRkadJycms6WlrU3V2bmwtLS5vbO4vBI5876zs1OnGxga3tnbX13f0Gh1Tc1yjVY7OTPjPHHt7O0Nj47KW9sqyWQsgdCuUE5MTY9NTMjlLWq1Zmxs/PDQsba23t3dI29uMXdZ1tc2Qi+PY/a4vStLK329fTqtzqA3rK2sLc4v9lv7e7t7tZ06o964srzq87zQ8xzsH2jUnWXwssX5xfm5BUW7QtGhHB4c3t3ZDfiDoUDI7w2cOF1qpUat6tzZ2h0eHOkymvVaQ29Pn61vwNrTp9Xo5mYXDvYPV1fWTYaujnalydC1tbnjOnYf7B/2W21aja5To7P29m9t7jgOnUNDI1qt3mQyz88vbm3tLiws9fRYTSaLxdIzNjbh9YCT6d6iF+bVcfAtqty7qrzjwD+QA8Cg2NsO4ktLq/X1EhyOiMUTWWxOS3sHrpKUmJIan5gklEj05i6+SKjSdio1Gl5tbWZOzrPEBCgcNjM/3z84UM3lJqWk5OTlUeg0k7lLqVYZu7pGxsdKSkufxsdn5eQ0NDZ26nQyubyopDgjKyuvoACNw/YN2Exmc05+3rd37iQkJ1Wx2UsrK+aebgKpMjU9/dGTJ1m5OW0dHapODaem5vnzhNzcvJoa3uDgYFtbW3Q/XhwWg+3r6/P5XsDf+vqGVCotKytLTU1NT09vbW2VSCRoFBqHxRXkF0CKIK2trbs7u+DRb21tR6wmweCjI6NyuTzhecLTJ08xGIxebzg+Pg74AwF/wOvxNjU2iUT1E+MTFDKlqLCoqAgCK4VhMFgMGpOWmiYWS4YGh0ymLmgJ9PGjx2mpaSqVenxsvKe7B4PG5GTnZGdlw2BwbafWZrNVVCCTkpKysrI5HI5arRGLJVAoFA6Hw2BwKpW2sbHp90WOOPgH9sx3Rb3jwDsOvBEHfhuS+OzsfFUVu6ysXCiqN3VZcvMLUtMzMjKznycmFRYXI7EYXCWhtaPd2t9nGxqQyhqLiiF3H9zjCfiVZBICWaHSqAeGB4dGR/QmY42ARyRV4okEBospaWxo62gvR1agcRgShZxXkC9ukLS0taakpXbqtKMT403yZiK5MjM763ligqpTw6vlV6CRA0ODIkk9Fo+rFdZhcFgKlWI0GeUt8qrqKjgcnpmZicagZc2ygcGBffsLZYjb4zabzYmJiekZ6cnJyXFxcSXQEmCrurWtVSaTVVdXo9Co0dHRqHb9bHt7W9MZMf08Pj4Otg5WVJSnpachEIid3R2f3weO3WpoaBDUCoaGh8rLy6lUqlarLSgsIJFJsmZZJamSx+Pp9fqt7S2VSoXBYuLi4zAYDJ1Oo9KoNbya9vZ2hUIBLYUyonTz1s3MrMys7KwbN28AqxfQUqjRaBQIBPAy+MTkxKHj0B94u+TxmDD+Rj39XaR3HPgn5cBvBcTnuNwaKpWm1enHJyYTEhOTU1Jh8LKS0lI0FoMl4hGocpGkvrG5icuvYbGr8gvz796/i8FhYAg4loBbXltx+zx79j2tQUdnMUpg0EJIoVKjmpmfmZyehJeXlcCgRHIliULqH7QNDg+mZ2VIpJLWjjYcEY8n4rNys+/ev1vNZdMYNEYV0+Vx9Vh7WNWsak41BFrMrGIeOA7m5ufEDeKMzHQ0Bk2hklnVrHpJ/dT0VOg0sr7k+MTZrmj/4svPU1KT8wrycvJyCJWECmR5eUX50MjQwNBAU3MTpATSP9B/enYaCAa2tjc7tZ1YHLbL3KVQdhCIBCgM+jzhWX5B/trGmsfr8QV8Lo9LKKqrZlf1WHsqkOViSf3y6jIKg6qtE/T29TZIG3gCnrBeqNV18vi8svKyxOTEIkhhcQkEBofpDLr5hbnxyfGo1I6CwWG3bt8qhBQiyhEZWRk4PJZEJtHo1JXVFYWyowxRZhvotx/aT8/eItV7DMHffR38k0LTu2a9KQfeahCP6npCZ2dnMzOzPB5PIBDYbLbl5eWsrKzc3Fw8gUClUgV1Ai6fi0Ai2DVsIomQlJKIQCJy8nMePX1UjkSUlpUSSIS5xblD5+Ha5lq7sp1CI5fASiBQiFbfObswOzY5hkRXwMvhNCZNJBEtrizOLc4VFhey2CwylRSfEF+BqsjJz/n27rdEMpFEJVVxqg4cdqPZSGfSWWxWMRTCqGLs7u9Mz06LG8R5BbnihvpqTlVRSVF6ZlpbR+vRccTo3Yn7WKHq+OKrL3LycpBoJJaAFUvFVDoViUYuLC/ML80rNUpISVH/YH8oHPL6PRtb6+pOVTmqXNrUQKVTklOTCyAFCckJBZCC5bVlt9flC/pO3Cc8QQ2VTjGY9Ggsqk3RdnRyRGVQ5a3yqdkphVrB5XEIlXg0FgUvhxdCCjKyMgogBQWQgtKyUqPZODM3bRuy4QhYFBYFR8CfxD8pKy9jsCKNYnOrqzlVtUKB49hh7DKWI8stvZb9g1emWN+0j/3NRO958P05fjBZDXJ444q8i/iOA/+EHHirQRwsnQkGg2NjYxQKhcVi9fX17e7ukslkBAKBxWJZVSyZXCaVSXEELLumugJdfv/RPSqdAoVD7z64S6jEwxCwnLzsSkolr5YnFAu5fC6JWhlRrUdvYfBoOouOQCJwRFw1p0ogFMwvzS8szReXFpOoJAwenZiSyKxmFJcWf3PtG4FQQCARsnKzhGJhORKRW5DLr+OXo8pLy6A0Jg2OgEHhUCwBIxAKODwOAon45to3NCZteXUpYgL/NDA4MpBXmIcjYBksOofHlrXISFQSFFYyPjU+PTet1qrh5fDBkYFQOOTxe9Y2VtsUrQWQAjKNjMIi8wpy8ZW4rNysAkjB6saqx+/2BX3H7mMOj1NJIXbqNEhMRWtHy8HRAZ6Ik7XIZuZnmpobiWQiBArJzstG49AoLCorNwteDsdX4il0MhqHJpAIRBIhOzeLUUWv4XOfJcYTSIS6+rpaoaBWJGCxWYwqxqHzQG/Sl5aVmiym7b3tUGRr1AXg/ZFXAsR+dWXjLxjyThL/kWfw7vY/OwfeahAHZ8UGg8GVlRWlUqlSqebm5lwuV29vr1QqZbFYZApZqVL0WLsVaoWl19KhbKfQKVWcKjKNTCQT2pXtGp26Sd5EJBOruVXSpgZVp0rVqTKajf2D/dXcaiKZyOGxDV0Gc0+X3qQ3dBm2dre297brJSKNTtOubKMxaVw+h86ik6ikgeEBjVbNYjM5NWxqtBSdUafRqSWNEiKJgK/E19XXmbu7WtpbqrnVaBwag0MbugyOqCQeOA1sbG/oTbpaoYDKoFDpFLVW3drRIpaKF5bn1zbXRidGm+RNS6svlkgeu5zDY8N19XV6o66hSYIlYJjVDAqdUieq3TvY9QV9wbOAP+TT6jvbOlrHp8bbFG1Do4NOl7NJ3mTpNa9trPb09XSo2qUyaWNzI7OKQSQTKHSKUCxUqhU6o7aSUllWUVZcWpycliRrkQ2PDnF4HCqDWsWpapI3ag2dnTqNqlN17D6emp2St8nnFuc8PvdPexcuoP4v/ven1epHU13YgfLu78/kwI8y/F2En8yBtx3EwRnhh4eHc1ECZ3IfHh5OTU0ZjcbW1tax8bGN7Y2V9ZVd++7a5urQyGCnvlNr0Fpt1oXlhV37ztrmmqpTpTNq+wf75hZmV9aX9w72XJ6TvoE+jU5j7uk6OLLbD/dXN1ZWN1ZdnpMTz8n41Pja5ury2rJtyGY0Gy095rHJUbvDvrqxahvs1+g0BpPeNmRbWl3a2t2amZ/uUHVoDdqJ6YmDo4PxqfFOvUbe1my1Wbd3t0KRrTjh4FnQ43c7jh1WW29rR2tzq2x8amxmfmZ6dmr/cN/pctod9rmF2aOTFwcOhM6Cu/bd8anxje2NsckxhVqh1qpNZuPYxKjL6wqeBUPhkD/kn1+an1uYPXQeLK8t79p3PX7P1OzUyvrywdHB6sYqUNQsrS5pDdrWjlaTxTQ4Mjg5Mzk0OoSvxOUV5uUW5BSXFvf29x67nBPTEyqNskPVMTA8sLiyuLy2vLC84PV77A774sqC49gRlcF/Yjf7xYE7luFPrNAbJPuZmPUu+asceAOuv4vyUzjw9oI42J4bDAaBUuXo6Mjj8QCzc68xgfZ6HoRebGMPB8/APqFI9FA4svA6dussspE7grwXKBDyB04DfxeWRXcUAhsoFzJ73d+z8GngNBA4DYTCIV/QG4wYBwn7o6XHdvUEz4JHJw5vwBPbq3gWPgMxI2PGacDjc4PxIxDyR1OdnYZPvQHv6saqRqfJyEp/8PhBVm5mk7xxZX35e2sTPAuCQkNnQTBs/F1tP59nDHN/cc/5Un5Z/6sY9C7kZ3Lgl31A73KLceDtBfHIYruzM2AqE9jbBIAOTCvEGhD1RPSipxEbWa9XkJ4FzyLIGHFnQRD/NHwKoApgVtQc3mnUIh7ICmztjoREowF7eS8WacQgNVaZGIyGw2Ff0Bs49Z+GQy/3csayjeV5GgqHXmLld6v3TiNGQV6E+yOjS2RE8YdeRAicBkCe/pDf4/f4gt5oQ04Dp36P330WsSYS8od8wegw4A/5zyf0Bb1O19H61rrJYlKoFYYuw8b2hsvrAkXEWhEKB0HyaOaR0n1B34U4scg/6rmwtfKnacN/CP1/tPSfHOHNAQt01DePD2K+mvo3T3kAACAASURBVOrVkL83z3+R+OCZvtu1EOvbbzWIX+jWAND/xj5O+CwQCgQjJgQjk4fnMTTWwvOe0/BpMCpXvvREBN7AqT8qaQZ9QW/oLAhwMIq8ocBpwB/y+4I+f9D3AuujpURNH56ByOfzB5Gjd8P+oA8A7othIzp4RK2lRhApitRBIHF7A15vwBMbEsDochaB8mDwLNKo4FkwFiEYldCBjO8P+nwBLwiJ7OL0e6LoHwDS98vh4cU3R2S7fqQ5Pm/Ae+w+PnQegpUzESb/zcdHZBiIFhoAIwTgbRTEv2eMBPB6ngnn/eDuTwPu86neWhCPNfbvBdALfRtA0t+bya8R/2/er1+jgF8izxj3Yvz/V/a87SAeezZAKo8Zvw+FQv4I+QLBQCAU8Ad9wdPgSxeIASJIHjr7Tj0SBawXonTMgNIFET4mO0c0CZFsI+NE8DQYOou674TriJQds2IdGRhOg16/N1bnKD5GBHAgO79aSvSD4IWoHoqqTaKfFN/V9jR8GkVnr9vr8vg8gRBA5IgsD8D3ZRNOQZ3Pwi88MTXLBVZEefWd1B+raugMrDyJBUS+bPxBf4x1p+EQGCy/ixH1fQ+u/22MXwTHv7eU7w3828J/+r83hJrvLeBN0gIYOo+Y35vVrx14oapATroQ+Lb9BTz5vi/yX5tbb2n+vzEQD0bp5/DypZ4a5PGdIbzzCHt6dnreRZDx7DR0Gjo9C53zhF6GvAgHSYKhiCz/soYRifv0LKLnAe5leOQ3MpxECwLxY1tpQqfnQPxlTaJlvdAXXcjqbzP/rkUvWvhdZcKnZyGf3+f2fM86E1DJC9XzeD2B4AtBPhAM+Py+0Gms1S/adT7JD/l/SI7+5cNf4s0P1eTNw1/m9LrfH8rtdWle3otMXQSDb8l5Yy8r9Rv4jc2HgTPe3ilVoqca/BYMYMXElmAweP44qB96hK/pjBGr86ehmGbmnCcSCBICeR9cYxHOB4ZCoQvDSSQkFDxn0j6SVSxtzBOr8N/cPXsRORJ4dhoKRfY3xZoMahUB2ZcEcnv577tSoiGxok4jmUXrAK4vv138gcALXD6PQbGKnQ8ES4NACMjk/N039P+QJH4ewc9rTs77vxsMo18W55NczDY6EgKexJ5jjEVvWNVYS2MJX+95NdtY/FfrAG7FwsHz/V62v5rtPzLkLazS+ebHXo1AIADelBjPz0f7l/L/xiTxQCAAzloFD8nr9YIBGUAXwFkg4ICYUZXLr3WJHeEKpCqfzxd4+wg03ufzeb1et9t9fgj80Y4eGy3eMOZ3A8h3vsjHS+g0cnzaBRc6i+wdAi4Q1StdiPDixLWoNfVYzNBZOHjOgfBowrPQaWT8i42vwB+rSOxVf70nFv8NPec5E8sZpI39Pe+J3Tqf8O3xv+XVA1IneMSvgvhbPvz8ek/5twTiMYkyMtUWCHg8HpfL5X6FTl7S8a9DL7OP/Ho8Hl+U3G63y+U6f+ut8h8dHdntdqfTeXJy4nK5/H5/7LP09X0LnHkYmXx4OQyAU9I9Ho83SqD54Pp9o2XA5w/4/EHv9zlfIOgLBL2B778bTRLw+Pwen9/t9Z14vCduz7HLc+xyn3OeE/cL53Z7QF8AdbtQpTccXr+vCT8S5vV6weLX2OqpGBSeh2/gj92KMdbv94Mc3G53jLf/SE+s9FgHdv069Eu9EUAWiXH7PJNf35n/We/+xkA8GAx6PB6HwzE6OqrT6Xp6eiwWS1eUTC/JECV9lHS/NIFs9Xq9wWAwmUydnZ2qKBkMBqPRGLv7tnlA9bRarVqtNhqNdrv9wqHpP9S/9/f3R0dHQWO7u7u7urrMr5AlSmazGXjOX80Wi9nS3WXp+WnOZO42dpkNJrPeaNLqjZ06g0ar12h16s6I02h10b/6Tp1eq9ProkwHLTWZTBeqer5Wr/G/0rgfD+jq6jIajQaDYWhoaH19HUiIMbXJeYiJabeAZ25urre312Kx9Eap+38GWSwWrVar0Wi0Wi14yuA1MkYJvEq/1PXnvxSghkajcWBg4OTkBPTh8xz+oW78zx3+mwFx8BgCgcDR0dHy8nJTUxOJRGpubm5qahKLxSKRCFwFAkFVVRWTyWSxWEwmkxIlHo/H5/NrampYLBaXyxUIBHVRYrPZVCqVxWJVR4nNZvP5fHDrR69CobChoYFCoaDRaAKBIBAIQAWEQmFdXV1NTQ2BQCCRSLQoMRiM6upqQZRqa2tB5nw+n8PhMJlMDodTG6UfLfQnRxCLxTKZjMvlgiptbGy8oSQ+MzMjkUhYLJZQKJTJZA0NDZIoRazgCgQcDqeqqoodperq6qqqKj6fLxQKeTwem83mcrlisVgsaagTiTk1fAarms2tEdSJqjncGn6tsF5SL5GKxJKop0EkbhCJJSJxg7ihMeqkEmljfTRtnaieXyusYnOweCKDVcXl8Wv4tTxBLU9QV8MXMFjVhEoSBoujM5g0Go1KpQJWi0QiiUQiFovr6+uFQmFNlMBjitQq2mfq6+uBP3at//tJIpGIRCI6nS6RSPr7+30+3wVd7XmUOe/X6XQ1NTVisVgul7e0tDS9JIlEArorMPrG5XL5fL5UKm1oaBCJRHw+v76+XiqVguh1dXVcLhfEBL1IIpE0Nja+zOzFr0wma25ulslksXAQ0tTURCaTiURiVVWVSCRqiBLgGIfDIRAIFAqFwWCAF4rL5QqFQtFLqq+vB12dwWDweDxhlF7eFL3KyNitn+wBDa+urq6rq9vb2wsGwRG0/9wQ/eOt+42B+OnpqdvtXlhYkMvlYrEYbON0Op3b29tHR0f7+/vz8/M6nU6hUKjVaoVCIRAIamtrFxYW1tbWpqendTrdxMTE5uamw+E4ODgYHByUSCQGgyFygE1PT39//8rKiuMlHR4eHhwc2O32gygdviQQeHh46HK5DAaDVCrV6/Wbm5vgG9TpdB4eHs7MzBCJRBaLBV6ntra27u7urSjt7OzY7fb9/f3V1dWRkRGVSjU6Orq3t7e/v2//1ejo6Mjtdi8uLqpUKj6ff3Bw8ONdIxpjeHi4trbWZrNtb2+73W6Hw7EfpcPDw7GxMZ1O19zcrFKpNBqNSqVqaWkZGRlZX18fGBjQaDQWi+XQ4Thxudc3t7t7rdImmcHUNb+43KkzDI2M7uztHx279uyHu/t2h/PEfujYP3AcHjmjyhP/scvjC4RO3N4Dh/PAcbRnPxgeHafQGL19tt19u/PE7YpoV7z2w6OBoWGeoBaDw2t1utbW1qampt7e3pWVFafT6fV6nU7nwcHB5uam1Wrt7e2dnJw8ODgAgdvb23a73eFwvHywP/HX5XLZ7Xaj0dje3t7T0xMIRM7PPg/WP+RXq9Wtra07OztA7XdwcOBwOOx2+9LSklqtlsvlbW1tRqOxqalJpVJtbGysrq4ODw9rNJrx8XHQh+12e3d3t1QqVSqVBoMBfJIuLS2BZ3S+37pcLo/HAzon6GUnJyder9flcrW0tDQ3N4+MjBweHh4fHx8cHOzs7GxsbPT29paXl1dXVzc2Nra1talUqsHBQdB7HQ7H0dGR0+nc2toaGRmRSqUTExN7e3u7u7uHh4dHL8npdB4fHwMtyi+l2nS5XCaTSSwWr62tnZ+UesP+/E8Z7TcM4lKpFExyBgIBt9sdCAS2t7e7u7u1Wu3Q0NDm5ubS0pJGo5HL5QcHB4eHh6urq6AXggE8FAqNj4+LxWKDwTA6Orq0tLS2tuZ0OoG2HXQ+n88H1sO43W4wiXp2dhbbPhoOh61Wa1tbm9VqdTqdoH+cnp76/f7V1VUikSgSiXp6emw2W2NjY0dHh91ud7lcQLns9/v39vZmZmYmJibW19dj34axRQs/9Ob/tHBQt62tLYPBUFtbe3R09Ia9eXh4WCAQjI+PgwaCJXGhUOj4+Fiv1ysUisHBwdXV1YWFhf7+/o6OjunpaYfDMTs7C1gaaU44fHR8MjM3L5O3mMzd27t7YxNTaxtbHl8gEDr1+Pwuj88XCJ6GI5OckWX/sbWW0RB/MOQLBF0e79TMHIXGGBoZO3F7QeTomvrw7PyCoE6ExRPmFxZ6enqAiLq6ugpUFsCG2uHh4cTExOzs7N7eHlCOg2leMBd9Qef9htrzWLRwOOz1eq1Wq1Kp7OnpeUMx/OzsTKVStbe3Hx8fg8l5oBzY3d3t7++Xy+W9vb1LS0tbW1tACwEQeXFxsa+vb2try+12B4NBt9s9NDTU1tam0+mGhobm5uZWV1ePj4+9Xu/JyQnotEC9AzTvYIABXTSmT1MoFB0dHbOzs2CmBJw34nK5pqamKisrpVKp2WweHR0VCoVqtXp/fx9MAICVS3a7fWZmxmw2b25ugiHB6/WC2YhQ6LvlXueXWoFZgZ92BVOXvb29EolkdXXV43l5TPkb9uZ/0mi/eRAHDQDv4fT0tFAoVKlUi9ETk0Oh0MzMTHd39/7+/ubm5uzs7PDwMHgBAoHAycmJzWbj8/kajWZgYGBubm5jYwPI3RsbG7OzswsLC3a7/fDwcH9/f3t7e3d39+TkBHQDgKThcNhmsykUCpvN5nJFj6UPRw4tjYF4Q0PD8PDw9PQ0+KhfWVnZ2dnZ29vb2dk5OTlZWlqyWq3z8/MrKyvr6+uHh4c+n+9XnWHf3t4GIB4bcn60VwMQHxsbA0li49/Gxgafz29oaNjc3ATMXFpa6u7unpqa2tzcBNbKNjY2gsGQ/eBwZW1jcnqmoVGmMxhX1zeHR8cWl1fshxH5en1ze2VtfX1zK7J/1Hmyvbu3tbNrPzzy+PxgyUogdOYLhM6B+OiJ2xM6C/uDp2AB4uLyiqBOhMHhNzY3bTabRCKpqamZnJx0OBy7u7sHBwfg6Q8NDU1PT8dC9vf3T05Ozi8oAmtGwRWsbHnDa8Qogt/f39+vVqv7+vrO95DXj7jnQTz2IGZmZhobG6VS6czMTDAYPDs7m5qaGhwc3N7eXltbm5mZGRkZAWK40+nc2dnp7e1tbW3V6/U2m21mZmZjY+Pw8NBut6+trS0vL29sbBwcHBwdHe3s7Kytre3s7ADpFQgioFClUhkDcXBaIxBc5ufn6XR6S0uLzWZbWFiorq6WSqUrKyubUdre3na5XEtLSwNRWllZ2YvS/v7+0dGRz+d7VV/3em684d1wONzb2ysWi9+BeKzP/OZBPNbtfD5fX18fEolUq9Xr6+ughaFQaG9vb2pqymazmc1mk8k0MjIyPj4+ODg4PT2t0WiYTKZGo2lvb5fL5QMDA2NjY0NDQyaTSSQSSaXSwcFBa5T6+/utVuvi4uKFL7jBwUGlUjkwMOB2v9hBcx7E+Xy+wWDo6+traWmRyWRWq9VsNhuNRrPZvLS01NXVxePxwHwg+BYeHBxcXl4+jya/lB+8UTEQPz4+jvWA13uGh4f5fH4MxEE+R0dHfX19aDRaIBAAKASv/f7+/tjYmMViGRsbGxwcHBkZWVxcMpq6OpRqlaZTUCdSqNRDI2MisUSh0tiGhi091tZ2RUOjrLVdYewym7t79UaTwdTVZxuYW1g8cXvBokN/8NTt9U3PzlPpzOHRMZcnIolfAPEKJGpkZFSv10ulUoVCYTb//+y9Z3McSXI+/v9c+gh6p1f6CnpxcZLiIqRVxOku7sRdLneXS5AgQAKYwQwGGO+99971eO+9x3hv8I9B7tavbwYEh9zdk5bLCsSgpqe7ujor++nsqswnzXa7HdY2XS4XhmEymUyv1/v9fo/H43Q6A4FAvV4fjUZ4Ce94JR5oLW451FYrj8ejVqs9Hg/I872QdHd3p1QqkSWOjjIajUdHRzKZDDQBHLHa7XYsFjMajXq93rVNFe4Lh8ORSMTpdPL5/JubG41GIxKJhEKhTqfDMAw6w2azYYbH6XRarVZYeM9ms2DAIg+lHRAHC321WiWTyRcvXtDpdK1W63a7QbB+v1+n00mlUo1GU61WzWYzl8uFZWSr1erxeDAMKxaLKNbhce36iF83m43NZmMwGPl8fjwe/6JGz0d073/lkF89iIPUIJLF7XY/e/ZMoVAUCgXYPp/PY7EYnU7X6XTBYDASicBE+eXlZSAQcDgcLBbLZDJpNBqJRGIymWBpHt7KWSyWwWDgcDgmkymfz8MO5XIZP04IxNGb3WazQZY4lUqFCZxSqZRMJoPBoMlkEgqFNBrN7/ebTCaYzJFKpVQq9fz8XKFQJBIJ9J7+M1YQiOt0uqurqw+yxMlkciAQgEOgnfF4HIvF3r59y2azh8MhvFmPx+NEIiEWizkcTq1W83g8bDb7+xcvOFyexWoPhiI8gVBvNMUSqRsancsX6I0mjVYvkkiFYqlOb2RxeDKFMp5MO10ehUojlSvat11wFV+sAMSTCMQh0mfrnr/aRONJyg3t+xdH6Uw2k8mANRoKhWBiTSLdDms4HBaLxXK5fHv5FAr56kqhUMCrzxbEcSb3gcCN3w1w1u12q1Qql8sF6vFxIA4TdEdHRyKRqFgsQlPj8Tgej7NYLKVS6Xa7Y7GYQCCgUCgsFiscDttsNoVCYbFYtFqtSqXSarVKpVKr1VosFg6HA7DO5XKdTmc0GuVyuQ6Ho1qtwm0P7SsUCplMlkwmYa4Mnmrz+TyRSBwfH3O5XFgRyWaz6XQ6mUxarVYWi3V9fR0KhfR6PZxCJBLRaDQikahSqVKpFD6YA3+//PT6ZxDfl+EnAuLgdRuPx2k0mlqtTiQSYDJ3Oh2n0/n69WuFQhGJRBKJBJPJfHFfXC6X3W7ncrkGg0GtVkulUp1Op1arlUol2DUSicRgMJDJZK1W22g0WCyWQqHI5XL4h/8+iMMtncvlXrx4wWQy4/E4CL3dbttsNo1GA84e4J7IYrFUKpVIJLq5uXn79q1AIAgGg3jb8OeqA/jW63WNRkMgEA6fE8cwDB54eBBfLpfVahUwolAo9Hq94XDYarV8Ph+Dwbi5uYGLvbi4+OKLL6g0usPpSqUzXD5fq9PHEgnyFYXJ5qg1WpFYIhCK5Aql2+Ol0uh8gTBfKLq9XpFYwmCymq32aht1erdcrSfTWTyRPDl94/MHRuMJiuRcrtbhSJR8Rfn+xYtSudzr93v9/mg89vl9SpVKoVTS6HSRWORwOqk0GofLVSiVJDL57Pycx+e3O53pdjb+HsS3dAL3gbzvRd+9HbYsj/dvgQqFwuFwwHDv7bW74UFL/O7uLhqNwltgMplcLpez2axerzscjouLC7lc7vV6I5EImUx+8eIFgUCIRqMej0er1YKRrtVq1Wq1TCZTKBQ6nU4kEqnVapPJRKFQHA5HOp2mUql6vT6Xy83n/y9wV6FQyOXyVCoFc2WgKovFAhbneTxeOByG53Sj0cAwzGAw0Gg0AoFgNBrlcjmfzwcdptFob9++FQqFkUjkg2LK9lHpkS2bzcZqtdLp9FwuNxqN8DfjI0d92j99IiAOoVy9Xi+ZTBqNRrfbXSwWm81mJpOxWCwUCkWlUnnvC5fLJRKJJBLJbDarVCoKhSKTySQSiUgkMhgMWq1WIpFcX19LpVKLxeJyuW5ubtRqdalUgtfGRqOBV4gHQXw+n6fT6RcvXnC53FzuB7buSqXCZDIFAgGTySQSiRKJhM/n02g0qVSqUqng4SGTyVwuF97K+7nqoOuNRkOlUp2enna7P2SfwF/Lg3WPx3NxceH3+wHE0T0zGo0sFgtMXORyuUqlkslkAoGAWCzm8XiFQgFM/vOLCy6XazKZg8EghXItFIkwDCMQiGw2R6PV0ukMJnP7aAxHIlwejy8QBEMhm90ul8slEsltt/tDbP16Pd2CeOLk9NTvD4zvQXy1+oHFLBwOEwjEr589K5bLk+l0NJk0222lWkVnMuRKxQWBQCSReAL+q+Pj65sbvcFgspjFUolMIS9VKsPxeLnesiXA3/9biduF3Me+393dTSYTm80mk8lsNtuBrin7IA4rsc1m0+Px0Gg0u91erVYbjQbkP2Gz2SqVymq12mw2cCvkcDgYhpnNZolEIpVKAbuVSqXRaFQqlQwGAxZ7AoEAg8EwmUzBYJBOp5vN5kKhAI4AMOJKpVKhUKTTabTUCdtjsdiXX37J5XKRIZLNZoVCoUgkAmdHiUTCZrOZTKZcLodXWJggCgQCO009qFoft3G9XlutVhqNBiAOj5yPa+qTOeqTAvH5fN7r9eLxOMx7+v3+VCoFKzx+vx9CKmKxGMxs+Hw+k8kkk8nAElcoFPZ7+KDT6UQi8erqSiwW+3w+DMP8fn84HA4EAsVicTab4cf+QRCfTCapVIpCoeDvjX6/73a7rVarTqdTKBRGo9FgMECEBUyIu1yuYDBYKpUeA4yP/Q363Gg0FArFq1evbm9v8VfxSN3tdp+fn/t8PgTiCMfr9TpYgn6/PxKJZDKZdrudyWRAXF6vF/wlwLcPwzChUKjVagOBgFKpVKlUSqUSfPbZbLZIJLJYLHCI1+uNRqPlchlZc5vNZjabJRKJ0y2I+2H5AWKvp9NpNBrdzlDRadV6bTKfzZeL8WzqDwb0JqPd6ZCrlHKlUqvXcQV8lVbj8WFuzOvGvNF4bDAezZaLLYhv1tu/n2CJj0Yjq9UqkUgsFsuB3in7IA6jMJ/PIcDKbre7XK5EIlEul2u1WqFQCAaDMOkMOpxMJmOxmMPh0Gg0arVaq9VCLIxSqeRwOKDDUqnU7XbDqoDf7wfjBk39wRkhWg2BONgNMGNGIBDkcnkikYB3gnK5DO+vMPHocrn0er1KpTKbzTBTHwwGQ6FQtVp9RKN+4k+fQXxfgJ8OiAO+rVarbrdbKpVSqVQulwOPqOVy2Ww2c/dlMBjMZrPBYFCr1XK5HHihpFKpZDKZTqfNZrNIJJLJZEKhUKVS+f3+RqPRarXK5XKv15tOpwjCQJQej2dnYRN4VGBuAXzawOdkPp83Go1KpVIqlYq4ks1mwYug1WqBa/PHAvVjx0FvAcRfvnx5uJ+42+0+Ozvz+Xz7MzCr1Qo8hXO5XKFQgMx54/EYvEHq9TpMOtfr9cJ9icfjmUymVqvl8/lwOAxrYlKpVKFQ8Pn8RCLRaDTy+Xy5XO52uyiOA65qH8SBG2c2mzUajUQiEQqHb3vd2WK+2nKj39VajUwhVyiXMoV8KpuJp1ORRDydz5Vr1VyxUKpV273b+Wq5APi+/1xt1qstZ+QHl7u7u+FwaLFYxGKxxWJB7HqPN/QuEIdl0m63C46b4AQCqyOtVqtUKpXLZXBUHY/H7Xa7UqnkcrlUKgWKBDoMrzJcLhecylutVqPRKJfLcDvsoMCOJQ4gPpvNms0mhmEwLsvlcjqddrvdWq1WLpehGzBe4F5VqVSazWav17u9vd15SOyc7id+Xa/XFosFWeI79+NPbPxXevinA+IfPQDo1W8ymSSTSQzD0ul0JBIJBAKRSGTH9IaXZbT4vu9iuN+NxWI773r4e9/jN//H/Qq9QiDebrf3+/ngFpfL9fbtWwzD9kEc7Q8XCF/Bjx79hO4xJGT4qd/vJxIJmOGNRCJms7ndbu8cC87FcOCDIL7D4zqdzxZbHuBtWd5t5uvV8gfW9bvJcr6691hf3m3Gi9lstVjcrRd36+XdBv5W24xIW9bH/wsgjqT3ERVwq4V3UAzD4N3u8XbgrSiTyTyiouCSuDOIjzf7C/26Wq3MZjONRvvsnYIk/ImDOEDezswyXDxSWVjkgT1nsxm43wJd1L7pvdlsFosFBAE96CeOhx44ETIqkdAfr3wcTD9+FJwRgXir1Xq8D+hXBOIwnYK2w2Xiv0IdTDbkiAmezqBksAMCguVyCUFYEKY4nU7hAYlvE97iwRF7fzoFv+fWgEVm9d1msVlvrewtNN8t7jaz9XJ1dzdfr8aL2fLeVEeEt6ttktW7/3UQhwfYvgR2rvFdYke7rdfr4XDY6XSazSbEo8LsE7QPAThoZ6jAeswjIA6uX+h+gaPgyY0e0jtt/nJfEYh/9hNHQv6VgTh4AiSTSQqF8v3337tcLq/X694rLpfL+WMBR2/4hGlxh8MBU3tQgcUiqMN2g8EAtESoYY/H4/P5vF4v7GCz2ZxOp9/vv7y8fP78+c3NjclkgtlzDMNgH7fb7fF4XC4XLJDCsR6Px+12Q9dc9wW+2u12p9OJYZjX67VarfDV6XSifbxer9PptNlsdrsdruXH6zvov8vlAt/h8/Pzp0+f1ut1pAGPV+x2+7fffkuj0QwGA0gAwzDffYE2A4EAdl98Pp/b7XY4HLb7ApcPnYNpcbgc2A4TteB9b7PZYAjg0mA3WNUAgjOn02k2mxkMxr/+67/Cih+GYbCb1+sFkbrcLofLZXc5bU6H2W5zYh6Xz2t1OaxOh8XpsLocTq/H4fXYPW6Xzwt/bj/2w5/Pa3M67E6H2+tx3c8gg/5YrVaz2QyXA5IH/UFDAAPh9XotFguJRCKTyQaDAeT5+DMVsI/P55+fn5tMJofD4XQ64RM/nGgLqAFeq91uN2g+XqNA+Ha7HeQGIQigTiBkpOpwFOjnixcvXr16JZFIYEDdbncwGERjDfs4HA4YMqfTCeeFvsFo/jAE971Edbh3nE4nuunwl4YUA21ESoK/0VwuF7oHUYVCobx586ZYLD7IjP+4Pn+Sv/76QHyxWCQSifPz8z/+8Y/AcHQ4LRQwBFEoFDKZfH5+fnZ2dn5+TiKRgGLlg1ioaDQah8P505/+9O///u/ffPMNiURisVg8Ho/JZN7c3BAIBCDAOr0vwLF1fn4ODE0nJydv374FXqHLy8uTk5OjoyOgbSKRSEdHR9CxN2/enJycEAiEm5sbUNxXr17BYiBi0Trw2oEN6vz8/Msvv/zLX/5Sq9UO1GabzfbkyZNnz55dXl5yOBxgv9r/RARSNBoNOMgIBAKQIl1dXV1eXgIrGYlEotPpl5eXb+8LECHB1QE72Ls+Ly8vnz59+s///M/ffPMNg8HgcDjAvkShUC4uLk5OTo6PjwlE4tX1NYV6c0khP0BFxgAAIABJREFUXzPo5JvrV6cnRAr5inZDoVFvmHQ6h8XkcegcFo3NpLGZdA6LzmZtN3I5VzfXl1dk0hX5/OKCRCLd3NxcX19fXl5e3H8l/1iufiyIy+z6+hq8Kr/88stXr15ptdrDQZzJZH799ddwOsQJBTRSQKMGCok+gW7s/PwcSL7AR+XNmzenp6ckEolAILx9u6UAe/v2Lcj5+vr6XfJE24lE4r/927998cUXZ2dnMIhAMkWn00kk0vHxMWITA7K2t2/fUigUIA4DNjQ4CvUfyLMQx9z19TXIDG4xUFd0RWg3CoUCN8LJycmWM43JBBo1KpWKiLRotC2pFpvN/u67777//vtKpfL3fw848K75O+/2KwPxzWYznU6z2axIJKJSqfl8vlgs5j+wpNNpIG8C9z6fzxePx1MfWHK5XKPREAqFJBJJqVTGYrFKpQLMQZFIRKPRHB0dnZycUKlUqVQKYfdSqRRYFVksFhB4XV9fq1QqEon06tUrpVLpcDj0ej2BQJBKpWKxmEgkHh8f8/l8oD0CZAkEArBmC+u0B34WCoVyuex2u2k02suXLw+fTnG73aenpxKJJBQKwaJW+R2ldF/S6bTT6QTWPb1eD+4rer1eIBCAS344HDYYDLL7YjKZfD5fIpF471XE43GtVvv111/rdDpgualWq8ViMRKJiMXiN2/evDg6UqpUwXAoW8inclmXzyuWy84uCf5wqFirpAu5RDadyKSTuUyuVCxUyoVqOVcuJrOZZC5TrFYyhbwHw8RSCZ3B0Gq1iUQilUplMhl8x7I/lkwmk81uA4ugFAqFWCzG4/EYDIbRaARkea8lvtlsJBLJzc3NfVxrBrfUXYR1YKTU0IdsNms0GoVCIUCnWq12Op0SiYROp/N4PBRpDEyTSqUyEolks1lo6pHPVCpFJpNpNJrL5SoUCpVKpVgsZjKZcDisUCj+/Oc/39zcWCyWeDwuFAqpVKpAIIBwKiDkghVOvEYUCoVSqVStVsvlcqVSqVartfsCW3ZW9UulUr1er1ar2Ww2GAxyuVwymezxeHK5XK1WA40CycAlFIvFWq2mUCioVGqz2fw7Y+X/2dP9ykAcplMymQyQFMLEHD4vwSH1arUKPM4Qlm2z2bLZ7Ify4MOCp9VqFQgELpfr9vZ2sVgAv36n0/H7/d988w2NRvN6valUClibHQ4H2FBOpzMcDrvdbqPRGIlEqFTq0dGR3++vVqupVIrH4wUCAY/Hw2Kxzs/PdTpdu91OJBIQ0NHtdhHH0CEXC/uAoHK5nFQqPTs7e2SVckdTwcXQZrM1Gg3QlcfjSOv1utPpJBAIfD4flkPdbrder7darcACZrfbIQLFbrcrFIpoNHp7ewv5JR757Pf74XD49PQ0GAyipBbgHmO1WgkEwqtXr+KJxGA0nMxnlUYtlk5qjPo3F+f+SKjVu+2Nh/3JaDAdD2fT0Xw2XsDffDSfjhfzxWY9nIxzxYLFahUIhV6vF1J8wMoHxFuhq4b8GCBV6PB8Pm+32/CgMpvNB/qJr9drtVotkUjq9Tp4beNPAVxA+LOMx2On08nj8cCIBp4WOp1+fX0tk8mKxSKEknm9XoVCodFoIpFIv99/b7DYaDQSiURyuTybzcKyxGq1AvZHv9//9ddfMxgMDMO63a7H47FareFwGNy08H2bz+dAtgUko/jLQeRiwPsGyS5AgSGACBaZBoNBs9mUSqVkMjmRSIBfE9IHONdsNoNAUIfDweFw6vX6Z0sc7tZfH4gvFot0Oq1Wq3U63Q7iHPi1VCoJBAKTyQScEmKxGIUzHNgC2g1cDAOBACzlwQ28WCxyudxXX33F4/HAqS6RSITD4VQq9ebNGwKBAC7nhUIhk8k0Gg02m310dJTL5WazWafT0Wg0hUIhlUpJJBIymWy328FFMhqNhsNhtDCI+nB4pVarqdXqy8tLxOT13mOdTid4pxxIt9JsNt1uN51OV6lU8Xh8sVhgGGaxWDAMYzKZEPUKNDKhUIhKpWIYdkhn1ut1Npt9+/ZtPB7fWWHz+/1kMvnV8XG1Vuv2+5V6LZpMRJJxg9X8lnjh8fvKjVrztnM76A9nk/Fi3hn0Gp12vdPqDHr9yWiymC/v1t1BP53LWm02kVjk8/mAtRW8Ud8rImAxtNvt4Cd+CIjDXQcRwog67b0nikajarWay+VyOBxgAaLT6SwWy2g0VqtVuVwuEAgKhYLBYJDL5RaLBfH5PN4yhOlXKpWd3crlMpFIhEUI4DHOZDLNZhPx2Q6Hw3a73Wg0er1es9mECLLBYABstPAgBNZf8HFs3BfEugz0jbPZbDgcAv2zQqEgk8mpVAoIbzudDhBpwWsN6h6GYTwer1ar/ZR7AbX2CVR+fSC+XC5TqZRKpdLr9R83AMlkkkgkApcQxHN6vd5D3n/x+8CpXS6XXC4PBoM7GFer1b755htY6bJarUCI2O12Ly8vgRnDZrNlMplerzcYDEQi0Zs3b0ql0nK57PV6EFOXTCaVSuXV1ZXNZpvNZpVKJX5fhsMhIhTd8bp55Cv0tlKpqNVqIpG472ryLklardZXr155vd4DD+l0OslkEhiacrlcv9+HntvtdhaLxeVy5XI5iURyOp2pVOr7779Xq9VgUuFlu1+HQX/58mUoFILlLETbHQ6HKRTKi6OjeDKh1mqubq6FUrHZYdOZjdcMmj8SiqYS24VNzBNJxlO5rNlhl6mUYrlMbzHZPa5gLFqsln2hoM5g4An4jPvplGg06nK5rFarz+cDCmKUDAyEvGMDzmYzu90uk8msVushwT7L5XI0Gqnuy3A43GltZyyQNMbjcbPZzGazsVisWq12u11YXYxGo6VSic/ns1isQqEAHPdsNvuQkK71eg2MK6B+4P0C/lSDwUCv1xOJRB6PV6/X0+k00HACMygQPgN3v91uNxgMQLESi8VgUToSiYTDYY/HYzKZ1Gq1XC6HqCL06XQ6C4VCOBwGTrpcLieXy6lUaiQS8Xg8ZrPZZDLVajVkj0+nUxh6n88nEAhqtdovzfq5MxD/Z7/+KkE8kUgAw8nHiTUej5+fn2u1WpfLZTabYRoO3SoHVuDUTqdTJpMFAgEIcABvxfV6jQdxg8GQz+fBWjk/Pz8+Plar1RaLBUzvwWAgFArfvHlTLpcnk0mr1TKbzfl8HkCcSCTa7fa7u7t2uw0RSfBGeWAnd3arVCoajYZEIh2IyMDHdHp6imEYHIJIut/1wOh0OhB74na7Ia6vWq02m02Y8ZRKpU6nEygNTCbTkydPVCpVs9nEMVA9XIXXr9evX4dCIRTJCXExwWCQTCYfvXxZrlalCvnbi3Or0xFOxCxO+znp0hcOhhMxtV4nUcpVeq3ZYbe5nTyxkMZm2j0usULG4nElCpnZbrM7HXqDgcvj6XQ6IJYSiURisTidTqPBfZe+zedzq9Wq1WpDoRDssyP5na8wZQG+fYPB4EEQR4eAqCFCFQztTCbT7XaHw2EymQyHw16vV6PRCAQCpVIZj8fZbPbFxQWkTHlXh9H2zWaDQHzHsJ3P5/l8HpZPHQ5HNBrFMEyj0cjlcqVSCVNkkNUoHA5LpVIOhwO5LORyOZAmQhinTCZTq9Vms9nhcAA9AIZhAoGATqcLBAKLxQJeQD6fTyQSMRiMSCQCrF5isRjDsFqthiaF4CXM6/UCiH/2ToFx/FWCeDweVygUarUa6eIHVSAmXqfTATcscAqie+bACpwR9DIQCMAU+Xg8BhAqlUpPnz69vr4Gx8FCoVCv13O5HLipeDyeUChUKBTAUVomkxGJRLgzK5WK0WiE9R+z2Xx5eWk2mxeLRavVgpC8B2/4Qy5/tVpVKhWtVvtBLIbgJ47C7t+F3Wg7xE9mMhnguYaFu2KxmEwmWSwWkFPDTSuTyb799luj0djtdh9GbtxWAPHT09MdEF8ul36/f+vS8/Jls9WSyuVnREI8nSpUy3aP++Xpa4vT7vB6BFIxk8fhCPgSpcLmcnJFAiqLgYUCLD739PzskkLWm4xev8/lcXO4HIVCAXTELBaLSqU6HA6YKHjE3382m1ksFp1OF4lEYCwe16LVajWbzR4BcXQ4QnDA/WAwCMGKkMcqGo0CIS2FQhGLxTabLRgMXl1dASMm8tZ/XD3eBeKr1Wo0GonFYnBcCYfDLpeLRqNRqVS5XA7+iDQa7fr6GhwNwJPn7OyMx+PBHBq4gQqFQmBu8fl8EKALyvD6vgAFo91u9/l8fD6fQqF4PB6dTicQCCBjUTAYnEwmKLzu7u7O6/Xy+XwA98cv7Tfy628RxEulkkQiMRqN4E4rk8kSiQS6bQ6sgH7ATCgCcbjPgYv5L3/5C51OTyQSYJxGIhG/3w8mEhjmhUIhEAhUq1WTycThcLxeL6z46/X6Vqs1GAwgx4VSqaxUKoVCIZ/PH+4auK++q9UK0sRcXV190MImhN0jS/xx+eRyObfbnUgkHA6HRCKBnJYmkymXy8GKnE6nc7lcNptNqVRSKBS4RdEz4F2Vd4H4YrEAEH9xdFSpVeUq5TWNWmnU6p2W3eP6+vl3AolYopTfMOlMHofF5/LEQr3FJJCKuSJBIBrmCPhnlwQqk260mLGA34N5r29u2Gy2wWBQqVQcDofBYOh0uveKfTqdGo1G4C8DyT8upR0Q3x8smNaARhCOdzodk8l0enqay+XgzUyn04Ef9/n5uVKpBP/96+trFouVSCQebHZ/I7zUAgk4/ldgBnU4HGQy+dtvv43FYkBme319rdFoEokE8DOzWCyoEAgEIpH4+vVrkUiUy+UymYzX6wWCQ6/Xm06nQSXAcwa8pI6Pj+G5Dn4+PB4PCEdFIhH7vlAoFLVa3Wg0gP0cLHGPx8Pj8arV6iOPVfyFfPL1XyWIx2IxuVx+uCW+Y70Oh0PgaQI6oVQqdXt7e8h6FP7OBM3YAXHYOB6Pw+HwyckJm812uVzRaNRms0GOK8hyi2FYOByGmUTwr8IwzGazeb3ecDicTCZHo9Fiseh0OjabDebuQ6FQsVjcmXn/IO38OBD3eDxnZ2eITxwvAXwdgW+73QZ+MQjiAPMNXqtFIpFGowkGg/DsdDgcwWAQ8qWhw3cq6BR4EEdECOv1ejKZBINBNptNJBLjyaTWoBdKJZliPlPMW12Os0uC2qA32qwytVKuUYkVMpFcqreYlTqNSq/1hYNSlUIok3j8PqvTYbKYdQY98/51wWg06nQ6IOpyuVyNRgNvCe6IfblcxuPxL7744vj4+MA5cQBxSEza7/d39BPaR9eOQLzX6/n9fqFQCKuL+XwegoAg/AqiriCoJxqNHq4qSqVSrVYXi0U8Jq7Xa7jkXC5nNpvFYnG9Xu/1eqlUCrLRRiKRdDqt0WiEQmE4HAZ6TiBYNpvNoVAoHo87nU6VSgVPmkQiUSwWnU6nwWBwuVxMJpPNZsOEGxBdgLcCnU7XaDRA56LVamG+pdPpQOgvCOoziO9o4G8CxHf8GZbL5XA4rFQqkBet3+/P53N8SkB0/zxSATnabDaJRIIscdg4n8/L5bLZbPZ4PEAPlEgkkslkqVSCuNBMJgP0LKFQCNLj1mo1WLeEHInQn9lsViqVYrFYJBIpFAp4WqidUTzk63q9rlarWq2WTCYfbol7PJ7z83OU2eddAkHgCwRYpVIJWL1Go1Gz2SyVSplMBm77Wq2WTCbBN7zb7cIUPzocX8Gfa7lcptNpmE4BEIfZeRA1hmF2h71Sq8aTiUA4VK5XS/VqPJOyOO3JXCZdyIVi0WgyEYpF/ZFwIpuOpZOxdDJfKUeS8WgyUWs1U7lsNBEPRyNujxs88ePxeCwWSyQSQJgOmSrhSb8j7el0arfb//Ef//H3v/89j8cbDocIcfCXgK/vgPhOg/AV7Y9kAhxq8XgcslwCSRZQX7Xb7Xq9ns/nI5FIsVjs9Xo7Ov/gKWAj5LkuFAo7IA6EP51OB3ylwLAYDoelUgnCDur1eiwWCwQCpVIJXgKKxR+c3MEBPJvNhsPhdDpdKBQajcZ4PIaJtVwuB1m0wIIplUqQ2RmWxOPxeCQSiUajYGklk0nIGoq65/F4uFzuZ0scjemvD8RXq9WHWuJIoeHGgGtGqyVo6hUZROj+eaQCEtwBcaRnwGUItwE6O9yN0Ca4G+OdjsGRFloAviHoJ6zOo0YeMQnRoD5Y2Ww2H7GwCXziKFHyuwSCgAacnfc7gEhU0CWj9GDABY9a2DkFNLUP4rA/rG1uH8CbLfPVYr0az2fDrT/4ZLKYz7fUKVsyrMF0DERX881qc0+WAuxX6+2vd9PlYr5aLrcshtusTCBqmExATuJ47xSkJ9C36XRqMpn+4R/+4Z/+6Z+Oj49brRZ4TexcCP7rB4E4OnBfqpAGejwegyvecrkcDAY7Fsn+UTtbHgFxSJoMT03IwAdL9+jeQdxnYLkjLUWn2FkshQNh1EDVd4QJB6LdZrPZZDIB2lH0BvYZxJF4ofKbAPEdRQGSILwg8Duge+bxChy+A+J4lUWQjU6Et+OgcaB2QtAPHgj4+VDkDYIaQQeiLQdWAMTVavUHead4PB4CgXAgiEP/kdG63zGI7AAWWXAtQBeIxIXEjj98H8QRExkeOFZ3m+U2F9CW62q2/oHREFB78yMTFjQLvFfLe4gHSixIQIFyBuHPjurL5RJcG2ELXMJ0OsUw7F/+5V9+97vfEYnEn90Sf1AgqEuQSQopHooYemQU8Mfe3d2Bt0k+n0fOHqg1fL5joMHa3wffGv4+wm9HdaS9790TDkHXjr93PoM4kidUflsgDobDYrEApzEwZJCRtaM3SIEerMDO+yAOOy+Xy/F4DK+90P6DWrvZbCaTCboxANF2Rmj/K7J6Hmxzf3+0BfzELy8vD58w9Xg8RCIxHA7DIQ+KAgExAnHUMYSwaB9QOIi+g8cVssF3liVQt+G1Zmc6BTbiczlO57PpYr7c0olvre/FPZojaN78uHF70ru79b09/iMP7fYrytuJPy/UEYJAUC56q4Cn73q9LhaLBALhyy+/vLy87Pf7wJH7LlkBoeBsNkNz4vtnxD/I8fLBP+YR1OIPh3BWmBsEHMf/+mB9H8RhN0hBDiMFpjH+LRA/spPJBGQC3X7wLD/jxs8gviPM3wqIQ3hFs9lsNBoQ1DsajTqdDsSbDYfDwWDQbrdvb28hmgb09ZH7EOS4A+LwDj6dTm9vb+PxOKRKqN8X/DQ0uv1ms1m5XO50Onjf550R2v8K8YSj0Qi1s7/Pg1s+AsS9Xu/l5WUkEjkExOGhCAF4kLgAJcS4vb1tt9sgW0gd0Ov10M2PcAovcPwl7FvigBcwrNvsBIV8tV6rt5qdfm++Xs03f0MXDpy0YHcv7jnEf7TEN8t7QH8XiAPgIjr4yWQCs8+TyQShGCSFsNlsl5eXVCr19vb2vb78HzSdAsJZrVbj8Rhoe8E+AKUdDocgxsVi0e/3C4VCu92eTCYAwfhO4uWJrz8I4vCiM5lMarUaMJaAxxRSVPScBi6jdrsNP0Fv8e3/7HW3283lciuVCrJ+fvZT/Loa/PRBHO5DcH0DuhIMw9rtdiwW8/v9wWAQQuAgAyeEJNTrdWASx2PKTh2GeQfEYeNoNAoGg99++y2dTkdejBaLBRLDz+dz5MDbbDavr6/Bp/BwvUmn016vN5fLwfvE4Qd+HIiTSKT3gjgSTr/fj0QiFAoFsqRPp9NOp5NIJAz3JRQKlctlWN0NBAKhUAjyAeFB/MHLWa1W+5Y4xLv7/X4qlfr65MQX8FvsNp3REE0mOoP+fLOdUUF/09Viutp+hZmW2XoJyA7w/eBJYSOa7Lq7u2s2m3a7nUql7mQgG41GHo9Ho9E4nU4USopksl/5OBDP5XLgguL1eiEjlUAguLm5EYlE+Xw+FApZLBaVSmUwGILB4CHhmnCBkJwTsifDFghSHQwGoVAIgi2NRqNYLAZKFjAdEIi3222hUIhhGLCqwXvnI/L86T+53W4Oh/MZxJEkP30QX6/X8/kc0scEAgEul8vj8TweD+Qw9Pl8LpdLJpMJBIJIJKJSqYBKBeLo9m8/tAUk+CCITyYTSDLLZrMjkQgEaHA4nFar1el0er3eaDSaTqfz+bxerxOJRI1GU6/XYaoHIB4WM4EtaP+zWCymUinwu4I1InRHoXF9sFKtVjUazQdxp3i9XjKZjFzW0OW/qwLcKRQKRS6Xx+Px5XIZDAZNJpPVagX2bYvFIpFInE4nuAbGYjHkAoxmLfY7vw/i6JLhmXH08qhQLDo9bg6fx+Cws6XC4m49Wc7R33gx709Grd5tpVnf0hlmM+PFbDSfblmxppPR/d94OplM/0beMEyIemkwGLhcrvPz83w+jzdyx+MxJJz0+XzQ+XfJB7Z/BIgvl0uPx2OxWACswUuVx+MBN2SlUtHpdOAoBck2w+HwgYbqPoiD72YqlaJSqXq9PhwOFwoF8Ih1uVz9fn82m41Go8FgsFqtOp2OWCzW6XTRaBT4Ug487/4oH7jF5XIBiKPXggMP/FR3+/RBfHPvcgChB4CnFAoFwpQlEolWq1Wr1WQymUgkFotFrVbLYDAcDgdkC3vkVgSFeBDEgQDr2bNnIpEonU5Ho1EqlcpgMMAlK51OQ/glkHNeX18bjUYg7axWq6VSKZ1OA8MnsOyWSqVKpZJKpcDjrVwuA1HqcDjs9/uQ/xOfOxFmnxHG4RW3Xq9rtVoSiXQI5xQciGHY1dVVNBqFQx4RCPxUq9VQ3tFSqTSZTCAnutfrDQQCBoOBxWLR6XSPxxOLxb7//nuHwwHkeWCMP9hteFDtWOIIQ/P5PJPJPH59XG82vH4fg816SzjHgv5Wt1Nvt0q1aqlWKdWqyWwmlk5GknGXzytTK1V6bXc0KNWriWwmlctmCvlMPpfKZvLFQqFYyOZyyVQql89VqtVmq1WpVMqVbYLK4XAYDAaJRGI6ncYjyGQygYTFXq8X5Pa4oD4OxI1Go0gk0uv1SqXS5XLFYjGtVgtO2eVymcfjsdnsZrNpNBr5fL5cLodAU7wCPFjfB/G7u7tWq2U0Gp88eeJyuYBIC+XFjkajxWKxWq0GAoFarVav14GO0WQyFQqFYrHYaDQGg0G32729vQUmxXcN64P9ee9GAHF8Ku33HvJp7/DpgziM32azqdfrcrmcz+drNJpAIPDNN9/853/+57NnzxQKxfX1NYFAqNVqJpOJTqfL5fJqtfr4fQjNPgji6/U6k8n89a9/BQIsoVDI4XBgzkQgEIjF4kgkwmAwNBpNNBqFrECpVMp4X1QqFZVK1el0wMWhVCohlfj19fXr16+BSoXJZEIsqM1m094XjUaTzWahS7BsizAOr76NRkOn05HJ5A8F8VgsBmR7j8tks9m0Wq1YLObz+SDBYyqVOj09ff36NWRKksvlFAqFRCI5HI5IJPLVV1+ZzebxePzR0ynL5bJYLNLp9CdfPnF7PVq9TiAWmW1WjV6n1mvNNqtQIuaJhAKJ+PuXRxckokgmZfG52yhNFqPZ7Vi3IfhCoVSi0mnlahVfLDRazEazSa5QMJhMlUbt9nrsTofZajGYjHqjIV8s+Pw+EokUj8fxHIEA4oCtSN8ekdXHgbjBYPj+++9///vfX1xcOJ3OarUK2XYgaRSRSLy5uWk2m3q9HvJy7Aeaoi7hteJBEIfI+D/96U8+nw+t0wJby9XVlVqtDoVCBAIBeGa0Wq1QKJRKpQ6Hw2Aw6HQ6g8Gg0WjUarXNZoPp8gcVEt+Nw+tOp5PNZpdKJeR0ePixn+Senz6IwwrPZDJpNBrhcJjL5bJYLJPJxGazgY6KwWCcnZ0RCARwo76+vtbpdI1GA2n8gxXQhh0QB01drVb5fP7Jkyd0Ot1/X3g8HjBHSyQSpVIJpOFarTYYDMKceDgchndSg8EA1BOBQECr1TKZTKDhhvwpSqWyXq/LZDIajRYOh51Op16vl0qlFArFYrGATsPi6oO2D9zhHwriFArlcBBvNpuJRCIejzscDoVCwWaznz17RiKRIG3CmzdvXr58eXNz4/P5ksnkt99+a7FYYIX2Qy1xkP9yuSwUCgwG47vnzwulYq3ZyOSywXCIJxCIpJJsIc8XCq6pNywO5/j0RKZSZEsFlw/jS0RihWw0nwZjEblGxROLDBazxqDnCPgKtUqr16k0ag6P63A5k5m0xW5T67R8oZBwSfQHA26Pm3x1lc1m9y1xhULhdDqhYw/qDNr4cSDucDiYTObFxcX5+blMJovcl3g87na7SSTS8+fP6XR6t9uFPMJkMvmngHg+n5fL5U+fPgViXvAv7Pf7uVyOwWCo1Wqfz3d5eanT6YLBoEajMRgMTqczEolwuVw2m63VauVyOYPBYLPZxWIRntM/F4B+BvEdSX76IL5arYbDYTabjUQiuVyOSqWenZ0BkZ5Wq+VyuUwmE/wKMpmMSqViMpler/f29hbdcg9WQI47IA6uXfP5PJvN/s///A+TyYzH48ViEfKtFAoFoEGPRqMsFksmkzkcjouLC6VSiWEYi8WC6R2YXgwEAlKp9Orqikwm0+l0JpMpEolcLtdyuTQYDJBuAqKcFQrF6empQCAol8toOvJBEId35Kurqw+yxK+vrw8H8UqlEggEYrGYwWDgcDhEIvHly5ccDgdIx168eHF8fMxkMjEMi8Vi5+fnXq/346ZTQP6LxQKmbl++ennb626dplerVCbDE/BFEkmt2RBJJTd0GofPOyNc2F3O6XKRKeY1Rr1Co273uvF0ymAxc4R8ndmk1GnobJZMpVSoVRKZVCQRB8KhfLGg0qgVahWLy3n67GuDyWQ0m0gkUj6fx7sGgSX+S4O41+sF7kA2my0UCi0Wi9/vD4fDZrP56Ojo1atXAoGgWq2azWahUCiRSJrNJl4N8GqMR4EHLfFWqwVU8g6Ho1argStXs9ksFArAO+R2u0F1vV6vUqkE7q1YLAZ5KoB4Fl4IotFor9fDiwt/9o+ofwZ9ypAkAAAgAElEQVTxHaF9+iAOFIAqlYrFYvn9/vPz85cvX0I6nkgkEgqFIFsY8AdptVqNRgO2A17p9+sgx30QB9fvSCTy3//931dXV36/P5vNstlsKpUaj8fhZdNkMh0fH19dXcnl8ufPnwsEAqfTSaPRLi8vWSwWMLoA3SCAOIlEgp+sVut4PDYYDFQqFaCczWZbrdbz83PgYkTv+Pi7Fw05gDiFQjkcxH0+H4A4tLwvh50tyWTSYDB4PB6FQsHn8xUKBVCkAl3Gzc0Nh8PhcrlGo9Hj8Uil0lwuh3chf7DbD86Jw0XNZjOfz0ckEl8cvWh12rCxWC5pDXqlWhWJReUqpVAs3rIbXpwbrebeaJDIphVaNVckwEIBfzhksltpbJZQKmHxuAQySaXVCMSiyyuyWCrxh4KRWPSaRpUrFSKJ+K9PngjFIrFEcnFxkc1m8ag0nU7hzeMXtcQhPXQ6ncYwDDI/aO6LVCq9ubnh8/k6nQ7DMJ1OZzQawbUfTWLsDBNSibu7u30QhySIuVxOKBSq1WoMwyqVCiR7K5VKRqPRbrdbrdbnz59DSgqpVAqTfg6Hg8/n39zc0Gg0rVZLp9NPT0/tdnu9XseLC3/2j6g7HA4Wi1UsFpGX10c08ikd8umDOGAEkKi5XC6dTme328Ew9/v9KMlOMpkMhUJAPfFeJ3GENTsgDpoxGo1SqdTNzY1SqQyFQkCA5fP5hsNhuVxOpVKRSARMcpvNJhaL9Xq9yWS6ubmhUqmQbdlms3k8HpRhHea+rVZrPB6fzWahUMhkMsViMchBnslkIGN6Pp9H7/jopsUra7vdNplMvyiI397eZrPZeDzu9Xp9Ph+szSaTyUAg4PP5YrEY+MkFg0FIVASecAjHkWDx3X4ExO/u7nK5nEKhYLHZtUYdjpot5rlCPhQJR2LRYCQcioQDoaBcqQiEQ8PppNm9jSQT3qA/XylVWw2gyjLaLEqdZkt5KJdx+DwK9YbOZEoVcrPV6vZ6fAG/0+2SK5Uuj8diswpFomq1Cqn44NVnNps5nc5f1BJfrValUikajQaDwXQ6DZkn0+k0ZPKLRCLJ+xIOhwOBQCaTQTFHIBOkD1DBi/dBEIfUd/F43OfzQYP5fL7dbkOKn2QyGYlEpFIpZEnFMCwajSYSiUgkAswnsCgCvG/xeLzT6XwGcbzMf976pw/iIK/BYFCtVvP5fKFQaDab0+m0Xq8Xi8VSqQQZ/3q9HhDxjMfjHY1/8Cs0uw/i4AzT6XRCoVA6nQYXFIjogSD7fr/fbDbz+Xwul4PkDwB5IpEISNJFIpHf7wcKcpRnFri6wK2w2WwWi8VOp1Or1RqNBmTPqVar/X4f3Sqoz3h1+SkgDj7pqNn9Ckxqz+fzwWDQuvfoAHf7+Xze7/fL5R+8O6bTaavVqtfrEHUFT52fAuL9fj+dTofC4V6/j4Lmx9NJ67ZTrddat51Or9vstFPZTLVRnyzn48Ws3evW2s3uaDCaT3vjYbG2TZQcz6SC0YjFbtPodUq1Sq5SanRap9tVrJTL1UqpUi5WyrVGvVAsRmOxfr8/nU4hoAnyvjqdzl90YXO1Wg0Gg0ajAUM/Ho/n8/lwOGw0GrVabTgcjkajbrdbqVRqtRoQYOFdNmG8UEwsXiseBHFYSRoMBpAdG/KlQYgTZFwDHQYmLMj70W63wYEH4uYqlQo4VrVaLVj2eNcTGt+ZQ+qfLfEdKX3KII6ABvAFXfmDygTrgbCA0+v13ht0B63tgDiAETrRIRXILVupVLxeLxgywWAQDD0Ue31IO4fs88uBOHIvQeuTECCOj8YGtoAHSQjQSD04NA9a4u/a8xE5rO7u5psVRGwu7uPygQYLojfXd3eLzbpYraSymVTmh798sXDb645nU4jmR41DBBksgfx9QBy/Xg3iQp2BCnoQ7o8FEi8aHfyx+yC+j/6oBVRBLUBEPpq3QUq70w30/PiIgUPngspnEN8RyKcM4uhSH1R69OtOBd0tSF8frMBROyAOcSuPqCm+KXTe5XI5mUy63W7/vuDj0T+o56jBd1X+DiCOsBvPs/FegaAb/l177gf7AHag/ZENDte+WK92YHcLLj/QXd0zq+BAHBhU4HM8n40mk9FkMpyMh+PRcDKezmfz5WKxXq22NIfbv30ohOmUX9QS/whNQCJCWrff8wfnxJH+oAP3nxAgeTyXC2IHg52BHBQ/sqg11P7HVT6D+I7cfhMgjr/m5XIJ8ydgO2w2GwgzQz4SCBeQTYGUD1+BNndAHFjfZrMZvNjCHCIipMUbI6ipxWLRbrer1Sq8IIOhim4A2A3f/w+t4y8HeaccToCFYRiFQoFgvEcEgu5VuKsRlx7wl0Ik+mAw6Pf78ImoU0Em6HB8b/FXug/iiMu31+ttMyIVC9P5bDKbdgf9RqvZHw0XqyW+BagD79XqR/JCPHzfR+Fv2bPgb3W3WW3Wy816uV4v16sF/K1Wy3vze6efs9nsl17YhMDjyWQyvC9A0DoajUCkwF0MgZRA/A0EvzurO4eD+GazGY1GMPc4Go32QRyaGg6HQIg/mUxGo1Gr1QI7Bri34E0FnRTp/P64fNCWzyC+I67fFogDHWsymUylUpAepd/v5/P5TCYDGS+BMgXJCKndfgX22QFxCIsYDAapVEoqlbpcLkBnhOM77QCrEaTlbTQakEsQ4RogIJqRQL36oAqcEQ5pNpsGg4FMJh8O4hB2H4lEHg/2QTcqVCDtRqPRyGaz+Xy+UqmA/3gikYBlT0jog5hO4Si48Aevbh/EgZlgNptlMpltxLlUWqvXa81GKpvxYN5qvT5bLvAUhtAs8BciKIeJFPwnYsJCx67vNveAvllttrC+2pIj7tj9d+CdIpfLHQ7HDyfaGem//foRfuKr1er29rZWq0GGDVhjyOVyEL7barXgp1wul06nm83mg09cNEx4Ie9PpwBDZKlUkkqlXq8XBb6hYULtNJvNWCyGYRhMmieTSUgzC+wr+P3xAsCf/SPqn0F8R2i/IRCfz+e3t7dyuRw8r4F9wuVyud1uq9UKXretVmt/dg+vf6gOctwBcdjY7XY9Hs/Tp0/ZbHYqlRqNRvg2dwZgPp+bTCYqlRoIBFqtFqIPBVMIcmLtHPJBX6HDcEij0dDr9R8K4kCA9TiI488CVls2m9VoNBcXF999993x8TGDweByuZCpS6VSJRKJ2WwGzzYkUnwjO9e4D+KQ+mC1WmEY9vbt27/89S8WqzWZTsUScaVanUgl+8PBjxMgm/XdNmcE/u9Hc/tuxypf3W2Ncdhzpw+PfJ1MJna7/RcF8eVyGYvFwuFwsViENDrBYNByX0wmE6RYA2YVo9Hocrlqtdp+bgoEvvhr2QdxeAb7fL6nT58KBIJkMrkzRuhFBDwO6XR6Mpms1+uBQADo1IFYEZ0Ofzj+1B9X/wziO3L7DYH4crlstVpbdzQWS6vVJhIJu93OZDItFgvEuCsUinw+jxQUr3n7dZDjDogDWAPDxl//+lcIcikUCuCIUq/XO53OYDAYjUbVahV8Y6rVqkqlgqzw5XK52WxWq9X2fSmVSlqt1uVywbRMt9ut1+u1Wq3f7wPVbSKRyGQyxWIxm83mcrlisdhqtdrtNjTS7XbB1EVXhMLuAZF3VOHBrxiGARXtISCOTnR3d1er1fx+v16vp9FoV1dXTCbz6upKpVKFQiEajWa32xGrxo5sH+zGPojDbpvNJpFI8Hi8o6MjApFosVoTyYTJYi4UC91er9lq1huNdqfdH/TrzUY2n4unkvlyKV8uFivl1m2nXK+Va9V2r9sfDW8HvVqz0Wi3Or1ub9Cvt5rlaqVYLldqtXqz2ey027ed7SLndLLfw/F4bLPZZDKZ3W5HHdu5LvzXj7DEIchLJpM5nU673W40GkGTzWaz3W4/PT09Pj7m8XjlchlcyG02235ua4Sq+EvYB/G7u7vxeOz1ev/85z/z+fxQKFStVpPJJHhbtdttcMvp9XqhUEgmk11eXnq93lQqZbfba7Vap9MBTYY0Q8gex6sHvgMfWv8M4jsS+w2B+Hq9vr29hRsgFoul02mlUvn69Wuz2ex0OiE2AdLeP/gqir8JkTrugDh4+M1ms2Qy+fXXX4tEomQy6XK5gFguGAyCPy+wcYH5H41G5XI5i8WKRCLAcgV5b8PhcCQSIZFIAoEgnU7ncjlw2oW8nZFIhMPhADuo1WpVKBQajcbhcESjUUh76HA4kskkJIBGQw4EWGQy+XAQh1Ca906n4IUDpxuPxxDg5/V6jUajUqkEvsZcLgep2ZvNJmJ53T8c9Rkq7wJxSBzq9XoFAsHz58+5PK7b7fZ4vYVCoVQqBe8d/2Px2NaJE/OqNdtAHrvLabHbLHZbKBrxYF6nx+0PBmLJRDyVDEejvmAgFAlH43Gv32e128xW69ZNOhQMhIL+UNAX8OeLBTT6qJOj0chqtUqlUpvNBr/ir2i//hEgvlgsVCoViUSiUChisVgikXC5XBKJBCEFf/rTn/7jP/7j8vJyNBpZLBYulysQCJAPPurA4SC+WCwCgcBf//pXqVTq9/sxDFMoFFqtFmJE0+l0Pp+PxWJWq1UkEhGJRKvVimGYUqmMx+PJZBL4znK5XLfbRTmG9uWGBPhBlc8gviOuTxzEQX0BlCGBADhlQ6wwmUyGDOVutxu4DKPRKNL4xysgxx0Qh42AON98841QKAwGg1KplE6n8/l8FGgnk8msVqtKpRKJRKlUSqPRsNnsZDKJYRjkWRcIBCqVKhAI0Ol0rVabz+fVarVWq7VYLHq93mKxyGSy58+fX19fSyQStVpNJBIZDIbNZvP5fPBA4nA4FoulWCzi75xarabRaEgk0uEgjmEYgUB4L4gjdECVzWbT6XQcDoff7/f5fBaL5e3bt1qtttVqnZyciMXiSqWCCIyQsfauafF9EJ/fl9Vq1W63M5mMy+USCoVv3749OztzOp0Wi0Wn06lUKgzDLBYLh8MRicWU6+tzAsHpcesMeqFYpNXrtlxXSsUlmXRDp8lVSq/fJ5HL2Dwuh8eTymU8oUAkkQTDIad7e4hMoaAx6EazCXEboHsJoFMikVitVriEx5XnI0B8uVyGw2ESifS73/3u6dOnLBbLbDZLJBK73a7Vav/whz/87ne/Oz097ff7er2ezWZLJBKIy8X3BI0O6vm7vFM2mw0wlCmVSq/XazabuVyuTCZzu91KpZLP5wsEArPZbLFY5HL5+fk5EJxRqVT7fZFIJLBDNpvFr/Tgz/vR9c8gviO6XyWIx+NxuVyuVqt3LubBr6DEq9VqMpm0Wi2fz+dwOAKBAJVKPT4+Pjs7g8BIpVLJ4XDS6TQ0glf9B+uw24Mgvlgs4vH4kydPeDxeOBzWarV8Pl8qlWIYBtOXEolEoVAAQ2Gn0wHqxFAoZLValUqlTCa7urri8Xh+v5/FYul0ukQicX19zWQydTqd2+0OhUJms/n169darRYMdhaLpVarC4UCRIdKJBIymSyVSqPRKF4m1WpVrVaDvYbf/kjd6/Wen5+Hw+HHp1MQOiBn8Lu7u0ajwWQyHQ5HOBwGSlutVlsqlcAkB08GcGBAuarxCIjv1XK5BELEUCgE8UGTyQTIvkulUiKRgPjPy8vLL7/8EijjeTyeSCSKRCIWi4VAIIhEIoFIKJHJKvWa14dJ5XKDyehwu7QGPYF0+fL4mM5i+oIBq8Ou1mrEMqlcpRRLJSqNJpvPOd0umVIhlIjPLs6FYtF+voXhcAg86R8E4kqlUi6Xw6QH/mJRHSkeuL36fD6tVqtUKmk0mkgkstlsMLUiFov/8pe//PnPf76+vm632xqNhsPhaDSafaYENEzoFADicrl8h9ILiOCfPHkik8kg3F8qlRqNxlAoJBaLiUTi5eWlx+Px+XwGg4FCoUCIJoVCMRqNIIrr62uBQOD1eofDIYwyuhyo4PvwQfXPIL4jrl8fiK/X63g8DsGNOxfzyFegg2g2m8CW6XQ6qVQqmUzm8Xgmk0mn0ykUCr1ejzK27Cjc/lc414MgPh6PA4HAH//4R2Ax1Ol0QEjkcDiA3U0sFlOpVA6HYzKZut2u0Wi8urpyOp0qlUooFIJpQ6VSHQ4Hm83WaDRAg85kMoECNJ1Ou1yuk5MTt9tdqVRyuRyXyzWbzd1uNxwOm0wmoVBIIpE4HI7b7cavqVYqFZVKRSQSD7fE3W732dkZssQfmWgC/AUQB5wtFAonJycmkwmmU4VCoVarjUQiTCbT5XKBJxykwkApHPF3O340gejq9PQU5TqYzWYQ+B6JRLxebzgcbrVaMpns6Ojo6upKIBCAMej3+81m89XVlUQikcpkOoN+NJmkMhmDyWixWW0Oh1KtOiNcvDx+RWMwPD4sEAraXU6lWsUTClgctlQuS2UzBrOJLxJKFfI3Z2d0BiOVSuEjY+/u7gaDAdjFVqt1x6tvX3MgUGg6nb4XxJG0AcQ996VUKgEDDyRIgpw719fXV1dXkM9ELpeDVwlitcS/6Oy/68hksn0Qn0wmMCcuEoncbrfT6ZTL5SaTKRAIsNlsIpFIpVI9Hg+8whKJRK/X6/F4Li4uZDKZTqeTyWQUCoXBYBiNxm63i7yz8A9p/DsifqzfW0cgjt7k3nvIp73DrxLEE4nE4ZY4fvyGw6Hb7ZZKpSKRSKvVejyecDisVCqFQqFCoTgEqtA9Cc3ugDhYlLe3t06n8w9/+AOBQABKuZubGzqdrlarWSwWk8nkcrnffffd8+fPqVRqIpGQSqXn5+darZbNZsNrMvG+KBQKJpMpk8k8Ho/L5TIYDFqt1ufzxeNxs9n89OlTs9mcSqX8fj+JRAIOdLvdDgz9wAJqMpmGwyHy5KtUKkqlkkAgfCiIIz9xvDDxdSQWgBtw4o7FYkdHR0ajsVgs9no9eHxarVa5XJ7JZCAOEyJEAMofsccXi0UymcSDOEDhYDCwWCwKhcJmsw2Hw0wmYzAY+Hy+3+8PhUJSqVSpVGo0Gq1Wu53UYjDYXG6n2y3Xqr5gwGK3SWSyq5vr5y9eUOk0mUJutJi9fp/d6RBLpS+PX337/LtzwoXFbuPyeTQmw2g2XV1TKNcUvcGAfDQBiT4CxCeTySEgDjgOUg0EApA+0OFwAGiCcWAymWC9xGQyicVikUhkt9ubzSY8aXYQfAfEN5uNVCqFEUHEO+v1utfr2Wy2L774gs1mm81mvV4PdMo6ne7y8lIgENjtdp1OJxaLKRTK06dPwT0GpvjgCcpms7lcrlarbTQa4CeDeoK0Ba9Ch9fBH6FYLKIOH37sJ7nnrw/EV6tVMpkEpfmIIen3+0A30Ww2IUiyXq9XKpV6vQ7+EjttIoXbqcBudrsdcmKBUQAwNJvNWq2W3+9Pp9O1Wq1QKKTT6UwmUyqVIEucSCSSy+VgAVksFgi4L5VKuftSq9VS96VcLudyuVKp1Lwv1Wq1Uqm0Wi3wFw6Hw7VardvttlotSAYETBrA1pLP54vFYrPZnM/nyNO8XC7LZLKTkxN81uad69356nA4Tk5O0HTKzq/oKwgHBZgANPd6vWQy2Wg0wJmh1Wo1Gg3wnBkMBmjiBcxwFOWEXvnxAp/P5wDi0WgUpqQB12azWaPRKJfLwNPS6/Wq1Srkp26325AgCbImlUqlrQdPIT+eTvqjYbPT3hKhlEupbCYSi2Vy2XtHlGqpUvb6fXKlQqlWyxRyiUym1KjdmDeZSZerlVQmnclm640GmhaHq+h0Oh9hicvvCyKeRMLcr4DXZrfbBU1oNput+wIOTvV6HRIo1+v10n1pNpvgr42CdJAwdxpfr9cIxGGdGcYO+Pf9fn8+nwefKFgrrlarQL/VbDbBMx245Cr3JRaLZbNZ6FXhvkCcBFrb3Mdx1LFDKtB5p9PJYrHwdG87F/Vb+/rrA/HlcgkgrtFo/tdHy+VyyeXyYDAIRgFeEUFfURg6QBWwNVkslmAwGAgEXC6Xx+OBNGb78RFI4z+oAn148L21Wq3KZLJXr149Mg+7I1KXy3V2dhYKhQ7BGjgW9RZZ1gdW0IE7nQdOsXQ6fX5+nkgk0NzL/mMAPQ/2K4vlcvu3Wm5jL1fL+fKBv9lyMZpOsoW80+0O3nMfen2Y0+OuNuqzxXwymy5Wy9V6vVytoIfQAQjDgYlgm80GQsBrwn4dFjalUilaftwR+/5XNKyHCBMkCYfsN4XfstlslEqlSqVC5Lr4Ufh563DefWkcvgVa8Hq9HA6nWCyiRyn+in6D9V8fiMObteK+QDw3CvL+e1bgXRVAHMMwmKDAdwCPI+jGAwMnmUzG4/FYbOv6ViwWu93udDodDocoD9bhar2zJ7rr0NmhS2DnVioVqVT68uXLwxE5GAze3NxgGAbG+84zCZ0FzYrARApMWENQ5c/yORwO4/E4kUhMJBLj8bjb7Y7H49kHlulstg3Nf/ffdD5brJa3/V6uUIinkvFUMpPL1hr18XQyXy0Ho+F8+yRYjMYjfAFeRr1eLxaLD4zYhNcIsVgMCX9HoxGSJFIhcL+BT3Sh+I2P11E7aNUBlBBpCGjObDZTq9UqlSoej4MbCerJz1VBPdm5FnRRh1cAtT0eD4/Hq9VqaGXiNwjc+EvebDaLxeL/w2/6P15fLpflcpnJZD579kwgEPD5fO7/RgGHk1evXn311VfHx8csFksoFD7YEQ6uMBgM2n2hUChUKpXJZDIYDNZ9odPpHA6H/xMK775AH9g/Fmicy+WKRCIKhfLdd989e/asXv+Bevu9Y51KpVgsFoFAoNFoAoGAx+OBe5lgr0DHIf86l8vFXfTPU728vPyv//qvi4sLyLDBZrPheg//5PJ4HB6Pw3/sjyvgs7gcGpNBYzCYHDaXz+cJBXyRcDstzqCzOGw2l/OjaH/4z+fzWSzW0dERk8kMh8Mg0p2H6/7X9XotFouPj4/JZDKMO2oWhoy5V1gsFtrnvTJ91xAgFYWhZLPZX3311ZMnT05OTuh0OpfL/QkK+MCheJ1EfUZX8aEVLpcrlUov7kuxWPwM4kjZlsvlrwnEga7ebrdzOBydTqfRaFT3RXlYARMepiNlH1XgWJVKpdPp+Hw+k8kUCAQKhUKlUkHj6HOnR7ADzObL5XJYc0P7gNMh+voTK9AHpVKJKmq1Wi6XA2v54Zl9Op0OhmFisVgqlYLJplarYakQcjSjTM2QZUalUqGeIzl8dAWaUqlUGo0GlnkhSSnaDkN/yKdSpVKqVIpH/tQqpVql1KiVGrVKo9bqdVqDXmfQ640GncGg0WkVapVcqZD/7TipVCqtVqtWq/l8vsvlQk/HfdTe2XJ3dxcIBGQymUgkggkNkBIsloBiSv+2wCIKqB/kP3tEsI9oOL4FuVxOp9OpVCqbzRaLxaCWaAR/ocrfivADTqJSqfR6PTjA3N7eomCx99oin/YOQP7+qwFxtFAD79T9fr/X63W73dvb284BBXjrm81mo9Go35fahxdIaNBqtdAJYVkJmm3cF1h6arfbnU7n9sfS/bHc3t6injSbzXa7fXt7C1z7sGD10Z9wRugYnBbO2el0IH3EaDSC9A6Hq/VsNqvX661WC+R8e3v743X8zX84Xef/Z+/NnxJN8vzx73+xu7/sfCImZiI6dnc2Nubcne3enunp6WOmZ6a6qrvObrvrrq4uy7K0vBUPQEFAEDlUQAQ8OARE8VZOFVQ8ULxPRFHBAxA8QL4xvmMzWOqYmu6eabubJwwjeZ588sl85Tvf+c7Md77S7QbOACjgFy4IvIjQ29vb83q9UOnb29tAnvfXJr65tfXnP9dz/7b+vLd+27W97d7Z3vN63Dvbm66t7d3dP1Mv+rwen9fldm+eEhtAGYHAD2BxuVxAhBkIBP6ilyGAHwgEYK0SyBIAOlQotIYJAVgTjrr5gp8ghyDnkTIOYg8yDGlCTLj/137lBRlAj1CJkGBESilqRC8T2N7ehvYOVggwxL28JH9bY4Kn1jdGiaNqQGtKaLr5BdO1z5vdQ7N1f20AEkSffsEKG4oTFYjKEnoadf/L/ERpImQQNSiC8WUC0M9HenC/wMM3yt78Sn6Cmx1kFaZ00ZkMXwafZ7wbPD4+JZs95Zv9M+vsn+P8ueR/Xso8XdL8Py9FIQwu+VE+fC9AGErxf1L8G/x4nmxHfQqiRd08Uz8j0QaoQbpegPB35NE3VYl/R6onVswYAjEEYgi8GIGYEn8xPrGnZwKBpy36M5GtWCZiCJwBBGCS+Zs3nXIGoAt/6zXLM4ercBN5qv3dAlFonwUBiOUhhsBZQCCmxL94LUSplRfMFH/xb5zJN58u+N/6zpmEIZapGAJnBYFQKBSzxL9IZURpri+SROydGAIxBGIIfGkETk5OYkr8S6MYSyCGQAyBGAJfEwIxJf41AR/7bAyBGAIxBL4KBGJK/KtAMZZGDIEYAjEEviYEYnPiXxPwsc/GEIghEEPgSyMQ80750hDGEoghEEMghsDXh0BMiX992Me+HEMghkAMgS+NQEyJf2kIYwnEEIghEEPg60Mgtu3+68M+9uUYAjEEYgh8aQRiSvxLQxhLIIZADIEYAl8fAt8wPvGvD6jYl2MIxBCIIXAWEYgp8bNYK7E8xRCIIRBD4CURiCnxlwQqFi2GQAyBGAJnEYGYEj+LtRLLUwyBGAIxBF4SgZgSf0mgYtFiCMQQiCFwFhGIKfGzWCuxPMUQiCEQQ+AlEYgp8ZcEKhYthkAMgRgCZxGBmBI/i7USy1MMgRgCMQReEoGYEn9JoGLRYgjEEIghcBYRiO3YPIu1EstTDIEYAjEEXhKBmBJ/SaBi0WIIxBCIIXAWEfhmK/FQKPTdOWP+LIpPLE8xBGIIfN0IxJT4110Dse/HEIghEEPgSyDwDVDiL7C1/26W+Avy8CXAj70aQyCGQAyBL4vA2VXiJ/97vaCIx8fHUU/hkIu/qHMjI/zvd04ikwqdXujO8fFx5CvofiwQQyCGQAyBrxeBs6vEw2dCjqMAACAASURBVOFwKBRCavr4+Hh/f9/v9x8cHPh8vmAwGA6HDw4OIuELBoNRdyKfojCUGX5C+Pj4+PDwEFIOBAIoZmScqJuxnzEEYgjEEDgLCJxpJQ5mdTgc9nq94+PjXV1dbW1tXV1dWq12ZWUlGAwiFQ9QBoPB/f19t9vt8XiiHkVhHWlWg9Ht9/sXFxdNJtPIyEhU5NjPGAIxBGIInFkEzrQSR6hZrdaUlJSf/exnr7zyys9+9rN33nmHz+fv7u6iCChwfHwsk8mamppWVlbQzZcJ+P3+urq6zz//PCMjY29v7wWvRHYAL4gWexRDIIZADIG/AwLfACUeDAY1Gs2tW7d+/vOfX7t2jclkcrncvr6+xcVFo9E4dHpptdrZ2dmlpaX+/v7Lly9funSJRCJ1d3f39vYaDIa+vr7+/v7R0VGHw9Hb29vd3T0wMOB0Oo+OjsLh8M7Ojs1ma2xszMrK+uMf/3j37l2HwzE9PW0ymTo6OgYGBtbW1lBNwAQ6+hkLxBCIIRBD4OtF4EwrcZhOOTg46OjoiIuL+8lPfvLxxx9zuVyBQGA6vR4/fozD4chkcmZmJpPJlEgk9fX1P/rRj37wgx9cvnyZwWBQKJSsrKz8/PyysjKpVNrf389kMnNycjAYDIfDGRgYcLvdKpWKQqE8fvz42rVrv/rVr27duuVwOJqamkgkUnp6ekZGRk1Njd1uh1n4Z66Cfr1VGPt6DIEYAt9xBEKh0P93NiFAc+J6vf7atWvf+973/vEf//Ff/uVfXn/9dTabLZfL/9//+3///d//fe7cuTfffPMXv/jFzZs3a2trf/zjH//gBz94//33uVzu/fv3f/zjH//6179OSUnhcDj19fV5eXlXrlyBOElJSUaj8dy5c6+++upbp9drr7324MGDvb09Dodz7969ixcv/vM///Pbb78tFoth9gacGpEqR4GzCWAsVzEEYgh8FxA4u0o8HA7DBLTBYLh69epPfvKTGzduiMVitVpttVpbWlp++MMf3rx5k06nl5WVvfHGGzdv3tTr9W+++eaFCxeEQuHy8nJRUdHrr7+enJys1+sXFhaUSiWFQrl58+ZPf/rT733ve5cvX2axWD/96U/v378vlUopFMqFCxeuX79ut9u5XG5CQsK1a9f+6Z/+6dVXX+VwONvb2+AwAwuhSH1D4LsgKLEyxhCIIXA2ETi7ShzpR4PBcOXKlVdffTU/P39hYWF1dXVjY6Ojo+NHP/pRamqqUqlsaWl5++23b968abFYfv/731+7dk2hULhcLgqF8tvf/pZIJM7Pz9vtdgwGk5ycfOvWrffee+/73//+n/70p8LCwldeeSUxMVGn03E4nCtXrly+fLmnpyc5OTkuLi4tLe2VV1557bXXaDSa2+0Oh8PBYDCmxM+mHMdyFUPgO4vAmVbioVAoHA7r9fqrV6/+13/9V3p6+uDg4PDw8Pz8fEdHx89//vOMjAylUtnW1vbuu+/evn17eHj4/fff/93vfpefn28ymXJzc99++20ikTg+Pq7X63/+85+/9dZbH330UXx8/L//+79/+OGHVCr1P/7jP+Li4thsdk5OzoULF86fP19WVvbLX/7y9ddfLy8vf+ONN9566y0ikehyub6DSjxywPGdbSFfS8GRBYMCX0s2Ij/6VQlDzL8rEtWvJHymlTgsJxoMhmvXrv3gBz/4t3/7t9/97nfvv/8+j8dramr65S9/mZWV1dTUpNPpPvroo6SkpKmpKSKReP78+V/96ldkMvnhw4cffvhhSUmJ7fRKS0v74x//+Pbbb1++fPlHP/rRZ5991tHRkZaW9uGHH7799tvnzp1755137ty5o9Fobty48frrr1+6dOlnP/vZ+++/z2QyYTrla7HEo5px1M+vRAieTgRa2lfVbp9OP3bnxQigWkaBF8f/Ozz9qoQhpsS/8so6OTk5uwubsGdneXm5rq4uLy8vMzOzoKCgsLCws7NzdHSURqM1NzePjY3Nzs7W1NQ0Njaura0ZjcaqqioCgdDU1CSRSIRCoU6nczqdLpdLq9VWV1ez2ezq6moSiaRSqRwOh8FgEAgEZDKZxWKVl5fL5fKVlRWFQsFkMlksVklJiUAg6O/v39/fR5Z4pDT/HdoYLPAGT6+/w+dAwp4uI7rzlYvg3y3BM1gElCUIICjQTxRAj77CwNOJP61hIU7k/6gMPP1KVISonzC8jroZ+/llEPgGKHEont/v9/l8/udc+xGX3+8PnF4HBweHh4dHR0dgQQeDQSSLkVs6Q6EQqMjj4+Oj/3sd/+8VaYN/Gbi/2LvAQHB0dPR34/yCVWUEV1Tgi5Xia38rshRfe2YgA5FZitSGyDXrb1rj8HUEBfpo5J2oHEZmMrII6JW/GPiblugvfv1bGeFMK/GX77RhFz6o6ah6AtF8Wviiov0dfv7FPIDf/tM5QQ3pb9cAUMooEKXHn87VN/EOQvIMZj5KpcISOvr/F4Xn5Uv0zKSedxPl6mWgA2sDLJ7I/KCGfHYaY2T2vunhs6vEX6BEkGAh9OFOpAKCR+j+04/Quy8TAOFDsvgyrzwvTmRriSpIlCm0ubnpcDi2trZgbQABEgqFDk8vdP9533r5+yhXR0dHh4eHkSOVl0/k7McEwKNgR9lGrkfoztcVCAaDR0dHx8fHX4nIPa8UMOx8sRRFYhUZfmaaIMAwro2MADbW8fFx5KwgErnImLHwF0DgTCtxmIbe3993uVw+n+/w8BCEAP4jIwUpaKRqIx9FhY+Pj/1+/97eHmy7f0nIdnZ2nE7n1tbWS8Z/ZjSYETo4OEAt8wWtIhgMmkym3t7eubm5yKz6fL6lpSWDwTAzM7Ozs/PMD32Zm2632+FwbGxsfAv0OBBbHh4eIkAA8OfB7jy9vF7v16tfgsHgxsaG3W4/ODj42+UkEAjY7XaHw/FisiAwHRCAKHBwcLC3t+d2u7e3t/1+f1RPgCQ8HA77/f6trS273e71eqExQiJ/u6KhTH5HAmfXOwVVwM7OjtlsXl1d3d/ff56aBoF43tNIPb6/v7+2tjY1NfXyGvDw8LC3t7epqUmr1aJc/bWBk5OTyclJq9W6sbHxMuLr8/lqamqUSuXKykokQe7ExASdTv/Nb35DJpNHR0f/2mz8xfgWi6WlpaWnp8fr9T4z8stk/pkvfuGbUK1f4PXV1VWbzTY7OwsqBonBM5X44eFhY2Njc3PzzMzMF/jWl3klqoBANSEWi79kdxKVbFQOV1dXlUplU1PT9PQ0PIrs4Z4JEUrh4OBgZGSktraWQqGQyeTW1talpaXnqfv5+fn29vb6+vrn0dL9/SUKFeTbEfgGKHGbzcZkMoeGhhBzod/v39jYWFtbAwsddfsgtYFAYHd3d2trC+m+o6MjuHNwcOB2u4eGhng8Xnd3dyAQ8P3v5fF4dnZ2XC7X5ubmzs4Ooib3+/12u12pVAoEApVKtXd6bW5ubm9vR1kfJycn8GmXy+XxeOCpx+Nxu90ul2t7e7u+vp7P5/f29u7s7Hg8HqfTubGxAYbMyckJEJp7vV6/3+/1etfX17u7uy0Wy97eXiAQQIKuUCgyMzPT09Pb29vtdvv+/v729jYMLKDhHR8fezye/f39QCDg9/t3d3d9Pl84HD48PITV33A4fHx87PP59vb2fD5f5Mhgf3+/tbVVJBI1NTWtr6/v7u5ubm663e4oYzYUCvl8vp2dHbfbvb+/j1Skz+dzu927u7uHh4cwvw9wwfIyFAFI4UGfBgKB/f39g4MDyKfT6fT7/dCuDg8Pd3d34dMwsQD3Q6HQ0dHR1tbW5uam1+s9Ojo6ODjwer3bpxfYekdHR16v1+l0rqysLC8vOxwOWOLe29tzOp3gaARTUjDEAbZ6h8NRUVEhFArHxsYODw99Pt/W1tbe3h6MSE5OTmDy4fj42Ov1ulyu9fX1ndPL5XKtra1BPR4eHoIMOByO7e3tQCAQCoV2d3ddLtfOzg6s2QD4ABQSITh4JBgMejyeubm5qqoqNpvt9/uPjo5AVHw+H5JzmGwJBoOAG+TT7/fDyjyq9IODA5gcOzi9jo6O9vb2XKdXMBgEp6+6urqhoSGoIJjRhqGY0+l83jhgd3fXYrEQiUQej6dUKmtqamQymclkgla5tbWFKvHo6Gh/f7+3t7e6uprD4czMzBweHnq9Xo/Hg9rmyckJDI5BEkKhkN/vB6GCuvb5fNDMQQAODg52d3cBW9Qovh26+AuX4qxPp4TD4b6+vvT0dI1GA87a4XDY4XCYTCatVqvT6cbGxpB8h0Kh7e3t2dlZk8lkMBgmJydBUVqtVv3pZbVah4eH1Wr148ePqVTq2NiY2Wzu7e01mUzT09PoJyS7t7c3Nzc3MDDQ2tpaenrV19dPTk5aLBatVqvRaJaWlpB2C4VCXq93YmKir6/PYDD09vbC5lKDwaDX6/v7+4eHh3Nzc1NSUvh8/sTppdfrtVqt0Wi0Wq07Ozujo6N6vX5kZGRubm56etpsNnd0dEA6Ho8H5PXw8JBOp9+7d4/D4fT394+PjxsMBo1G09fXNz4+vra2Nj09PTAwMDo6OjY2NjIyYjKZ9Hq90Wi0WCxDQ0Nms3loaGhnZ2d9fX18fHx4eHhgYMBqtW5vby8tLY2Pj5vNZiaTSaPRGhoarFbryMiIRqPp6OiYnJyEniAcDgcCgfX19YGBAZ1OZzy95ubmdnZ2xsfH+/r6tFptd3f3/Py8w+EYHBzs7e0dGxvb2tqCTjEUCk1NTdntdug6FxYWrFbrwsKC2Wzu6enp6uoaGhpaW1s7PDycnZ0dGBgwGAwmk2l1dRXhvLu7OzY2pj29LBbL+vr63Nyc2WyGqSeLxeJ0OkdHR4G9cmxsbGpqamZmBpgp+/r6enp6rFbr5uYm8kQKBoMzMzMmk6mrqwuDwTAYDJPJNDs7Ozw8DF9ZXFwErQQadnV1tb+/v6urC7pYwNBgMBiNxtHR0Y2NjfHx8d7eXp1ONzQ0NDc3Z7fbNRpNe3u7Xq+32WxLS0vz8/P9/f0IGWi6gUDA5XLZbDaNRtPY2FhUVEShUFwuF5ROq9WazWZkyZ6cnOzt7dlsNmgFbW1tZrN5YmJiampq+PSamJiwWCzLy8v7+/vr6+tLS0uLi4tra2tQKJ1OZ7PZzGazSCSi0+kSiWRkZMRisdjtdpfLNTg42NnZ2d3dbbVanzkam56erqmpSU9PV6lU8/PzIyMjer2+t7fXZrP19vb29PQYDAbo5ECiqqurCQQCi8UaGBiAugY539jYAIcrMK1mT69QKLSysjI1NbW+vj49PT08PNzX19fW1jY4OOh0Ot1ut81m0+l0Go1mdHR0fX39Cyu+b9OL30glbjabKyoqqFRqRkZGaWnp8vIydOxHR0dDQ0MCgSA/Px+LxZaVlVVXV/N4vKysrIcPH+bl5eFwODqdLhQKr1279vDhw6qqqszMzPj4+IyMjObmZplMxuPx2Gx2amoqkUjs7e2l0WgZGRnJycl3797Nycnh8XhqtZrP52Ox2Pj4eKFQiIbegUBgbm6ORqPl5uYWFBSkpKRwudz6+vr79+9nZ2eXlpby+fwbN25cuXIlLS2toaFBIpGUlpYSCITc3FwqlTo6OlpQUHD79u2ysrLGxkalUslms4uLi4uKiiorK51OJ8ic1+stKCi4cOECkUisqqqiUqn37t17/Phxeno6DodTKpV4PP7WrVssFotOp+fn58fHxyckJNy7d+/q1atJSUlpaWk5OTlDQ0M9PT1sNrusrCw7O5tAIFitVgaDkZaWlp+ff+fOnYyMDIlEolKpBAIBHo+/e/cug8FAx2Wsr6+3tLRkZWUlJibm5+ffvn2byWT29/enpaU9fvz4yZMnN27cEIlEDQ0N169fT0lJ4fF44+PjoMR9Pl9VVRWMIex2u1wuZzAYDQ0NycnJt2/fzjy9wFWfy+UCOLdv325tbUWGm9VqxWAw2dnZOTk5xcXFWq0W9hCUlJRgsVgymdzT05OVlZWQkFBdXS2TyeRyeUNDQ1dXF4fDSU1NzcnJoVAoKpUKEjw5OXG73Uwm88mTJ+np6deuXcPj8Z2dnVwut7S0FIfDPXjwoLa2dnFxEfDf2NhoampKTk6Oj4/HYrEVFRUcDqf89MJgMAQCwWKxAHcmg8EoLy+vq6uTyWR37969efPmkydPCgoKOBwOl8tNTk7G4XBCodBkMrlcroODg52dHb1eX1xcDPg/fvwYj8ePjo7yeLyCggIikZiZmVlXVwfDCLBjsFhsQkLC559/fuPGDRwOx2QyyWTy48ePCwoKZDIZgUBQq9Xb29v9/f1NTU0KhUKj0TCZzOzs7Pz8fAKBwGQyq6urHz58GB8fn5OTk5SUJJFILBYLm83Oz8/PzMzE4XCzs7NPK7vOzk4sFiuTydAUyvHx8ezsLI/Ho9FoaWlp9+/f12q1KpWqsLAQ2ldiYiKDwWhsbJTJZDgcLjk5mUAgtLe3ezwemDRfW1sDox52aItEos7OTiKRmJSUlJiYeOPGjdzcXJlM1t3dTafTQaqxWKxKpfoWrNw8jfBfe+cboMR7e3ujLPHx8fHa2lo2m52YmJiTk2OxWNxuN4wuhUIhDofDYrEkEqmoqAi4ahkMhlgsHh4eptPpVCq1paUFi8XW1NTYbDYsFkuj0bq7u51Op8VikcvlbDY7KSkpNTWVy+Wmp6ez2eyhoaHa2lrgQRwfH1cqlYWFhQ8ePCAQCF1dXYC4w+FQqVRPnjzJysqiUCjx8fF5eXl4PP7jjz8uKipSq9WTk5MEAgGPx7e3ty8tLQ0MDPD5fCqVmpiYmJSU1NPTU1BQgMFgrFbrzMyMwWAoLy8nkUgZGRk5OTlobTMYDAoEgsLCQovFAiNutVo9MTHR2NiYnZ1dXl5OJpNLS0uXlpaamprodDqfz29qauLxeA8ePOju7pbL5QCX2Wyur6+n0WiPHj1KTEyUyWREIpHNZs/NzUkkksrKyrq6Oq1WK5fLi4uLHzx4UFxcrNFooKROp7OlpYVKpdbX18/NzZWUlOTk5ODx+Ly8vObm5qGhITqdzmQySSTSZ599JpFIpqenkepxuVwsFkutVttPL7FYTCKRBAIBhUKpqqoym80kEkkikdjtdolEAp30xYsXpVIpGouMjIykpaXl5eVxuVwoUXFx8ZMnT0A9ZWRkKBQK6L/X1tb0er1UKq2srCwqKsrNzcVgMHl5ebm5uTweD7Lk8Xg0Gg2LxZJKpfPz83Q6HbZ9PXjwIDc3l0wmx8fHl5aWmkwmKPvc3FxZWRmfz9doNMvLywsLCzqdTiQSVVRUpJxeQEyfnp5eV1fX19fX0NCAxWLr6+thgJKbm4vH43E43P379ysqKvr7+0Fuw+Gwx+OprKysqKhoa2sbHh7mcDh5eXkikSg/Px+sh4SEhNLSUsRuv7KygsPh+Hy+wWDQ6XQsFis7OzsjI4NMJisUirGxMeir3G630WiUSCTl5eWlpaVYLDYvL49MJmMwGDweX1lZCTvmrFYrHo+vra3t7++vqqoqLi5OS0v79NNPe3p60AgMaZb29nYcDqfX62FVCSZ5HA5HY2NjZWVlVlbWnTt3mExmSUkJiUSCM7nANtLpdFqtlkKhpKenZ2VllZeXAyXR4eEh1Difzw+Hw93d3Vwut6Ojo6ioqLS0VKfTtbS0VFZWAnoCgaCnpwfaMoPBgAk0lLfvZuCbp8QPDg46OzvLysoaGhrAIjMYDG63++TkxOPxEInE7OxsDoejUqmgARcXF4tEIpPJtL+/z+Px6HS6RqOh0Wjt7e1ut7uwsFAkEsGQWaPRcLlcqVQK8x5EIjElJaWhoeHw8FCn09XU1PB4vJaWFolEwmQyc3NzwfgFIZ6bm+PxeKmpqaWlpc3NzSwWi8/nV1dX43A4KpVaU1Oj0+lIJFJFRYXVal1ZWQHdUV1dnZKScv/+/ZaWlqKiIjqd7vf7p6ammpqaKBRKRUVFQUFBeno6TCaCr05DQwOXy93Z2eFyuWw2e2pq6uTkpLe3Nzk5mUajlZaW1tbWhsPh3t5ePp/f1dU1MTHR1tb25MmT+fn5vr6+nJwcjUbT3NxcXl4uFAoxGExiYiKbzQZdEw6HDQaDSCTi8Xg1NTUikQhYZchkcltbG7SQjY2NtrY2LpdrMBjC4bBAIEhNTX348GF+fv7o6GggEJDJZDQaLTs7Oz4+3mg0ohnScDjscrnodLpKpVo+vWpqaoqKing8XnV1tVardbvdNBqtoqKir6+PzWbDxM7HH38sFouhfsPh8Pz8PIfDKSsr43A4dXV1JSUlGAymoKAAxg3l5eVAEC8Wi8PhsMViEYvFVCr10aNHoLvr6+uFQqFarYZcuVyu+vp6DocDalomk5WUlBQWFsbFxRUVFclkMhaLJZfLrVYrlN1qtebl5bW0tMBAfnt7u6OjAzb6YrHYzMxMqVQKw6CqqiqFQkGj0ZKTk81m8/b29uLiYnZ2NpFIZDKZBQUFbDZbrVZPT0/DtPjOzg6BQKitrV1bW/P5fAqFIicnBwxwEokE0gLdG8RfWVnB4/Gtra0wccHj8ZKSkh4/fgx94crKSklJiUKh2Nra0mq1IpGITCanp6cTCAQej9fc3CwQCDgcTnV1dW1t7eTk5NHREYVCKSsrE4vFJSUlLBaLSCRevnxZrVZvbW1FOkeFw2GNRlNcXKxSqTY2NoDac29vb2hoqKysTCgUAtpYLBaDwVCp1FAotLi4qFAoWCyWQqFQKpXQwRcUFBAIhM3NTVihWV1dra2traysPDk5AUjVajWBQBCJRJubmzMzM7W1tTDsqKurs9vtgUCgoqKCQCA8vTT1HdTj3wAlDnPiHR0dTqfz+Ph4amqquLj44cOHRqOxrKyMSCTqdDoYl+3t7eHxeNiXv7Kysra2NjIygmb9Dg4OamtrKyoqdDodDoeTSqV2ux2LxdbW1i4vL29sbFCp1KSkpN7eXhaLVVBQUFxcnJeXp1ar9/f3Ozo6Kisr8Xh8YmIijUarq6vjcDg0Gq2pqQmEZn5+vrq6mkKhtLS0OByO2dnZ5eXlxcVFs9kMyaalpaWmprJYrL6+vs7OTgaDkZmZ2dTUVFRUlJiY2NzcTKPR+Hz+yclJS0sLkUjMyMiQSqXl5eVYLHZxcRGGjfv7+2KxmMPh7O7ucrlcOp0+ODi4s7PT3t4eHx/PZDKhIYVCocHBQbFYrNPpJicn29vbU1NTp6enDQZDdna2WCwmEAiPHz/WarU8Hi8/P5/BYBQUFNTW1oZCIeiB6HT648ePiURifX09WNYtLS1Q0q2trfb29qqqKo1G4/f7q6qq8vLysrOzMzMzTSaTx+ORSCR0Oj0vL+/hw4cmkwlNZ4fD4d3dXZg/mTy9qquri4qKqqur5XL54ODg1tYWlUrF4XDl5eWJiYnl5eVqtToxMbGhoQH0BcwFT05ONjQ05Ofnf/LJJzBLVlVVNTk5OT8/Pz4+rtVq2Wy2QqEIh8PDw8P19fVkMjk5ObmsrKy3t3dxcRGWOkExud1uiUQiEAjMZnM4HK6trSWTyUQi8fPPP+fz+VardXJycm1tDRaKw+HwyMhITk5OU1PTwsKCz+cD6crOzjaZTHw+n0KhqNXqwcFBsFXv3bt369YtgMXpdE5NTWVmZkJ31djYWFBQkJWVVVVVBSs9LpeLRCJJpdL19XWn0ykWi2F8U1BQUF1dvbS0ND09PT8/v7GxcXBwEAwGV1dXoetaWVkZHx/ncDgZGRkpKSlSqRSsBDKZLBaLl5aW1Go1j8cjEokwuDQajaurq7Ozs/39/Q0NDWKxeGxsbG9vj0QiZWVlYTCYhIQEPp9fX19/9+7d9vb21dVVWOREynFkZITNZsNwECZDrFZreXn5xYsXa2pq6uvr8/Pzi4qKMBhMSUmJ1+u1Wq01NTUMBqOwsJBAIFRUVIhEIgaDUVRUBPOEoVBofX0dJui9Xm9zczODwZDL5TAsg7O3ampqUlNT4+PjBQLB9PS00+lksVgkEsnlcqH1XpTD71rgG6DETSZTRkZGYWEhi8USiURwtkNCQgKbzc7IyCgoKDAajeC4cnR01NbWRqPR8vLy2Gx2ZWUlm82m0+lKpXJsbGxnZwdsTLPZnJ6ejsFgqqurs7OzRSLR1NSUy+WqrKwEszQ1NTUjI6OqqgqHwxUWFtLp9JycnKKiIpjyzs3NzcnJSUlJyc/Pb2xsBInZ29uDJfuioiIwZNhsNp/PLykpgfgEAoFGo5FIpPz8/IqKChwOl5CQUFZWlpqampCQ0NjYCPr38PCwu7ubQqE8fPgQi8VmZ2fn5eXB5GM4HN7f31epVCKRCFhiuFwu2P4wIwwTLCKRKBQKWSwWmUym0WhgPIvFYufm5kwmU2FhoUqlKikpiY+PLy8vz8vLy8rKksvleDw+NzeXz+fn5uYWFhbyeDwMBgOzzE+ePCESie3t7VDS9fV1uVwOM05VVVXZ2dlgVGZlZZFIJDabnZyczGazuVxuYmKixWJBDhgwaSAWi2k0GvH0KiwspFKpYrFYpVKNjIz4/f7a2try8nKRSJSYmJidnV1cXHz37l2ZTAYe+oeHh8PDwyQSCexKWELA4/HJyckVFRUlpxfYekqlMhwOj4+PNzY2wmlQNBoNznjicrltbW1oEWV8fJzBYBQXF/P5/KSkpOLiYqlUmpOTA8sndDq9paVlbm4Oyr62tiaXy3Nzc7FYbGVlJXSxmZmZXC43Ly8vJycHjHcikYjD4TIyMoqLi6GjIhKJNBqNQCBwuVyhUEgmk2FSSCqVgiILBoMKhYJCoeDxeBaLhcVicThcc3Nzfn4+KF+Y99jd3YUlbofDAYscRCIxJycHhA16kZmZme3tbbD3i4uLc3NziURieXm5WCwGu4TNZpeWltLpdBaLlZ6eDmUpKChgMpk8Hi8hIaG4uJhKpd6+fVuhULS3t5eUlExMTABioVDI6XRq1YoFSQAAIABJREFUNJq0tLTCwkJoXxQKJTMzMy4ujkAgFBYWPn78uLKykkwmZ2RklJWVgRjDuIpIJGKxWFiyYjAYyJbf3t6uqalJS0tjs9mwctPR0VFRUaFQKFZXVxcWFlpaWoDIiEajFRQUUCiUoqKi2tpa5EWGFPd30GXlrCvxk5OThYUFuVxeX18vlUpVKlV3d7dSqayrq5PL5WKxGHxUUV2ur6/39vaKxeKGhobGxsaWlhadTjc+Pu5wOPx+/8DAgNlshqZYW1urVqsbGxvhIE2Px2M0Guvr65ubm5HXVHt7u0KhqKurq66uVqlUer2+vb1dLpfDVINSqUSe2sFg0O12t7W1SSQSqVRaV1fX3Nzc0dHR0NAgk8lUKlVPT09vb29ra6tAIOjs7FQoFDwer7Gxsfb0Gh4eBn+GYDC4sLCg0Wjq6urg3ebm5s3NTTA3AoHA+Pj44OCg2+222+0Gg4HFYgmFQpVKpdPpTCYTOKKEQqGlpaWhoaHp6Wm73Q7GuMvlWl5e7urqGh8fh/RVKpVEImlsbJycnGxra6uvr5dIJCKRSKVS9ff3q9VqpVIpl8uFQmFLS8vk5CS0k83NTblcnpycnJ2drVAopFLp4ODg2tqaSqUSn14CgaC3t3doaEgmky0vL0caSoeHhzabrb29va6uDjjLNBqNxWIZGRlZWVkJBoOjo6MDAwPDw8NSqVQsFsvlcpFIBH6W4BQ4NzcnFosbGxvBijSZTK2trVA7EomkoaFhaGhIr9fDBIjD4QC4pqentVqtQCCor69vamoaHBxE44P9/X2tVgtLoFVVVa2trdDtNTY2SiSSmpoag8HgcDig7H6/f2lpSSKR8Pn8hoaGtra25uZmhUKhUqnghO6RkRG1Wg1INjU1gQdRXV2dQCCQyWRdXV1w7mtjY6NUKm1paRkfH0ceILOzs2A1S6VSmUzW0dGxvLwMHp9KpbK+vr6/vx/NbKysrDx+/DgrK4vFYlVWVhoMBuBbnpychHl2g8EABHC1tbUtLS1ms3l2dralpUUoFDacXk1NTR0dHdXV1UKhUKlUNjc3Dw4Ojo2N1dbWws/a2trR0dHh4WGxWDw/P4+a2NHR0erqqlwur6urE4vFEolEoVDIZDKBQKA8vRoaGgYHB3U6nVQqFQgEfD4fBoUajaatrU2pVMpkssbGRoPBAAPoUCgUCARg7CiVSiE/k5OTfX19o6OjLpfL7XZPTU0ZjcaZmZnOzs6qqqra2lqoKaS7USCmxBEUZyUQCoVgb9jW1tbGxsbW1pbb7QYP5dXV1d3d3WcuT+/v70NMcCVG25dh4y+YtOC+Dd61wWAQXIPBN3l7exvcqw8ODvb3991u98bGBvhig8s5+JJ7PB6kCwAv8Gl1Op3gCev3+92nF7wbDAZ9Pt/GxgY4Gq+srKyvr4PLOexHRfoOnJE9Ho/X6wX/Wdhnj/6Df/Te3t7a2prdbodNd8gdG1rF/v4+xD84OACHZXC8Bd9hn8+3vr4O/rawJgwdw8bGxu7uLmwudbvd4IwPMEIZd3d329raSktLJRLJ5uYmtEOAdHNzc319HSIfHR2BE/rTjQrc6TY3N8EFHpAHQw8RjYF/vdvthkTAvxjyD5BGfgV54ns8noODA6juSE9wmHjd3NwEh+5AIBA5PgDfQRAYSCEcDvt8PofDMT8/v7m5CfoLFQSq1eVygc+7x+Ox2+1IFD0ez9ra2vz8PFoSdLlcaEPA4eEheDpHuf8DtrA/AKoARAv85dfX19fW1tDWSuik8/PzBQLB+Pg4eEyGw2GYaYGkAGRUXsg8yCdI797e3vb29ubmpsvlgszAi263e2tra2dnB2QGBB7CEAH+Q8bg3f39fRAYaDVQiSDDi4uL6+vre3t74P3t9Xr39vZ2d3e9Xi/kFm23Bu/+ra0tqHHY6AAMEODADi09EAhAnqOaXmTevmvhs26Jo326sHkElFcgEEB2QWSFISUIa4DQmNE+NBQTtFhkM0aPYLsQ4jU8PDyENCM3sEEcaBWwBwQ1b9i0FpmNyBfhK0jEEckiyifKBqJJeTrzkXFgWQloGiPvR+YH3Ye9KghPdB9R7EJTCQQCUc0jCigYDYAbPhQfNqocHx+jPSMAEeoyI78VDodhD0ikkkWUSdBn7+/vo94LHsEGehRGLR9SRlsx0YcgnUgcIKsoAviJQ85RIghPFAA0AIEoSpDIWoaSwuegp4nUpyBOkGdUoZF5g9xGRkD5hNqBzhi8qkE2XC6XSqUaHh5Gnj/wXXgRJAoaC9w5OTlBO2jQ9vf9/f3IUkDVRPaCACwiPEFiidJ8JsEL6kQR7QFUHKQWVXCUOKAEWhuMKoRn5CtQNc803Z5ua5EwfovDZ12JR0KP1ERk2wMpR1IVGR/qO0ryUPuMEl+IFqmwYC8ZigY/PR5PlABFSVhUBp73E/UESDWgXioywcjw85KC+8+TYNjdB+0f2gYakqMEEVsv5ArdR4HIbBweHm5tba2srMBpR4gwC1h7j46OwD4Fk/Po6CjyXQAfkU1Cu4WvIJxh/yRoB6gOZIghXR/1CspnZI1HGo+ALapc1H883f+hFEAeUPfwtAKK/Ogzw/BR1ENH4hAZRlos8iYkiO6gAJLSQCDgcDjQHmaIH1nAqCzBTkjIDDKAotrR8fExaHCQpSg5j8pSVPqRPyO7WCTnkRFQUtDxwMAIdfzwdSSlkak9nQhKCt6KBOp5kb99978xShysFdiIjBo81Aeqb6QjIAJSSSiA6g8ZNegOdAawER/GepGpwUbz9fV1m832AtIVpEmR3onKKnwO8oM2YUP+wVSMMo5eRoKRukGtzuPxIE4in8+3trY2OzsLX0EAgrhDPmFbNiIvRIYhAgdUGAAC6hXSgd388CKY4V6vd3Z2dmVlBe2Yj0QAGi26E1kv0AfAF1GFQkzIJNKnEAc6JwhHooTehVEUvIsMRmQmI4sPaefI9o80Avoo0o8IExQIBAJPd+2A1eHhIZqvQymAckevo9EevAJlAWRA56KYEICeLzK3KAICFt1BAei/0f57dB9I5U5OTpxOJ2IygFJDNwzV+szeDiUCgefFQXOVkSUFoQWZB1mFj6JeH1oo4BBZv5EfRdUUGYiM8B0Jf2OUONQHSPAzhRsigFCC5xNqz2BEv5hzHNpYIBCYmZkBJy30RWgbS0tLzc3NQqEQCINQg4lqTiBPqAGgphspT0g0QaegfMKm9siYkeOMqPuRP6GAkM7+/r7RaJyYmICdFHa7vb29nUqlwj6Rp/MDY16Y1oQUtre3R0ZGlpeX0axu5LeizGEwJKEg4XB4c3OTw+E0NjaivazoXTSLgu5EBhCekTdRGBBDnwZlhF6JxBPdRO9GddiBQMDr9SIDGUWLDCCUQLOg0RLEiazxo6OjlZWV7u7u5eVlyB4IAFLiaGsoqmU0EIn8IlJqkTeflnOUSGS0Z74bFQGWSeC8FKQoYRrd6/WurKwIhcLOzk6HwxH5dHp6enR0dHl5GXbqRxYcuiJ0B9KP+ij8PDo6cjqdAwMDTqcTARsVE3WW8HVQ7ugmCkSWFHCGRzElfkaPZ4usZqhUaLrI3ozcRQJtBoT++PjY5XKp1WqTyYTIuEOh0M7ODrRwqHgYPCKlD59zOp0dHR0KhWJgYADuwBwObDNpa2vr6+sDvyhoTjDViEQZTQLAsgwyACGpp00VaM+hUAjiQ9FQalAo1G4hJ0j7RM44I3xCodDe3h7snAQH5MXFRaPRqNFoYAUSqKmisEVTLjC+np+fb2ho0Gg0sKUFWehIMSFdAEu1sIIKpdva2lKr1cPDw+AUCModTa2AjR/ZkoPBIJBTAn0YqEs0KQ9TK1BrqLcA9YGUNXRCEBN6HTSPAWsniLgKDLq5uTm9Xm8ymdbX1yEnYCoiuYIJIlRZz5vEAwwPDg4WFhZkMhnqtOB1eAp5Q1k9PDzs7+9va2uLpPqK1NSoAwBtheoa/UTIRNYg0nHQmaFHIBWABuQKKLEiVSHocWA0HB4eRku+wAXU0tKiUCisVmtTU9PQ0FCkRYxMIlg0RlKKvo4CHo9nZGSERqONjY0BqpFFhmioCCCBaCYT3UeBSH2NbkIg8lEkkign39bAN4DF8PDwcHNzE7h+zGaz0+lcW1uz2WwdHR02m83tdh8dHS0sLAAVEXAemc1m2Pje1NQEu35sNptKpZqZmQEGZCAPMhqN4B4HPGo2m02pVII/uEqlWl1dBRIom822uroKG8l0Ot3a2hoyzXw+H2w9APeShYWFlZUV2MFvMpnMZvPIyAis4M/OzhqNRpPJhJhewMr2+/0Oh0Oj0eh0OvDGXVlZAQ24tbXlcDjAi2NycrKnp0ev1y8uLm5ubgKJ0sDAwMrKCkyYDAwMaLXaqampxcXFuro6o9Fot9t3dnbAd1Cn07lcrq2trfHx8dHRUXAm83q9SJ+enJx4vd6FhYWhoSGxWIzH48Visc1m293dBW4pm80GZQTWwI2Njfn5eYvFotFoTCbT3Nyc2+1eXl622Wxzc3MLCwuwpwZMuaGhIeD5Wlpa0mq1VqsVJnPdbvfY2FhLS8vMzIzT6VxeXgaPQKDBmp+fN5vNXV1dc3NzHo/H5XJNTEz09/ebzebNzU2Uc7fbPTk5OTIyAoRc4MWxtbVls9kMBsPg4KDdbnc6nXNzc5bTSyAQAPuKSqUC6q7h4eHe3t6RkZHt7e21tbXR0VGLxdLX12exWICncHV1dXh4uL+/f2JiYm9vb39/f3V1dWhoyGQyWa1Wi8UCpGaBQGBjY2Pg9FpdXQVaMfBqHR8fX1hYWFpaolAon3/+uVAoHB4edpxefX19w8PDMJWxtLRkNpuNRiNsJoIxBPiHjI2NAauX0+lE3TzU2tzcnNfrPTw8XD29VlZWFhcXgQrNaDSur6/7fD6kPff39zc2NoaHhwcHBwHYxcXFtra2iooKo9EIMdfX10dGRtra2mDj+8DAgEQiMRqNHo9nampqYGCgv7/fYrEAU+Py8nLv6RUp2KDZ3W736Ohod3c3n89/8OCBTqfb3Ny02WxGo3FoaMjhcECfFDmQArMG9dNRajpSWT/9KKbEz2gvdXJyAqSsN27c+P3vf3/r1q329nYgA/ntb3+bk5MDdg2NRrtz505cXNytW7fweDyDwXjllVd++MMffvjhhwqFAna3/+IXv8BgME1NTWazOTs7+9q1a5cuXXrw4AHsXdZqtWlpaW+//fZrr72WmZnJZrNLSkru3r17//79wsLCysrKu3fvvvbaa4mJiTqdDtkdMA4Fl1WHw1FdXS2VStva2lJTUyH9zz//3Gg0jo2NYbHYc+fOXbx4kUQizczMgHV2cnIyPz9fU1Pz/vvvX7p0qaCgYHR0VCgU6vX6cDis1Wqbm5uNRqNWq83KynrzzTfPnTsnEAh0Ol1JScmVK1euX79eVVVltVolEsm1a9f+53/+B4PBtLe3V1RUtLS06PX6urq669evv/fee/Hx8eDkjsFgHj16dPny5U8//VSr1cLiJNT9zMwMnU7/+OOP33nnnQ8++AA+1NzcfPPmzUuXLmVkZIyPj3s8HrCmp6amamtrHzx4cP78+fj4eD6fD9sjq6qqwuHwwMCAWCxua2srKSlJS0uLj4+/fPlyUlISmUx+6623njx5otFofD4f8AG8/vrrsAWpo6MjIyPj5s2bsPsJyvjuu+9SqdTe3l6z2ZySkvLuu+/+4Q9/aG1tRf52IyMjZWVl9+/fP3/+fFxcnFAotNlsg4ODOBzu2rVrjx49EovFBoMBavD69etvvfXWv/7rv/7DP/zD1atXS0tLm5qa7t+/f+nSpaSkJK1WC0y/n3322Ycffnj37t3e3t7x8XG1Wg3pp6Sk9Pb2jo6Ocrncy5cvv/XWW1lZWbBDdXh4eH5+nsVixcXF3bx5k8PhdHR0sFisjz766MqVK/fu3YPNO3Fxcd/73ve+//3v5+fn19TU4PH4Cxcu3LlzRyAQWCwWFot17ty53/zmN2w22263g5jt7+9PTU2lpqa+++677733XlVVld1uBwsAyC+pVOr8/Lzb7YbNE0KhsLi4OCUl5dKlS+fPnwdWYdS819bWxGLxxx9//MEHH+BwOJ1OV15e/t57773xxhv5+fmDg4Ow5/bu3bu//vWv33333czMzP7+fj6f39bWNjMzg8FgPvjgg3fffffmzZuNjY2wZ/XcuXPvvfdeUVGRzWZDBLa7u7tGo/HevXt/+tOf3n///Tt37rS3t/f19eXl5V29ejU+Pl4ikSDxQ/r3adX89B2I/Lz7KCnU1aGyf1sDZ90S93g8PT09ubm55eXlSqWyq6sLNoLDlvfS0lIymdzU1JSXl0ckEtva2ohEYklJSWVlZVxcXHZ2tkAggK2DFy9evHTp0rVr17KysqRSaWpqalFRkVgsTk5Orqys7O7uBloJoVCYnZ1dUlJCpVLz8vIKCgpqamqAoha0wHvvvVdaWop49JeWlthsdlNTE0wdVlRU1NTUNDc3JyQkUKlUkUiUkpICKr61tRWLxX7yySeXLl3q6elBOkij0eDx+MzMTA6H09XVZbVaKysrW1tbw+Fwa2urUCgUiUR4PJ5Op8POJpVKRafTPzy9Ll68+NFHH5WWlhYXFycmJrJYrN7e3snJSRaLVVNTU1dXh8PhRKdXYWFhdXU1nU5PT0/nnF6wmR6xgqytrbW0tGRmZvJ4PCaTmZGRwWKxiouLHz16FBcXd+7cubi4uMrKSrR31Gq1Aj2TRCIBxsGWlhYWi8VkMg8PD7VaLZfLlUgkQKkqlUoJBAIWiy0pKQG2ADKZXF1dnZqaevHixT/84Q+XL19OTU3l8XgpKSkkEqm5uZlKpQL1o0QiYbFYZDKZyWSmpKSkp6cLBAKbzYYm0wYGBuh0OolE4vF4sOOUxWIRCITz589fvXr1k08++eyzz6qqqshkMjDhlJWVPX78+Pbt21VVVSKR6O7du9evX7948eL58+dpNBqVSsVgMFVVVQwGg0KhiEQiPp+Pw+EuXLhw7ty5jz76CAgIKRQKk8mUSqUajaa7u5tEItXV1fH5/CtXrnzwwQcXLly4fPkyiUQqLCxMSkqSSqXATqNQKJ48eRIXF8dkMisrK3Nyct5+++0PP/zw6tWrn376KYFAyM7OTkpKqqmpsVqtiJIe9pGpVKqcnJyrV68+ePBArVbDlMje3t7w8DCBQJicnFxfXxcIBFKplM/nA50Zk8mkUqkMBgNtSdvc3ITWJBQK29vbdTodsAkxGIyqqiqgbZDL5UBfJZVKMzMzCwsL9Xo97/SSyWRUKrWysrKqqiopKamsrAyEs6qqCvgbGhsbkYQMDAwwGAwmkwnbpEE+qVTq+fPnr1y5cvny5evXr4PtD66NMJESua77TGUdqaOj9Dg8+rZq6heU66wvbG5vbzc0NNy9e1ev18MJA9XV1SwWq6mpye/3A8UE0C3V19fv7e0Bu2FVVRUGg1GpVFartbS0FNTQ48ePb9y4kZ6eDhv3pVLp8vIykUikUqlVVVUpKSk9PT2Li4v19fWg73Jzc7lcLpCFajQa2GL+zjvv5Ofnm0wm6OcXFxfLysrUarXNZrPb7QwGg8/nNzc3Z2ZmdnV1zc7OFhUVSSSSjo4OiUTCZrMfPnz4zjvvKJVKmFgHpqqysjIgrmpra+vt7S0tLVWpVOFwuLGxkcPhVFRUJCQkSCQS8Pfo6OhIT09/8803P/3009u3b1+5cgWoiwgEglgs7u/vHxwcBH4oDoeTk5NjtVoXFxerq6uBHCMrK0uj0QwNDbW3t+Px+P7+fhCO8fFxoVCYnp5usVjMZjP99Hr06NH777//2Wef3bhx4969e3Q6fX5+HuJbLBaAenl5ubu7G4vFKpVK6ukVCASg2dfW1sIO/snJSblcXl5ezuVyx8fHxWJx2un10UcfnT9//u7dux999NGjR4+ABkAuly8vL2OxWB6PB9NlkDEmkwldQn19/dDQECzbhsPh/v5+BoNRX18P00RJSUlAbPvGG2/cvn37888/v3PnDpvNJpPJRUVFdrtdr9dXVFSw2WyDwSAWi1999VUoXVxcHJVKJZFIOBwOqMyBIQCDwTx48ODSpUvXr1+/devW9evX79y5U1JSYjKZ4LSHgYEBAoEAbI6/+tWvrl279umnn4KdW3x62e32zs5OEomkVCqxp9fCwoJYLI6Pj//P//zP69ev371799NPPy0qKiIQCEQisampaXh4GGbtYK17fn6+ubmZQqE8ePDg6tWrIpEIZpO8Xu/w8DAWi7VarWtra0KhUCqVcjgcPB7f3Nzc29sL1onRaIRam56erq+vT0tLGxsb8/v9TqcT1L3VaoUzIp48eQIDWbVavbe3x+PxqFRqV1cXECMDdeXw8DDQfxIIBOB9tNlsExMTFAqFz+dDhwEkPBgMBtrUyMhIVlYWFotNSkr69a9/fevWrdu3b3/yySc6nQ783ME3KVJBf+HwC5Tdt/XRWVfiHo+nqakpPj5+YmICHNrAtATt097eTiAQcKcXkHs0NTVVVVUBYYVGo5mfn6dQKLdu3frkk08KCgpIJBKfz+/o6GAwGFqtFiixGAwGsG9bLJbt7e2WlhaZTMbhcIhEokKhGBkZmZmZATbBnJycTz75hEwmIyW+tLTEZDJbW1unpqZWV1dLSkoqKipaW1vpdPrU1JTX6+VyuRwOh0Qi3bx5s7i4OCcn59q1aw0NDWgnt9PpNBgMYCMDaXJhYWFDQ0MoFBKLxRUVFTAXhKhLWlpakpOTL126lJaWVlRURCKRuru7u7q6gDgXxhM0Go3D4fB4PBKJtLy87Ha7lUolDodLSUnB4/E2mw3OByCTyUD8FA6Hh4aGgCsGplMrKysZDEZCQsIHH3yQnZ1dUFAAFL7g4hIKhfr7+yUSiVgshklzoDmkUqnFxcU+n89sNovFYqlUWlRUVFNTs7GxodVqgQjB4XA0NzdnZ2enpaVBY8bhcMDtV1NTQ6fT9Xq91+sFNihYG2hoaMDhcBqNRiQSFRQUwOQDWkjs6+tjsVgtLS2Li4uTk5MZGRnx8fHXr1+/cOFCamoq0LlAD1peXn50dDQ6OioQCOrq6sAO/elPf/rgwQM8Hk8mk1taWng8HoFAWF1dnZubU6vVQGn92WefPXz4MCcnp7CwEEjQ0KAkEAgAZw4ej09NTf3973+fkJCQn58PPLFgwB4cHAwNDbFYrNbWViKRSCKRtra26uvrExMTz58/D9ThTCazp6dHpVLRaLSkpCQajabX60FTb2xsyGQyIFHJzs6+ffu2TCYDfeT3+0dGRjAYzODg4PLyslAolMlk5eXlGAymr69vaWnJarWSyWTgmwQCL5FIRCAQFhYWgI8Mh8MJBALYFSyXyxMSErKysvh8vsViCYfDEomkrKwMmIcxGExhYWFPT4/dbl9eXqacXhUVFXw+f21tzeFwAG3n0NAQWNZKpRKDwUxMTMBZRcCCm5iY+N5776WmphYXF7PZbMgGlAXM6i+su9GL31ZN/YJynXUlDrZqSkoKHOZQX18P7FEYDIbD4eTm5ubl5cnlcsSV2tjYWF1dDUtzBAKBwWBwOJz09PT4+HhQeRwOR6lUEgiEzs7Oo6MjoVBYWVkJGpBMJlOp1ISEBAqFAqRrMplsZGRkenoa7DscDvfJJ5+QSCTku7K6ugojyqKiIiaT+ejRo9LSUjgJyGq1ut1uoFQtKCi4ePFiYWFhVlbWlStXlEolIoaenJyUSCREIvHRo0epqal1dXVJSUkpKSmVlZX37t3LyckBOxTIS4GFEQj8MBgM+fRCR0w8fPjwyZMnOBwOj8fDnMmTJ09KSkooFAqQUpWVlREIhKmpKVDipaWlg4ODIBwOh0OhUNy7dw8mZx4+fMhkMkGF5efn4/F4JpPZ3d0NWjUYDMKEO4wPNBpNQUGBTqcrLS1NTEwUiUTAACUWi+Hog83Nza6uLrFYrFQq4UMYDIbP5+fl5SUlJRGJRGDuFQqFcCZDMBisra0tKirC4/FQ3cD6C7xgV65cYbPZ0KmDJV5cXJydnU2j0YDRicFgkMnkuLg4OAKCyWTK5fKKigoGgxEIBCYnJzkcTnx8PJVKpdFo169fhyM1KBRKa2srKPGVlRVgGiEQCDArkpiYiMfjy8vLa2triUQi8N/y+XyVSgWUilVVVRwOJy4uLiMjg0AgkMlkINFms9lw4AMQfFOp1KysLBqNRqfTc3Nzr127BiTglZWVzc3N9fX1xcXFn332WX5+vlqtBiVut9srKiqSk5OTkpLwePzDhw8bGhrAlyYYDE5MTKSnpxcXFxOJRDjyicfjYbFYoGwcGxsrKirSaDQwcHQ4HGq1GqRCJBLJ5XIYfIAdA/RVcAwFBoOpq6tLTEzMyMhoa2sDSQM2RGA3u3//PlC2PXz4EDiQExMTJRIJ6OWTkxO9Xg/k6VQqlUwmJyQkMJlMBoNx586dwsJCGo3GZDLn5+eRR9bzlDjypUFq+sWBFyi7b+ujb4ASX15eBqWMxWIZDAYQHuHx+OzsbBKJJBaLYWWvr68PyI7VarVOpwPNjsPhOjs7a2trS0pKgHO1oaFBr9cLBIKBgYGTk5PW1la1Wt3V1QUTDhgMJisrCw7l4fP5Wq12cXFxY2MDiAlLSkoKCgrEYjGaE4eTU/B4PLRMAoEglUrhyIXJycnNzU2pVNrQ0MDn83NyckpLS0kkUk5OjlarBSblcDi8sLCgUCgwGExmZiaTyRwdHWWz2TAdn5GRUVFRodFo5HJ5SUlJVlYWgUAAOi0Y9cOkrU6nU6vVdDodjhASi8VVVVVtbW09PT1CoRB6DhwOZzAYuru7q6qqlpaWwElALBZPTU2BZPv9/uHh4eLi4sLCwvzTq6GhQa1Wi8Xi0tJSIpHI4XDGx8dhJjoYDA4MDLS0tHR3d+/s7PT394NWbWpqKi4uxuPxWCwW+P8qKiqRPeHKAAAgAElEQVSamppcLldvb29bWxsUvKurq6KiAnwegDJbIBC0tra2tbUJBAIw5cbGxrhcbkZGRm5uLlBR6/V6Eon06NGj5OTktrY2dDQXHCXx+PHjzMxMCoUiFosHBwdhcEMikeA8EJ1Op1QqpVLp4eGhy+Xq6upKT0+n0WgikaimpoZCoQBXpcFgUKvVQqEQjjQDavW2tjYwyclkMiz2wtE/WVlZ2dnZ1dXVra2tFRUVer3ebDaXlZWBrcDlcuGL9fX1Ozs7MPtkMBgUCgWdTk9LS4NFSICrrKxMLpfDIRKFhYWwPDAyMgJKfHt7u7u7Ozc3NyMjA2bqe3p6kK+hw+HgcrmFhYU5OTnZ2dnAXcXhcEZHR4ESGaYEYY304OBgZmYG1DSwALa3t4tEIiATLi8v7+zsHBkZ4XA4cORTZmYmnU7v7++HM7uNRiORSMzPz8/Ly7t+/Xp1dbVGoyGTyTk5OUA8OzAwgBZ75ufnZTJZTk4OHCRUUFDQ2dlpNBoZDAYej6dQKDKZDLmlo9ntpxV0TIn/xb7nG6DEQ6HQ1taWQCBgMpkKhWJ9fX1+fr67u5vJZBoMhrW1NTjgcWFh4eTkZGpqanx8fGlpyel0tre3CwSCpaWlhYUFrVZbXFwMLHerq6ujo6NgC8+dXg6HY2lpCTjeOjs7TSYTOJAtLi6CF/PExIRara6rq+vq6rLZbC6XC3xdj4+P9/b2ZDJZdXV1R0cH8HcDj7nD4XC73RaLZXx8fGxsTK/XKxSKhoaGzs7O2dlZxBu1t7c3MDAAx6zA5Mb09LRara6uroYjHcCn2Gg0At0osOaazWYWiwWqcGNjw2q1isVikUhkNpvX19fhfMXd3d2dnR2FQsHn83U6nc/ng6kbOFjZbrfDGZVoEd/j8QB9YH19fWdn59jYGPjAKZVKHo8nl8vRJu9gMDg/P2+1WmdnZ30+39zcnE6nA/4svV7PZDLFYjGcgqjVakdGRnZ3d6enpycmJubn5z0eDxDU7e7uTk1NyWSytLS05ubmycnJubm5iYkJMPZPTk6sViscLT04OAjcVXw+H6ZZUBcIE0EwwqBSqXK5fHt7++TkxO/3T09PA8fe4ODg4uKizWYbHR0FtQjEI83NzQMDA263W6FQlJeX19TUTJ9eQJq4sbEBZzzCp1UqFZzzMDs7u7e3Nz09Dat8LS0tU1NTfX19TqfT5/NNTk4KBAI4oAcOroTTSMBzcXl5eXZ2Vq/Xl5WVWa1Wp9M5NDRUXV1dV1c3ODi4vr6u0+mYTCaXy4XDmpGV6vf7gYO7sbGxu7t7bm4OebUDMaRcLq+trdVqtdPT0+BbCZxcW1tbRqNxbm4u8jhsu90OwBqNxu3t7YmJCaFQyOfzBwYGoJMeHx+Xy+UwZu3v719cXLRYLLOzs+vr61wuF6YWExISgDof2Myhj0caHGY+V1ZWgHxUrVarVCpgZrdYLLBMPTIysre3BzukvrwSR7r+L6q8b1+Es+6dAoiHQqGNjQ04fx22nAAzH0gAbGSA9gncHfv7+7A/0OPxwDHKwWBwZ2cH2NTAyxspL9j1Ay0fNqzD5vvt7W20nXr39IKpQ3C5BZMBNrPAiivQNgFlB0ocvKq9Xi+k6fP5EFPEyckJ7KPx+/3g4Qvn18D+F1jGhK8Aqd7W1hYw50HRNjc3gfINturA130+HzpOHjkwABcg/EROHbATBLbtILEG6sGdnZ3t7W3IG+yU2T+9IBr48KLCBoNB2HcOUHi9XuBlhIMUvF6v3++P2uMDMSOpE3d3d4G1A/7Dh2An0e7uLiAWDAYdDsfq6iqQUiGELRYLj8dra2sDVYXeDQaD3tML+YNGcnv5fL6dnR2ggfV6vUCNCYVFxNlHR0eBQABopFwuF5D/gTaEvUUbGxs7OzvAzwedOpz5u7W1BXx+Xq93d3cXkIQdTwcHB0CCCNvZd3d39/b2EEqBQGB7exsOjAeCF5DqcDi8tbW1ubkJG2uRBoc6BYEBwgagGYjc0gWkgJH7dEB+0H402MIKTQaxykBOoDkcHBwA/eH4+Hh2dvbHH398+/ZtLpc7PT19dHTk8Xh2dnY8Hg+0C1DHSKJ8Ph+QcYInOzBWbmxsuFyuQCCACoJcxaMscZRO1P2n48eUOMLqWxJALfzpjeygQaLKGRk/8hHaaxe5FzkyQlQY6Vx0P1La0E0IgBpFn4DmFxUHxYy8H5VblALIMWKhi3zleeFICqrIOJFpRt6HT4BGiGqukdFQqaGDiTQDo1KGUkOJoh5FJghhtL02EufV1VU4CR71T0+/+Mw7kWwtz4wAN5H6eDoOKiaKGRUHhA1NfUQ9he4w6mbkT+hCAJa/CE7ki5Fh9CLkNkp4EJMBvHJ8fIyIw1DBQUj29/ftdrtKpQLCcZvNBnY36mZQjxLFqwX3wbEd0T1C4qhrQZY4BGDzHco55A2hHVWEyMJ+N8NnfToFai6qbl6+Fk9OTtDuA0jk+PjY5/MhyUNiFGWeR30RzH8UGX6CIKL9xyB/oLbA+IIwtAG4gxokJIV2fsLn4CnaBQ6mDUj/0wKNXoncfw9kdWDvIzMHqJ+fLtHTdyCrkZmMLDKKj/CHT0flLbIxAwMUbA0FKy8QCID5jzZYI6Yq6CkRdThoQFQKyBsgBlBDNoCHGuQkUi+jKkbZjgwgkxOVBT2FakWleLp0KCaIAWQpUhuiFGDjIlJqMCJBYzWIhv5HJgthGFRFWrhI2T2d7ajXEfMXwiGqKUEEVIPAzQsDBRiywB2gjoDBLtjsUQ0KvgulgDqCQQkSexjfgPzDqBcRIUDbiRrawroFOHdFFgoqGgh1I+9Hhf8iMlHxvwU/z6gSR5IdDAbX19cHBwd3d3ejFAqqrUhD72WqBL0IX4FXQLAgbLfbp6enEe8KShOUMgg00NsDrT7MV4DswozE9vY2EH6CTeH3+6EJwWwPWJRISUF+4EWI4Ha74ciI3d1dmA2IstNhKsZ/eoG6QZMGMAmAmu7x8fHKykpXVxfM76OyPDMQ2amA/o2cgoBXEHowypmYmFhaWkJfj0wWUosEFp4uLS0NDAzAcbdw5/9n782f2syy+/+/Jz9NpSqpqVQqqckklapJ9WSc7pnpabfd7W633W7jDWOwWY1YhSQEaJfQviOhBYQQSICEAEmIRUKIfV8EQoAAse+fKt71vaWyM53OzCQfd3++9wfq4dGz3Ocu59577jmvQ8ahq6urWCw2NDREAmukvxRCEIoakrF3FjTkeqLBJ3nb3d0dGBhYXV3FNUQEp38R+QmlCgYhTqZnMv0yFPg7jZC8lFwJleDk5CSIkngpWgVp2IeHh4lEAngDDGZEjqMYIVJJTtJHDvIi5BzVh9UJQZGQa9CScZ6chNhN/2RcRpo9xjMAYchd6Qf4nPTyBK2FTPDPz88RboJghdLHYzxqe3sbli3j4+Pk4QAgRyKRhYWFvb09FBEpw/Q3fv+gSx74Uzr4QIU4KeKLi4vR0VG5XE6CBZOf0g/SazH9/A8/JlLv+vq6r6+vpaVlenoaJwkeFvNcsIF8Ph/Cttnt9tbW1qGhIahHe3t7+Xx+R0cHwoQPDQ2p1Wqr1QqwRjgcdrlc2NVEnk9PTxcWFhDUze/3n5+fr66u9vb2KhQKGIEhihVGjvTP2d3djcfj2AZMP4+Ze/qZsbEx4IfgWEFERvo1OCbTXvLT+10iXQmwu7vb0NDg8XgIoprcCBFJFhPp5/v7+2GFQqC+RCpdXV2FQiG5XA4P2Pe/DtyShYWFaDQaDAZHR0fTNznJW4DTQgmTT1hbW5PL5QA5kSu//wBbGn9MH4J79/f3+/r6FhYW3hfc6Q+HiXpzc3N7ezu5ksyOz8/PwZlSKpUNDQ3t7e0DAwOA+m5tbUHkvYM/fF/Fh6rBV+/s7CBuVHoefsgxgRj/kIvJkpTMJNL70ftNEQM/GYreb2/X19dbW1uDg4MNDQ3ElwJ78mNjY1qttru7e3l5eWVlBQQIZPL9BTds1X/gJ/zYL/vQhfjV1ZXf76dQKN3d3bOzs/F4HLuLoD7FYjEYiuzs7GxubiaTyf39/YO0hJ2lzZsE0Xl5ebm9vQ16ciqVItIf7QCgJZlMxuVyh4eHDw4OAGlaWlrCpBhTm1QqZTAYKBRKaWmp2WxubGz0+Xybm5vxeFwikdy9e5fFYk1PT+/v75vN5idPniDY/OjoaFNTU3V1NfE2BDI3EAh8++23L1++1Ol019fXiIQpEAhg78zhcBYXF7HvlN7agKBaWlpK3qR4PA57GJC+EQFubW1tY2PD6/Xm5+cHg0GE3ULMuWQyub29jbhcmA1hLwvzSsQqw0v39/cRD29rawvAwqOjo52dHUCgysrKTCYT9gm3bhKi1kF0kiV5MpkECOzi4sLpdFZXV6fbWZ6enu7s7MRisdnZ2cbGRgqF0tfXNzExsbCwcHp6iihxyANsk8LhsN1u5/P59fX1gUAAFb65ubm6ugreE1ZFZPWTSqUwNBYWFnZ2dp6enqZSqXg8vrGxgW1MUrDAQKIt7e3t7ezszM/PT09Pb25uInIbdhER2wybrktLS1VVVVarFYYraGy7u7uHh4copYWFBZz0er0AM7wjxK+urlKplFKpZDKZbDYbxAKn0zk4OBiNRldWVjDIQReRSqWw+RmPx7FhHo/HsRbE2g4lD4j83Nwcqvjo6AhBB9GAsbkKKY+swpYJwC+E2cNiCEL54OAA8RFR1Ds7O+hBmLhgQXB6eoodfgwD2O7GKIgMowGkz8EPDw+xL4qtYOjZgIrr7Ozc3t6+vLxMpVJgZjU3N1dWVloslpmbtLm5ifCEcDVaW1sDtBJdGLvQpFp/2gcfuhCHNwfCkNfW1goEgnA4PDMzEwgE4Keg1+uXlpb8fn9zc7NKpWppaWlPS3a73WAwCIVCkUhkt9vhxGEwGAQCAWx+yWTw4uIC/h08Hi8jI6OoqCgQCMzNzXV3d/N4PJ1OR1Q6oHc2NTXBHBsNEWYDIyMjIpHo+fPnhYWFPp8vkUhYrdbMzMzvvvtOKpV6vV6z2VxWVkZ87mF24vf7v/nmmydPniiVSthmYU8/Fos1NjYWFhYGAoF0uY8WGYvFxsfHp6amENRYpVKx2Wyr1QpX9UAgoFKpampqYEwG4/Th4eHe3t7d3d2NjY1IJOLxePx+/8zMDAB40Wh0aGgoHA53dnbKZDKpVOrz+dbW1txut16vFwqFXC4XMZq3trbMZjOTyaRQKE+ePGlsbEwmk3a7XS6XKxSKjo6OpaUlMsmC7U1LS4tEIlEqlaurq/AA7OnpIZPo/f394eFhkUgEK+n8/PzBwcGpqanJycnNzU2Xy8XlclksltFo9Pl8i4uLwIQ9ffr0q6++4vP54XDY7/drtVrQPMbGxg4ODqArOzs7SyaTsEx/+/btN99809raur293d3dzefz2Wx2Z2dnPB4nzPHDw0PYdMvlcrPZPDExYbfbBQJBTU2NxWIBkzIQCDQ2NorFYr1e39/f7/F4Pvroo4cPH7LZbKfTiejbzc3NoVDI7XaLRCIGgwHvAbfbLZPJGhoaSOFgmDk+Pl5YWICDAqafR0dHS0tLsE9dXV2FXEaY5vb2drlcLhaLAYb0+/1cLlcgELhcrvRd4sXFxbGxsXA47Ha7W1pajEajTCbr6urCisHtdkskEvgc2Wy2SCRit9tNJpPD4Zibm+vs7JTL5Vwu1263T05OHh4eOhwOuK319/cPDAy0tbWJRCLU9cbGBvTdqVRqeXl5cnJyYmIChqe9vb2rq6s+n0+r1fJ4PFhewlwHbXh7e3toaAh4nMbGRqDiGhsb+Xy+RCKZn59PpVILCwsajaaqqgrW6C0tLTAajsfjY2NjYrEYPkd+v39vby8SiQiFQmA5ZmZmftqym3zdBy3EMU3u7e2FVxhc2LlcbmdnZyQS0ev1dXV1tbW16L3V1dUcDicYDJrN5sLCQolE0t3dHYlEnE6n0Wjk8/l5eXkmk0mtVmdmZsrlcqfTOTQ0BAL15eUlbFpra2ubmppKSkqoVGpHR4dMJgPEh8FgKBQKv9+PLGGK/ezZs88//zw7Oxucls3NTavVqlKplEolnU7v6uqanp62Wq1CoZBOp5eXl1ssFpVKVVJSMjk5iaUDprqxWAxedhqNBhUDk20ajUahUJRKZTweRzfGX1wTiUTa29vhacLj8eAoz+FwpFIpIoLz+Xyn09nV1QVWTEdHR0tLi0AgSCQSMzMzzc3N6Fo6nS6VSnk8Hlgd1NfXi8VieAlJpVKbzQbPHXjr6XS6lpYWg8HA5/MFAoFSqczJyeFyuV1dXbW1tXK5vKGhgUKhOJ1OaEIuLy/HxsZEIpFYLK6rq6uqqoLPLZ/Px9oF3+Lz+WQyGZ7AZDLz8vKsVmtra6vlJslkMrFYjJJUKBR9fX0NDQ1sNrusrKy0tBQsJzqdLpVK4bfS1NRE/LnX1tba29sFAgGGkOzsbK1W6/V6mUwm7yaVl5cHAoFkMomyHR4eZrPZSqXSbrd3dnaaTKba2lomkwnumFKpDAaDFRUVNBpNp9NxOBydTqfVar/88suSkpKGhobOzs7q6moWi+X1eg0Gg0gk4nA4CoWCx+Ox2Wy73S6TyRobG9N1DtBE7+zsyOXympoasVjc2toaiUQmJiZsNpvT6YxGo2h1S0tLuEapVLrdbqAi6+rq6uvrqVQql8vt7+/HYH91dRUMBh0Oh9lsrqur4/P5KpVKq9XCL9/v94MeY7PZSkpKRCKRx+PBEOLz+VwuV319fU1NjUqlQinZ7faqqioOh+NyucLh8NDQkNvttlgscNT0er0g119cXAwNDbW2tra3t+/u7uItg4ODQH01NDRwuVy5XA7zcGz5DgwMyOVyGo1mtVrB8a+oqBCLxQqFAn5tLS0tOp1OIpEIhUIOh1NeXo6e29raajQaVSoV2FtCoZDNZjc1NWk0mpqaGp1Ox+PxhELh2tra96vCiBz8UR98uEIck5SLiwu32/3s2TODwdDd3d3W1lZQUABXMeKoVlFRUVhYCArE6upqc3NzRkaG0WiMRqMzMzOYitLp9M8++wyziQcPHtTV1Vmt1qGhIaiJj46OvF4vGuX09LRcLq+rqzMYDK9evXrz5g2Hw6moqOByuZjsADphNBqfPn16+/btV69eFRUVAdvEYDBYLJZery8pKdHpdD09PY03SaVSMRgMPp9fU1NTVlYWDAaHh4fdbvfk5OTBwcHh4aHH4+FyuXq9Ho3p6OgoEolAiKvVanSSd9oZ6CUNDQ0VFRVsNrv5JnG53OLiYogno9G4trY2Pz/f1tb29u1bp9PZ0NBQVlaWSCTGxsZUKpVCoUAvDYfDCoWCxWIBTfX27VuFQlFaWlpXVyeTybKzs+VyeVdXl1Qq5fF4IMBgFubz+SorK6uqqqRSaV1dXUdHh8/ny8nJ0Wq1s7OzWLK4XK5vv/0W/uuVlZUCgQBiBeodKOg1Gg2mq319fTqdDvgOuVzOYrEqKipkMllHR8fY2Fh9fT2LxcI0kMPhoLfjw3Nzc+H0SKfTgcZGcY2OjmJgc7lcfr+fSqWCIJiRkQG4QlZWVmdnZyKRgD7Nbrfn5eU5nc7p6eloNMrlcul0ukajWV5ehmhrbGx88eJFbW0t/FQhDZ8/f65UKjFLraioYLFYwNLW1tZiDi4Wi3NychoaGiQSicViIUo8qJKhwA2HwyaTicvlcjgco9EICpDFYgmFQviWhYWF+vr6goICNpvtcDg8Hg+DwXjx4gXIBAwGo62tjSxuMHjL5fLCwkIej9fS0tLR0VFfX19dXS2RSHg8ntVqnZqaKisrQ5E+efIE7k4ikYhCoYDfWV5eDthnYWEhlUptbm4OBoNwf9VqtcXFxXA9JQyJ7u5utVptMBiSyaTb7aZSqV1dXVixjY6O6vV6sVjscrlAoD0/PzebzeBBAqHV1NT0+PFjTMmlUmltbS0YEmRAZTAYAoFAp9NJpVK4ffb09MDdOi8vr6ysjMvlms3mcDgsFApzc3NDoRDZ336n+/yU/v1whTgxD3A6nS9fvkR9LCwslJaWUqnU2traZzcpJyenpKTk7du3IpFoYGDg/Pzc6/UWFxcvLi5ub2/39/e/fPkyNzc3Ozv7448/1mq1LS0tVCr18ePH8ANGHSeTSaA429vbr6+v4Q7K4XDu3bv36NEjaCqNRuPQ0BAGdmzoSaVSp9N5cnKSSqUQmuDxTSotLf3mm2/Ky8sxK9fr9WazuampqbCwMDMzs7Ky0uPx6PX6srKy5ubm1dXVg4MDr9crEAiMRiNpWxcXF5ubmyaTqaioaGJigmhRyQVYc4C7YjAYlm6SxWJ5e5O0Wi3Z3B8YGHjz5o3T6TSZTFVVVclkcnx8XKPRmM1mq9Wq1+vhLM7j8ZxOZ0ZGxuPHjwF3hUqhuroas2a/3y8UCvPz81+8eIHZaywWAzOvtrbW4XAkEond3V2hUKjVasPhMJRFRqPx1q1b8IkXCoU2m00kErFYrOHh4e3tbcTNwagDFa3L5SorK1MqlcC3guW7vb19cnLS2NgoEAicTqdWq8Wub3Nzs9PpdDgctbW1kUhkf3+/ra0NPRlDiNfrLSsrGxgY2NraisVifD6fRqOB6VpcXMxisahUqt/vh1YNBV5eXg591+bmZl1dnVarjUaj19fXnZ2doH+UlpY6nc6jo6OWlha1Wi0Sid68edPV1ZVIJGZnZyGmLy4uhEKhRCKZnJy8vLxsbW0F9FgkEjU3N2PHj9QpsZI6ODgYHx83GAxUKrWoqEggENhsNlKPe3t74XC4pKQkMzMTvNzc3NxvvvmGzWbX1NTIZLKhoSHiCdzZ2Wk0GtHMzGbz9PT03NycWq0uLi4GZ21qaur4+BhEYqfTSaFQvF7vxsZGYWHhy5cv3759KxaLhUKhxWKJRqN1dXVZWVk5OTnNzc06nQ7U3IyMjBcvXkgkEmLw09nZqVAoAArHGIPlLDZ7hoeHwc+BEL+6uhLeJDgq7+3t9fb2FhcXj4+Pn5+fR6NRGo2G0C7r6+vJZLKnp4fFYonFYoDh0OUvLi5WVlYcDsfbt28zMzOVSiUe3t7eXlRU5PF40lWXpO/8xA4+aCGONVdHR8fjx4/tdrvf77fb7RQKBayo+vp6kKahLBOJRH6//+joyO12Q/BNT08D7V1fXw+Kv1AobG1thR95ZWVlWVkZVJCpVMrhcDCZTJFItLe3p1AoqqqqoHgpLS3FRKCvry8ajcIMY2trC7N1k8kEp7vp6emmpqbc3FwOh4M4KRUVFRQKhcVi6XQ6r9e7tLSUk5Pz+9//PicnZ3x8PJFILC0tbWxswPq1vb0dk/39/f21tbW5ubmJiYlQKCSRSHJzc6enp+fn56PRKK5HE+zr69NqtdDPaDSaxZtkMBjy8/OBbNXpdPPz82NjY1arNS8vr6Ojo6GhobCwMBKJWK1WCoWiUqmANPnqq68qKyubmprC4XBRURGQgQ6Hw+Vytba2YrRbXV3t6emByMZmptvtdjqdpaWlVVVVSqWSy+V2d3cPDg6+fv2aRCI9Pj5ub29/+PBhfX19a2trd3d3IBBQq9VsNntgYAAj6Pn5uVgsZjAYHo+nr68P/HexWCyRSGpra0tKSjQaDQqfzWZXVVXZbDaFQiGTydRqNY/Hwxj5+vVrm802PDxMo9FEIpHP50Mp4UxDQ4PX63W73dnZ2cCkPH78WKVSeTwehB/b3t6+uLjY29uz2WwAqI6Njfn9fhqNhqno1taWQCAAWJhCoYCE3N7ertfr6+vrX79+rVQqvTeJzWZbLJbr62uFQlFTU2M0GkdGRmQy2cuXL8FqV6vVc3Nz4XAYixUYeOzv72N9Nj4+jmAaBQUFtbW1uB3fsrm52dvbazab6XQ6cIPPnz/Pzc3tuEkej4dMPC8uLjo6OgwGg1arLS8vb25uXlhYWFxcVKlUFAqFRqNh6TY5OVlSUgLyV2FhYUdHRzweZ7FYb9++5XK5Y2Nj3d3dXV1d/f392NKorKykUChZWVkgs9fV1VEolHQh7vF4wE3r7+9XKBS5ubl9fX0ymUwkEp2fn/t8Po1Go9PpiGC1Wq0sFksoFGI/xmg0Zmdnu1yukZERiURSU1NDoVAKCgp6enqgWC8tLYUKSyKRlJeXs1iskZERREHJy8srLS3l8/k2m21yclIkEr1+/Rra+Z+YyH7/cz50IX51dRUIBIqKikQikUwmk0gkWq0WslsoFNbX14tEIsFNwkx5f3/f7/ez2eyJiYnp6WmXy1VQUCAWi1Uq1evXr3U6nd1u12q1WKxxOByM2ycnJ5OTk1A4ut1u6FWwGyYUChsaGiwWS1dXF8KnXV9fA7jBYDDYbLbX6+3t7bXb7VKpVCAQuN1uRPNSqVQ0Gg1Rg4HCEAgEr169qqqqIjMXrDbW1tZUKlVhYWFNTc3i4iK2HDGNAmFxdXXV6/VqtVqwSoh4st0kkUjU1tYWv0kul0soFNrt9vr6+rq6OqPRaLVadTodl8sNBoNtbW0QSXw+H1zA2dnZgYGBO3fuiEQiBAkDJdxkMun1eofD4Xa7ORyO3+/f3NwcHh5uaWlpaGiwWq1SqRRDI4PBALUDuhedTldWVtbZ2YmChV0dh8ORSCQ6nc5ms/X19TU1NQH/DZe/y8tLoHSlUqlOp8NOILi1jY2NUH0qFAqw46lUqsfjwcrG4XBAiYxVOYI8lJeXt7a2IvbN9fX18vKy2WwGeA8YMq1Wi8BjWGc0NDQgCh0MaQYHB4VCoUwm02q1BoMByxSoI1gslkwm6+/vF4lEbrf78PDQ5/O1tbWZzWYOh8PlchUKRUtLi0Kh8Hg819fXQN2yWCyVSoVtYWhyzWZzJBLp6uoC6gttYHd3t7m5Wa/XY9tGeZPUajUox6jxRCLhdDp1Oh2DwUDUDrwXTGCbzUbGxcvLSwzPiNTR1dW1traWSCRsNhtCjmCXArvusBTicDg+n8hBfk0AACAASURBVG93dxexfjgcjtvtttvtCBFlNptRL3w+v7KysqSkpLGxUSQSYfMTOpyrq6toNIptCZ1Ox2azqVRqJBJpamoyGAxg9kL3RfZLIpGIWq2Gptt6k/h8vk6n02g0VCrVZDKZzWZEOMG+ApPJ1Gg0bW1tzc3NCoWivr5er9djdVVWVmY2m3U6XV1dnV6vh048kUiQPeT3Zd9P5syHLsQRoViv19fU1GDzan5+fmFhwev1MhgMLpfb0NDQ09NDIj0i6GVbW9v8/Dz2ryHlYRUQCARcLld1dTWTydTpdMPDw2SL6ezsrK+vTyKRsNlskUiEgJwjIyM2mw2BfqxW68TEBHhY+/v74XBYJBJh04/NZgsEArVa3d3dDf0ghFdLS0tnZ2cwGFxaWgLN2XGTwEiBYvTk5GRqaorH41VVVSEMQigUQmibmpoas9k8NTW1s7NjNBqpVOr8/DyU+NfX14uLi6FQKBqN+ny+yclJOP7MzMzAYt3r9QqFwqqqKrlc3tLS4vV6V1ZWxsbGGhsb6+rquFxuY2PjyMgItEDZ2dlOpxOa96mpKYvFgugE4IW1tbXBnWd5eXl8fHxycjIWi2EHqb6+3mq1RqPR9fV1bDZC3hElKQw6Q6EQ5to8Hq+zs9Pn8w0NDS0vL5PgNZubm1gsSyQSs9ns9XpHRkYiN2l+ft5oNIJGnZOTw+PxZmdnYSE+Ozsrk8mAHvP5fCqVqra2Vq1WLywskP55enq6vLysUCjq6upEIpHRaBwbG1tdXW1tbcWckc/nT05OEi9EABf5fD7Q87Ozs52dnRKJhEqlGgyGoaGhjY0NmD8eHh5OT0+Pjo6GQiHMN3k8Xnt7u9frReiMZDIJpwFs5w4PD09OTg4NDQWDwZmZGa/XC40TsopgdVwut6ysjMlkejye+fl5mBjG43Fcs7Oz09HRQTRdExMTo6Oj7e3tQCGKxeLBwUGCoJqZmYlGo2NjYy6Xa3R0FC42oVAIuiOr1VpXV0ej0b777jtMuhHLFEaKbreby+UCjt/U1NTf3y+VSqurq/l8PsKcYv0hlUqbm5tnZmaAoLm+vt7b20NUE4FAAI7jysoKYpZeXFwsLS2FQiGi87m8vDw+Pg4EAmw2m0KhaLXaYDAYjUZ1Oh0U5WAmB4NBqVTKZrPFYnFTU5Pf7x8fH49Go319fUajsaKioqioqLS0VCAQLC0tDQwMAHRuMplGR0eJwoq0h5/kwY9AiB8fH29ubsIadGNjAzHv9/b2YrHY+vr61tZWKpUCRQgOzcfHxzs7O3AVOzo62tjYgEXw1tYWzMbXbhLoUZCkUEqmUilgtuLxeDKZPD4+Pjw8RPDctbW17e1tGJPApeLw8DAej8MweX19HX43e3t7aDfAaSGoLgH9HB8f7+3t7e7uvjM7ODk5wXs3Nzfh9wxHHmRjb29vZWWlpaVFr9fjRswZ8S27u7vb29v7+/vYITw9PYXh8+Hh4dbWFp5A+EpnZ2d7e3tbW1vb29tge8Xj8b6+PhaLRRSvuAaIIrjG7e7uYqgDBgvWuDs7O4lEYmNjA4+CQzZQR8TyGqUKB/dkMhmPx4Ew29/fJ85BKH+8dG1tLR6PQ9zAU3F/f396etpoNFZWVgLE2tPTA3NpuO9v3ySYGKGy4Nmb3levrq5QSiBewWUGRKeNm0RoIVDf7e/vozq2trZgUY7ml0wmYQENpBSMQZENPC2RSMCbFMWFzZLd3V1YNIOThQZwcHAA62yST5iKg5gIICJ8d9MdQREWOZFIxONx5A2vQMECjkYeCG4XzLTJEIWuND8/r9fr6XR6WVlZSUmJ3W5HfkjFgWKWSCTQtEiTQGhjQKzIh6S7IJ2fn+Pera0t8ONQ+9hJwjGpemQVWVpfX0f/ArYsmUzu7OygGAGNAKHs4OAAjiCXl5eAXFZVVRUVFdXU1CDW7t7eHjo7WhEpjZ/2wYcuxMmez4dQDekecd+Tn79snhFicXx8fHR0FCKPuEGf3iRi44wskbXF9+SQ/LSzszM9Pd3b20usGshP7xzA0f+/9XDkljwHpQc3HHISygQi7okNJbkXqqTGxsaGhoa+vj7ixZf+hA/zOF26IYfE4Op7nGb/p7/l4uJiY2PD4/HAbgo8hj//paS+/vxH/cAnbGxsBINBk8lkNBq7urpWVlb+uwS0H/iiD/+yDx1F+5cViH9+ffyX3Q8ZRncluCIim/60DJC5J8H4EfMG+F6TUiLQ1/RX/7FjDAbEsw70KMLoeEdeg/1LWE4YPyCC/9OPSu/VxG8THwL/QzL2pEtwklWyWEmlUktLS9jaBSCXIHzxXti3YIRIz3N6BkilkIIig8d/mvm/yMn04QrtIT0bf5FX/GkPuby8XF1dRZFiEfMnPCf9W1Br6QUO43eCBvv+A9yORkIa2H+ZpbOzs+3t7cnJycXFxf8X7Ai/p0A+dCH+PVn/gf3wvxS73/+K/+6vaNxoxBCLWEefnJyki5gf+Nj0zv/+LUQkYaH6zgXf381wMcktOhKhyr2DagFkCmR26Bzguw9P9O/peFjUwy07PbcEFgbyNckqEQfvSISTk5NkMonV9MbGhs/nGxsbg6AHKAqfA/XC++WQLkTwCrSK9Le8c9ef8+/Z2dnu7i5A6igu+Jr/D73uh2c1fTIB905SNT/8IeRKUmukZtFs0tEoGLDTy/+PHR8cHBAIBHnFOwdkaL++vgbVIN3/852L/9/59ycuxH+gAuR/tL6xnzM6OkpseP9SryNCYXl5ubu7e2Nj408YJ/5YZsAzSSQS0IEuLy/39PQQItXV1dXS0lJHR8f6+vr3bB9NTk6GQqE/ds3Y2BhwVEQK/LHMXF1djY+PDw8PDw4ODg0NORyOUChERBL69urq6uDg4Ojo6Pz8POhjpHz+2GP/585jcwKMEQSIANOG5Pl/7tXf/2SMYenXkFlz+sn0YxTj2tpaT0/PwsJC+uSdyHFcPz09PTQ0NDY29idoNmZnZxEX9B2leXpO0oX40tLS0NDQ3Nxc+rv+L9Z4ej7/l48/dJ04igOI4fX19Y2NDbJbCEIe9j0wvB8cHGCrk+zkALYJPBMYTGQn/ejoiDB90gsdcn9/fz8Wi8F75fDwEHtZmGEBgrq7u4vdG8S4AeIHS/vUTdra2oILyfDwMEziIBC3trawp5r+UszXUqlULBbb29sDYhubkIg3RsoBoCKC/cP5YDDIZrMjkQj20DY2NojhR/pbQHfa3t7GFhYso6GjgH5mf38fmceWZigUslqtIyMjk5OTAwMDOp1uYWEBgMBEIuF2u5lM5uTkJLKUTCYJ7hEuiHt7exaLRa/Xh8NhsmmGST3M4Q0Gg06nA3IL8o7Y3pBso0hXVlYsFovRaGxqauq6SVNTU+CagtV1cHAwODiI6GUWi8Vut4+Ojm5ubqLusG+G7TVU4urqKsEFp78LYBkCQAdqGKv109PTw8PDvb09wJUwdF1eXoKxBwQVUC0AjR0cHExOTtpstu7ubngGHBwcYOsSVXxycoIgStvb29iPxbbe6upqPB7f29sj2+NAcaVLq4uLi1QqlbhJ6AhHR0dwisHu697e3vb2NkHC7e7uxmIx7M1ieYRtfOzVQ82FToSKeH8UDIfDLBbL5/MtLy9vb2/HYjEUb/oAHAgEYJG1vLwMilYsFkOd4mNhhgDbBFLXCHLU399vNpvHxsb29/fPzs6wxQ2Bjn3XnZ0dDIe4HUif/v7+tbU18Mgwkf8eFR+p6J/YwY9DiG9sbDgcDp1OZzabBwYGJicnl5eXEeEJNmGwCohGo1qttq2tLRaLYU4K/cDU1BTMEB0Ox8jICKpwfn4eYCASNx3VD9Is3A1g0gQP7LW1tWQy2d/fv7i4uLGxEQgE2traurq6JicnR0ZGgBna3d1dX18PBoMDAwM2m83hcMByUalUKhQKWLM0NTWZzeZQKETkGvKTSCTgyQ1sUCqV8nq9YEqA5BeJRPr7+5ubm2EVTm4/OjryeDzV1dWDg4PDw8Pt7e1SqbS3tzcej5OZCyaACHau1+v9fv/a2tro6KjFYjEYDHNzczAq6OvrQ0F5vd5YLCYWi3/9619nZ2erVCr4faDrBgIBvV7PYDCKi4tHR0fHx8cdDodGoxkcHITKZWtra3h4GCbAdXV1breb5Pby8nJubq6trU0sFpeVlYnF4qOjo5WVFUQlRh/GiIL1/ubmJiyXYe/f2tra398/Pz+PkGCtra0NDQ0tLS0w3evt7fV4PNnZ2bdv387Ly/N4PJOTk4ODg3K5vLW1FViu9fX17u5uNpsNO1Simr++vk4kErDHR+zNvb09gHc8Hg/0yJFIpK+vz2AwdHV1ra+vw+4lFArBQnx4eHh1ddVut+t0OqfTub6+3tLScufOnU8//bSuri4SiSQSCZfLpdVq+/v7QZ3s6enp6OhwOp09PT1HR0epVAou4xqNJhAInJ2dgfUWCAS8Xi+IThgFd3d3h4aGGhsbTSYTcINTU1NgIUxPT+/t7QUCAafT2dnZGQ6HYYcqEok6OzuxM7y4uAiXtEgksrOzQ5RpW1tbXV1dCIscj8fTwSPBYJBOpyMedHt7u1AoBK45XSCOj4/39/cPDg7CXp7D4dTW1gaDwZ2dnfHxcZvNhqKDjeDAwAAonjMzM/Pz8/39/b29vZiljY+PA2IVjUZ3dnb8fr/D4Whvb8d8IhwOW61WOp1eXV3d09MDIJdAIPD5fFjzpW8dpWfvp3r8IxDi8/PzwJgVFBS8ffu2vr7eYDC0tbX19/dvbGxMT08zmcy+vj5MDAsKCuC0TfCtp6enLS0tiEFeXFzM4XA8Ho/b7VYqlQhYLhQKvV4vkTJHR0dOpxN+a6AXNTQ02O322dnZra0tEFF6e3vfvHlTXl5Oo9FKSkpA2MjPz3c6nVartba2lkajlZWVVVdXm81mvV4P/3u07Ly8vDdv3vB4vL6+Pkw0gBS3WCx0Oj0vL0+pVNpsNrjIFxYWVlVVdXV1tbe3y2Syt2/fwsVOpVIRf5azszO3211eXj44OOjz+dRqNUKMq9XqtbU1ousYHx/XarWFhYUlJSUmkykUCrW0tNTV1SFOuc/n6+zszM7OhpltZWUl3N9/+ctfgs8Hbl9HR0dbWxuVSqVQKDk5OdnZ2eFw2OfzcTgcCoVSU1NjtVqBr2EymSB7VFRU9PT0YA0ORhI+pLi4OCsrq6qqClQNOp1eUlLCZrO7u7vJjH5rawsWzXl5eQ8fPmSxWKA4+Xw+YDqoVCq+SKFQNDY2ms1mjUbz4MGDW7duPX36VKPRGAwGJpNZVVVFp9PhyanT6crLy0tLSw0Gw8jICEwtj4+PV1ZW1Go1GC9NTU0dHR1Wq7W0tJRCoYD91NLSIpVKi4uLKyoqmEymUqmcm5tzOp10Op1CoUCoDQwMiESioqKiwsJCwLN++9vffvzxxyhzqVQKh3UKhWKz2cxmc3Z2dmVlZXl5eVlZGXw4+/r6amtrCwoKGAxGMBjUarU1NTVw3STmSevr6x0dHQg8z+Vye3t7TSYTm80uKCgoLCwEM53BYJSXl8PjAZBbGo1WWVkpkUgwTpSUlNBoNIfDsbCwgP1wjKaNjY1MJrOsrKyurm50dBQxIi4vL/v7+6urq3t7e7u7u+HRU1xcLJVKV1ZWiALE5/NZrdampiatVltVVfX48eNPP/2Ux+O1tbXRaLTS0tKCgoKXL1/abDY4x+3t7c3NzcGTTqvVKhSKkZERh8PB4/FevXoFJldvby+TyayoqBAIBHa7HRgiKpX67Nmz/Px8TJ7EYnFhYWF+fr7ZbCa2iVjd/l/XX/0vjBwfuhA/OTnp6ekBxKe2thbgFBaLpVQqHQ7H0tLSyMgIqBQ0Gu3jjz++ffv2559//vTp02AwmEwmsXJUKpW5ubnwN6msrGQwGBAxgFJVV1cLBIL19XUUdywWE4lEFRUVGo3GZrPBZ0+v109MTMApGc30iy++YDAYNTU19+7dq6mpqa6ufv36NfCehYWFdDodfqRv375ls9nym1RWVpaRkfH73//+k08+ycjIqK+vh2tGMpkEAItKpcrlcpvNBkFcXV1de5PAwKPRaG/evGGxWHw+/82bNyMjI2R3rru7u7S0dGBgwOPxCIXCFy9e/O53v3v58uXs7CzW4Ofn5yaTiXmTlEpld3d3KBTSarWlpaUPHz785JNP4A/96aefAtJNoVB0Oh2FQvnss89oNBpilldWVgIoCj4BjUbLzs4eHBzs7OysqKh4+vTp/fv337x509nZCXBVc3NzcXExjUbr7e2FFiuVSikUCpSbVCqlUChFRUUGgyEzM/P27dvffPPN3bt3eTze2toaFviTk5PgSYlEouLiYoFAAIQTOMDwWmSz2WAhgWIokUiePn363Xff8Xg8pVLJ4/FKS0tRiYWFhTKZrKio6NGjR+Xl5fBoB7R2a2urp6eHTqfX1tZaLBbIKQaDUVdXh3oEP4dGo+Xl5dXX1zOZzIKCAqwnADBobW3F5IDBYDx48OA3v/kNRPPTp0/z8/NB3bp3796XX3559+7djz76CDOAL774gs1m19bW5uXl2e32/v7+rq4uBoNx7969r776qqGhAaMUi8Xq6OhYXFyESBoZGYE7klQqtVgsLS0tr1+//vTTT+/du/cf//Ef2dnZZrP5xYsXFArFaDTqdDoWi1VdXW21WmFVrVarX716BYxXU1MTJvgILDU/P4+2d//+/Vu3bgHbi4hoEOIej8flcslkstzc3C+++OLly5fpHkZutxuerqAPPXr0CBAhPp9PoVB4PB6NRvvss8/UarVGo6msrEwkEqA3WywWDodDp9NdLldpaekXX3xx586d3/72ty9fvlQoFJmZmWVlZY2NjVartaamBnw0QGA6Ojr0en11dfWzZ88++uijysrKlZUVIrj/NGuC/wWx+5d9xYcuxHd2dtra2vLz85eWlmKxWGdnJ1yNVSoVPAkjkUhxcfHbt2/v3LnzV3/1V7/85S//+Z//+datWx0dHYlEAmYbwGGDTdzU1PTq1avs7Gy1Wr2ysnJ2dtba2lpZWRkKheBgEgwGRSJRS0sLCnphYUGlUkFbt7S0RKfT9Xq93W4vKSmJ3qTCwsK+vr7BwUGj0ahQKNhsNp/PHx8fT6VSMzMzb968oVKpAoFAJBJ99dVXv/rVr/7t3/7tn//5nz/55BMKhQKl+fr6ukqlUqvVIH6cnp52dHRkZmbCo3J8fLyyshJsQpfLtb6+Ho1Gnz175vP5EKQKoYiAVHW5XBwO59mzZ//0T//0+eefLywsIFR8Mpmsra1VKpWEn76ysgI60hdffPGzn/2Mw+E0NjZmZmYuLS0lEgnQpdlsNpPJnJubW1pa6unpKSsry8/PF4lECwsLwBsUFxf39vYiyMN3331369atTz75hEajQehcX187HA6pVIrJ9fX19cbGxtu3bwFIOjo6amxsLCgooFAo//Iv//K3f/u3H3300d///d/n5+dPTU0dHR3F43HQTgKBwOnp6cDAAJywgYHl8/mlpaXwNgL1VKPRWK1Wg8FAo9EUCsXe3l5ra6tCobBYLGdnZ9FolMViMRiM7OzszMxMPp/f1tZGkNOAVmu12snJScBMzGYzg8FYX18HFrioqKiyslIkErW3t29tbXV3dxcWFgInAGja9fX1/v5+V1cXnU7//PPPf/7zn+fk5ABFELxJCoXi7/7u7/7xH//xX//1X//mb/7m0aNHJSUl5eXlKysri4uLcJ13OBxtbW2VlZUff/zxv//7v4tEosrKSj6fH41G0xXiHR0dlZWVExMT2PLp7Oz8wx/+8LOf/ezWrVu/+MUv7t27JxAI8vLybDbb3t6eyWTS6XRoWn6/n8PhMBiM3Nzc8vLyhoYGt9u9vLyMpn5ycjI7OwtAxccff/zXf/3XDQ0N0NVgJk6lUu12e3t7u0ajKSoqunXr1u3btwli4fr6GmgXp9N5dnbW399fU1PjcrnEYjGLxerr64NSJTc312AwAEqxvb0djUbFYnFzc7NAIKDRaAaD4c6dOz//+c9v3br1D//wD7///e+rqqqys7NtNtvR0VFPT49SqTQYDFdXV93d3TKZDJmB6+kvfvGL3NzciYkJIsSJn91fVmh+aE/70K1TwJR49uzZyMjI2NiYxWJBfACRSGQwGBANANPzgoKC7777TiKRGAwGq9W6tLSEVfnp6alWq+VwOBsbGxMTExaLBVBDoVA4NDS0srKi0+lKS0sRmHV3dzcUClVVVQmFQnghBoNBPp8PlUs0Gi0vL0e4tYKCAriG5+fnd3Z29vX1gbTJZDLBKcVue05OTnV1tUwmk8vlWVlZb968kUgkKpWqoaHB5XJh82pjY6OhoQGEv/Pz842NDavV+ujRo46OjomJCZ/P9/bt26KiIlAG4Y398uVLiDa0J5/PV1JSArh+ZWWl0WjMz88vKCgA0f/y8jKZTLJYLJFIND09jdgCNputsLBQfJM+/vhjsVhsMpkKCwvn5+eXl5dNJpNWq62uri4vL+/t7R0aGmpra4Pvu0gk6u/vX15e7urqys3NFQgEHA6HRqOBTZqRkSESicBXur6+VqvVgHLAMieRSFRWVmo0mvHx8enpaalUClxXRkZGYWFhc3OzXC53uVzgfGF2nJWV5XQ6l5aWAIERiUQ0Gs1oNNbX15eVlc3MzExNTWGoUKvV0KhAc7KwsIDoP3V1dbFYrK+vr6amRq1WN90k4NEbGhpQgMvLywaDARxwFBcgriMjI/Pz8x6PJycnh0qlCoVCs9m8urra0dGB+TWTyRSLxdgN9vl8z58/r6mpgXIJGjwOh2O1Wtvb27Va7Z07d+h0usViUSqVjY2NUqm0oKBg/iYZDAa1Wl1XV4fyodPp4AXR6XSxWDwyMpJuE+JyuYqLizs7O5eXl2OxWFtb28uXL58+fYoQKFarFWAym822u7trtVrr6+stFsvp6Slwj0qlsr293eFwyOXyqqqqtrY2GHWsr687HI6SkpL6+no2m/2b3/zGbreT7d9AIFBSUqLX6+ElbzKZSkpKXr9+7XQ6iacYKOomkwmRK/h8/uLiYnNzMwAS0O+/evUKkJOKiopYLObz+RgMhtVq5fF4dDq9ra0tNzf36dOnhptksVisVuvbt2/NZvP29nZvb69UKpXL5fv7+wgtAmYyg8EwmUxZWVm1tbWg1IEf8L6/1Ycmf/8i+fnQhfjx8bHX6y0qKkI0EzqdTqPRpFKpWq3Gthh6glKplEgkoK9pNBqn04lwLZiqNDY2CoXC1dXVsbExoGhB4OTz+UqlksPhiESilZUVmCFDnUKlUi0Wi8PhAJa+tLQUsQLy8vLkcjm0pZFIJBwO5+Xlud3u/v5+k8kkk8lqamqgdpDdJBIqQavVAhkKNI/BYPD5fHt7e7AY6evrQ9gEg8Hgcrl0Ol1BQQFwHwC3stlsYLWXlpYikUhhYWEwGCR6/IGBATqdbjQaGQxGVlZWfX09Zo4zMzMYyVKplNFo5HK5IFpYrVaxWPzdd99VVVXV1dV99tlngJYAzrW6uooNT5FIRKfT6+rqoFxmMBhisVgmk4GZzufzs7KyuFxueXn5ixcvhEJhcXHxmzdvIDoxGS8tLWUwGP39/ZhI7u7uqtVqEKbUanVVVRWVSsUyv7y8HP2zu7t7e3sbq3sss3g8nkqlolKpEolEJpMxmUwEpmAymVqtVi6XczgcoVCoVCqNRqPNZquvr+dwOAi/IBaLKRQKOMPV1dVgWILKnZeXp1arsQG+s7PT09MDPEhbW1tPT49KpaLT6Xgj2E88Hk8qlTY0NCwvL2MTwmQyCQQCoJow63/06FFBQQEY66g+cB+B5y0pKamrq1MoFEqlsq2tzWg0lpaWTt0kg8Gg0WjodHpubi6TyYQqpr6+vra2VqFQgLKLDn9xcREOhwFExE6A1WqFBhzrOZvN5vV6aTSa3W5PpVLBYFAmkwHXzmazWSxWe3t7c3Mz+ktxcbHdbscGZjweb25ufvLkCbD4d+/edTqdxI8mGAxWVlaaTCYajfb06VOxWFxcXFxUVNTe3g4q4fn5eU9Pj9FoVKvVFArl2bNn2dnZFotFo9HU1dWVlJTIZDKBQJCRkdHe3t7S0lJWVoY2WVBQgB7KZrP9fr9YLKZSqfX19TqdzuFweL1eOp3e3NycTCYnJiYUCkVFRYXNZqupqSkpKVGpVHl5eUVFRVKpFPFJhoeHR0dHp6amfkTOvX+mKP/Q1SmIOanX6589e3b37t0HDx4UFBTY7XaPx3P//v2HDx9mZWUVFBT4fD6Qo+/evfvdd9/x+XyEZ4SdQ0dHh9FoXF1dnZqa8ng8iM+iVqvv379/584dBoPh8/mAW8FCrK+vj06nf/HFF2DeB4NBbKxlZGTk5uaCoyYSiaampiKRSEVFxcDAwPj4eEdHB9b7BQUFd29Sfn6+5yY5nc7m5mYsAO/fv3/79u3i4mIEQIENRjKZtFgs2dnZv/rVryCO9Xp9RkbG559//uLFC5fL1dHRYbPZfD7f1tbW8vIyh8MZHh4mMUIR5KG3t1ckEoFpnpGRwWQyV1dXoU45OjpCLKt79+7dv3+fRqOpVKqXL19mZGQ8evToiy++UCgUra2tYrEY9oJdXV0ul8vhcCiVyvv37yOAjkwm6+npsVqtd+7cefTo0YsXL1AXLBbr9u3bT548efbsGZVKnZycVKvV2dnZ9+/ff/LkCdDhKNjT09NwOMzhcB49evT8+fOioiKNRrOxsaHT6TIzM3/zm988efKkoaEBtpiXl5fxeBxRKRC+TiKRYH8V22tSqfTBgweff/75kydP2Gy2Vqu12Wxut9vlcvH5/M8++0yv11ut1srKyt/97nePHj3i8/mBQIDD4Xz55Ze//e1vq6qqvF4v2ZSLx+NisTgzM/Phw4c8Hs/hcDQ3Nz9+/BjBm5xOJ7YisXPb398vkUiwC0elUr/8/SYznwAAIABJREFU8svXr1/X1NQIhcLHjx/fvXs3KytLJBK1trY6HI6HDx8WFxebbtLr16//8Ic/PH78WKPRADY5NTU1Pj4Ohp9ara6urn54k/Lz8zUajVQqNZlMU1NT6QZ5CDuZn59/796958+fY8Sl0+l/+MMfHj58yGQyoZLu6Og4PDzEWjYrK+vjjz9+9eqVQqGIRqN0Ov3Bgwdff/21RCIZHh7Gww8PDwOBwJMnT54+fZqVlfXkyRO3202cGyKRCGIASSSSzMzMZ8+ePXnypKSkxOPxbG5uwjhyYGCgtbVVo9Hcv3//1zfps88+q6mpkUqlX9ykr7766v79+z6fLxgMMpnMBw8e3L9/Py8vz2KxaLVavV4PCIRAILh9+3ZGRgaPxwsGg3K53OPxAPHW1NSUmZn57U1CDKnq6uqsrKzHjx+jioPBIMzYBgcH/0zh+GO5/UcgxMHfmZychGVoXV0dTNlGRkai0ejk5OTU1BSgTjBUGhoamp+fJ5ypq6urRCIBe1VE4wV3bX19fXBw0O/3z8/PQ3eWrkqD5wg4ajs7O6OjoyMjIxMTE9FodGFhIRaLLSwsgAE0Nze3s7Ozt7e3sbGBqJgFBQUIhTM1NYXQsTAHhiXv4OAgYgmur68Tp76rq6tYLBYKhbq7u+fm5hBXNxKJDA0NTUxMHB0d7e/v4yQc2+bm5hAnAXkGRSiVSi0uLg4NDQ0ODoZCoampKayF4V5/eHi4trY2NjY2MTEBk+Hp6WlERBwdHV1aWlpZWZmamoLRMYI+b2xsrK2tjYyMzMzMrK6uwtEDkQxhWYhvX1lZAU9xfHx8fn5+f38fi56BgYGRkRFY9RBjx5OTk+Xl5VAohPIE73Bzc3NiYiIQCIRCocXFxf39fRjCHx8fr66uAtc3PT0NXtXMzEw8Hp+amgJcPiMjIysrC2zb9ZuUTCZjsdjQ0BDMw1dWVgKBwPDw8OLi4s7Oztzc3NDQUCgUisViRIKjuyYSCXgnIQD3+vr66OjowMDA2NgY4n6sr69DTbe5uTk9PQ3GUzweDwaDKKX5+flwODw4OBiJRFZWVgByikQi8/PzaAnT09ODg4PhcHhlZWV9fX1hYSGVSu3u7q78f2lhYQFGgQjjMDs7u7KyQsx1kE+Y6s/NzfX39/v9/uWbNDMzMzw8PDIysrCwsLu7OzMzgxtPTk7i8Xg0Gu3u7p6cnEQgusXFxdHRUQAd4fQIK8NUKjU6OhoOh9G5YL0OZcvu7u709HQikUAB4htnZ2e3t7cxkb+8vISV/erq6sjISCAQ6OnpQZDC9fV1NGbEw+rp6YnFYsvLy8PDw6FQaHp6en19Hfiz4+Pjg4ODWCwWCAQQJHp3d3d+fp7EmEVTCYVCkUhkZmYmkUggmujAwEA0GsWODrRMyWTyL+j79iEL9B+BECcNNx6PDw8P2+128LihKgHrg3hqnZycwFMGf3EvvBgwK4crPLxRoD/BvenX4y64mcCOGP4IZ2dnIPkhLDJefXyTAE28vLwMBAKAgm5sbBDJld4CIJEPDw9PTk4ODg7INefn50dHRwcHB6TlwbWd6Ezwvel+zO8TBS4uLkh+gDdBzskz4Z6Xnh9CCDg9PSW7Z/h2jBD4tPPzc5IT4uNHXNjTfanJrxcXF/DLQJ7JGHl+fn54eIjouiQnuBizLTg3wiMcNUWkLfilp6ensVjM4/HU1dUhmEYgEECB4y0Qc6RV4NPgBYNCJsVOMoADXAnaAbyQjo+PiZnmxcUFHgLHH/IQ+H/hM+F6nt6cwLfB8wnVD7WDsgW6ErHewahB00JjI55r72QVk9/d3V20eZQnaR6oQZQnSnJvb49kGLUJE6B0S3mgGXEXMRJH4ePb8VhkDLgFcBYJuwYtAYUAruTx8TFC352cnIyPj3M4nFAohAk+aQOkpsg3kkkYskTO4+Dk5ATkBpQzWhTpj+TXd+76qf77oxHiiLYVj8cXFhZIl4ZcTq8b4lVM2mv6r+T44uICDYi0HthRvePuBV0HuQuthAhHeBIBjUL2wWOx2MDAQCKRQCbT/dnIc3AApzvSVd75FR8COfJD9mfIh7zznHRxjJ+IMH3nyvR/8Wnkejz8/Rshkt4/n/4o3ItOjkp5fyBJv55IFoJkSa8F8plbW1tDQ0MGg6GxsbGnp2djY4OMMe9AdUgGoFlCJaa/EccQf8AwodbS35sux995Pm4nE4X3n/yfnsHyCO0QUhjHGCRQRICQkCaN5xC2Wjr2JL2ZARCGi7E5TwqN5AQfiwGSDPDkVxygWi8vL8k64P3nXF9fA+QLS/P3L0BuSXOC5877a6B3Xo3Hvn/y/TPp3Ye0se9vkO8/5Md+5sckxN8pazL4k6ZzdnY2MTERDodnZmbIpBJ3oTHh+PT0FDMgciM5IL6C5F3ps12oGt65GBNqghpHriDTyTGaGskDkREkJ3BMIN0JggzTWPwlP5GM4QDyPf3J5AKcJO+C5Vy6M9s7bR0zfVx/fn5OqNnkgSic9M/HM9Mv+GPHGEvS355+JV6KDBPQLqQt+j9mduTV8FqEwhekafITsgQBB7GYPpV+RyBi4YKcYIDBgoDkLf2xOPn+GRhCzMzMIDjkf3ovqSDyK74LOSTFAj97WDenQ83IXJ7IKch3fCbqEWWCgiITCGgnQBnDq/HY97+CZIwckJaDOS/+Tf+VLLlwkoxz+BeTfdDnMdkn3YG8HU9A/tFC0MbSVxXvvJdk4J2Xpjch8vx3Lv6p/vsjEOKpVGpqaioYDPp8vv7+fri5h0Ih6LLTK2ZnZ6epqcnhcMzNzR0fH8/Pzw8NDYFqQiLhrq2twUkv/cb0YzKFT5/pQMgS7zVyPZkxYXr+jqjFVI6cRCMmHjqkkySTyb6+vvTPwY1Y1WKtTboxeTU5IMMMxB/J/zuCA9rM2dlZMnlJn+DjYkx+kc8fCN4jb39nEUOy987gQUqDXIAyhOoTygHME2ESOjExATVu+qofwhfbcRh7yNOQDTI+oSTT/03/6v/W9Pmd8ry6upqfn5+YmJicnJyZmenq6urp6UnPxn95TMqczIuJsgVnSE2li1EiOqEYJK2UNDbSwP7TFUP64nV/f398fBzIqvR1DLnxHWmYLijT5S++9P0nYMgkd71fIORb0EjIQg2fTz6NPOGd/KBX4mT6NenH77/0p3fmwxXimOAgPBtC4vJ4PJlMZrfbGxsb9Xq92+0m2x1omhsbGyaTqbOzc2Nj4+DgAFYKAwMDfX19QKZEo9FwOJyubnu/Rkn/AYiHXACFOAQlNHHoNpjUvzNVRDcgS2bS+CAf0/89Pz+fn5+vra3t6+uDopC0bKLdPjw8hNY1XcFNHgJpi6UxLiD7tOSn6+vrsbGxjo4OGKeTHgi1O9FBk2figEzuiBBEaaTPZyEHidxPl9HkaVhro4uSWSd5FDQYa2trgUAgFosdHBygMMfGxuCfvbS0BKUq9CGo68PDQ2I4QfJAKgslT76CnCdkc7QuMuCRC3AA8YFjDBLvD9Ln5+der7e5ubm1tTUQCLS3t/v9/neeQ/5FgZN/IbNQqqQuUKqYwKJRkVUIUYvjYpRP+qiGppg+44aIJyWQPnQhG7u7u36/X6PRCAQChUIxPj4OrwUiwdGi0mcP6U/DuIKL8UCSyfTPfEeeQtVDmhM+h7QTciOGN9xLTr5/8H5vSn9U+vH79/6Uzny4QpyUss/ny8zMFAqFbW1t4Et0dnaqVCqDwTA/P4/LLi8vj46Otre3Nzc3gTpbXV1FXEqz2cxisaRS6ebm5vj4OEynsRJHODToLsD2Q7NIJpOIuHZ0dEQaLpkuHR0dbd0kyJHl5eXNzU0YVKBzAnSXSqXQ87e3txOJBKEnpk9dgbULBoNFRUUejwcYtp2bhFdD/OFF4CYiyFy6FNjd3cWeFRr92dkZ0GDn5+d4NfxEhoeHGxoaZDLZwsLC4eEhPgcGi0AnpstflOrp6WnyJmGlDPMDBK7DgpfIHZQJIHkQsvg08syzs7P9/X18GiaY6MAofFjXwGxmd3cXAfa8Xq9YLNbpdDMzM6enpwiZRooRJQBxhrenu8McHBwsLi6mUikMY7gMe4YIqIbYe+mB2bDMgn4DgdYgawj1kKCr0SROT0+7uroQRHtsbGxxcRGWkQibt7+/T4RIKpUiSEtUKGyNiAl2urQ6Pz9PJpN7e3tQiaBVk/Dw2F2EGWj6zJecxxgJxjq6A1ojMMUkS9fX15FIpKqqSiwWc7lcxGKdmpoinQ4H29vb6+vrOzs7KBzyK9SA+BdR+siAipMY+Y6Pj0H6xMB8dXV1eHgIhwxcBv0keWz6QXpW08+/c5x+WXoxvnPZT/vfD1qIo4Z6e3sfP34M156WlpZgMAiiodVqXVxcRPUsLy8Hg8Hu7u6tra3p6WmIe1Ag2Gz28+fPc3Jyurq6jEaj0+lcWFgwm81SqVQmk9XX16vVasSDb2pqGhwcnJiYMBqNgITY7XYyTiAOrMfjUavVCLMNJqpGo5FIJCaTCfw2m80mEokUCkVvb280Gm1ra1MqlXw+XyQShcNhEscWYXbVarVcLudyuV9//XVTU9PExERLSwuYqyaTCXBBqIZDoZBOp5NKpWKxWK/X9/b2+nw+u90uFAqtViucoVdXVxOJBCIdw+gNoeLNZrPf729tbWWxWC9evGCxWAqFwmazrays+P1+uJk0Njb29/eTHePT09O5ubmOjg7FTerq6gqFQuDbyeVyi8UyNTUFXuvh4WEkEmlsbIQbKhAfGGXhTh0KheLxuMVikcvlCoWCyWQ6nc6ZmRmn07m4uLi9vR0MBoeHh3t6eiwWy+jo6PDwsM1mk0gkJSUleXl5Op2us7Ozra2ttraWyWQ2NDRgGMY8cWVlpb29HWQSiURis9m2trZgKcxkMrlcbktLy+TkpN1u1+v1CDO/tbWFdhWJRHp7e1dWVnZ2dqampmw2m9/vR5FKJBK1Wu1yuZLJ5ODgIIzTRSJRV1cXmdKenp6CcQigrt/vHxgYkMlkUqkUsbnD4TAs+SwWi1QqValUAHAODg5i/qvVaoeHhwmE9vj4eGBgQC6Xy2Qyq9Xq9XrBKeTfJI/HA/9ksVjM5/PVanVrayvxmL+8vIRTK+xTFxYWADlpb2+XSCQ8Hg8eznNzcxiZLi4uBgYGSkpKuru7gcbkcrlDQ0NE2MViMWAk+Hx+XV1dT0+P3+/v6uoCLXlgYCAQCIDwLpfLVSpVS0tLOByGKL+6ukomk93d3QKBAC7BVqs1Ho8PDAyYTCYulysUCtvb29fX18mUHO+FFMZfohRKP5kussktJM//vxAnRfGhHGCFeH197fP5Hj9+nJmZCYdMh8PR1NQEsiAh+aGnabXara2t/v5+aCc0Gk1paSmXy33+/Hl2dnZXVxeXy1UqlZFIpLy8HDSSrKys/Px8wAhramokEolerwdkg8vlVldXu1wuNLXz8/O5uTkGg1FVVcXn87Vard1uNxqNVVVVWVlZcJKWSCSlpaVAC7W0tDidzqqqKg6Hw2azi4qKGhsbp6enUb6IfVxeXs5ms3k83tdff61QKJqbmwFHLC4uzsnJQcgFNFyn0wmYVG1tLfsmicXi6urqzMxMeC0ymcxwODw/Px8IBKhUqlQqVSqVb25ScXFxTU2NQqEAJ6impqasrKy0tDQQCDQ3N3M4nIqKijdv3tTX129tbSF7yWQSjpSvbhKdThcKhQwGA6gTsVg8NjYGdFQqlWptbX39+vXbt285HA7AMtXV1a9evcrJySkqKqqvr3e73bSbxOfzv/32Wz6fD8zT0NAQFkxWqxV+fU6ns7GxkUqlsliskpKSwsJCDF1MJrO0tLSkpITBYKhUquXlZehDxsbGOBzO48eP+Xx+2U1qb2/ncrmlpaV0Oj0/P7+mpsZisQCWJJVKQ6EQoce4XC6VSjUyMoKQGpWVlWq1msFgPH/+nMPhAKo1OzvrcDhqampev359//59DodDrJjOzs5cLhdGr4qKipaWltbW1oyMjMrKSnCyTCZTc3MzXEazsrJev34tEolcLld7e3tpaemTJ0+ys7MlEgkAucfHx4uLi2q1GpeBHwDnWDqdzmAwBAKBSqXSaDS5ubmlpaWoDp/Ph0XS1dVVNBqlUqlDQ0Mww1coFHCvzc3NLS4uplKpr1+/JrTOk5MToBqmp6e3trZCoVBNTU1vby9qP5VKBQIBkB6qq6szMjIAj2Sz2SsrK5FIBG6Z4Ezk5OTk5eVVVFSIxWIovi4vL2OxmEKhePr0KY/Hq6iooNFofX19EomERqOx2Wz4P3d2dhKlPxHcWNu98/d75Hi6WE8//lCk2P9KPj7cmTgWntfX14FAAIS8x48fUygUg8FgNBobGhpaW1sJerCnp0etVuv1+r29vWAwiEbT2NjI5XKdTqdAIFCr1aenpzKZTCQSRaNRGo3W2Ni4vr4uFApFIpHdbg+FQnK5PDc3NzMzE6bo+/v7oHDgLclk0u125+TkuN1u6Ow2NzeDwSB6aXZ2dk5ODoVCKSwsRF8KhULNzc25ubkzMzMnJydOp1MqlXo8HlRrKBQSCAQWi2V2dnZxcRFiq6ys7Ne//nVBQUF+fv6XX34J2Cmud7lcTCYzEAgsLy8PDAzk5uZiLNFoNOvr6729vRUVFf39/cA6lpWV5ebmZmVlff31169fv87NzX38+DFgTA0NDbu7u+3t7QUFBSaTCRsMPB7vq6++ysvLI4Pi0tJScXHx06dPMQw8efLk22+/ffnyZWlpqUajmZycJHP24+Njs9n87bff1tXVeb3ewcHB8vLynJwckL+ePXuWmZkJUsLQ0FAikQDT0Wq1FhcX+/3+paUlrVar0+nq6+srKioACKyoqFhfX5+cnLRYLGq1uri4mE6nL96kpqamBw8eBINBCK+xsbH6+vqqqqrj42MUQuZNkkgke3t7Xq9XIpFQKJSHDx8KhcKFhQWi3rm+vm5tbZVKpYODg0tLS263u7i4GLoFHo+XSCSamppoNFokEvH5fAaDgUql3r17t6KiYnNzk6iDuru7DQaDUCgsKiqyWq0Oh+Ply5d9fX3T09Pg1hYWFn711VevX78GKPXVq1cWi6W/vx8UwIyMjLy8vLGxMQRMcDqdXC5XJBJBoT88PFxUVOR2u9fW1lZWVvh8PpVKVSgUer1+ZGRkdXW1srKypaUFY9LV1dXo6GhZWRmY5sPDw3K5HDMSgUDQ3d0dDAazs7P/T3tX+pRWlr5/f19XzbeZL1M13VOpziSdRTtxjwIugIpIwBXFCEpUUKJGWURBARVFDCCiIqKIymIQN4yJxuVX7VN16pYLpjPdaZzc+4E6nHvuWd57znPP8r7Pq1ar8Z0+ODgwmUyFhYV+v393d9ftdvN4PIPBAPl4vd7u7m6hUBiJRDY2Nurr6zs7O8EfCeoeuVyOVv/6669g6cnOzk5LS3O5XDgbj0QiXV1dL1++TCQSY2NjIpFIKBSCRfLTp08OhwMEWGSbCJt7l7Cb/E0C4t8EJFO9kNQFcSI5h8PBYrF6enrevXsXDAYPDg5sNltHR0dfX18wGESysbEx+cUFT95YJ7a3twsEAo1GU1NT097efn5+3tHR0dTU5Ha7y8rKVCrV1tZWe3s7iCxmZmaam5tBcQcOpr29PaAP9kA2Nze1Wm1WVpbZbEahIyMjDQ0N1dXVNTU15eXlRUVFBoNBrVbX19fzeDywyDKZTJ/Pd3BwoNVqa2pqBgYG8KzNZhMIBFqtdmNjY319nc1mg/b6p59+kkql8Fbhcrm2t7eRfmhoqKqqyuv1wj4wJyensrKyubkZrbBaraWlpZOTk8vLyw6Hg8/nMy4uzC77+vp6e3uVSqVCodDpdJ8/f7bb7aBnwnyzv7//xYsXpaWlxHh1bW0NOchksq6urr6+vqGhIfAI1tTUlJSUjI+Po26np6cLCwtKpbKxsVEkErHZ7CdPnjAYjPr6ep1Oh50EPp8P0qtEIiEUCqVSaV9fX1FREYwqW1paOjs7ZTJZaWlpVVUVj8cTCAR7e3ter1cul9fX17NYLJFIFA6HNzc3Cb8jxLKwsCCXy8Vi8enp6dTUVHl5+X/+85/MzEyFQnF2duZwOKRSaXZ29qNHj+RyOdVLBmFYxJfPYrFwuVy5XN7S0tLe3r6/v6/X63k8nlqtxsKlo6Pj+fPnFRUVfr8fm++np6cDAwNKpVImkxUXF8OjTUFBAXyG9fb21tfXFxQUPH36tKqqCnMOtVqNFtXX18OlRn5+/sLCAjzhDQ4O1tXVvXr1Ck1zuVy5ubljY2P7+/s7OztisZjNZr969aqtrc3pdK6trZWWlmo0GgLiMzMzDAbDarUuLS1ZrdaGiwsv3e12e73egoICvV5P0lut1tzc3Lm5ufX1dbPZLBAIzGYzFp2zs7OdnZ1isRhHJlj9oM6hUMjhcLx69aq2tpbBYLx48QKbP1qtVqPRrK2t4eMajUa7u7tramoSiYTNZsOzSHx6egpqew6HQyZhOJomqH0pQIM4usRNv3cAxJ1OZ2FhYVdX1+TkpN/vj0ajcL+i0WhWV1cxd3C5XG1tbWVlZYODgxKJ5NmzZ0ajEavjgYEBEMuFQiHsKU9PT/N4vL6+vv39fZCXDg0Nzc7OymQyJpOJwTwwMGAymdhstlKpxMxra2vLZDLl5OTI5XKHw+F2uzEH53A4QqGwrKyMxWINDQ2p1WqhUPj48WMWi/Xy5cuSkhKdTgdXMmKxmKxYwUSB9bXRaMzMzMQG4i+//CKRSN6+fatWq+fn58naf3BwkMfjaS+u9vZ2Ho+H9XVvby/2bSsqKtra2rq7u9vb2zkcTkVFBbYgZDJZX18fqGWxELHb7b29vTwer7a2Nv/i6unpISAOHYNYLCYUCjkcTkNDQ0dHh0ajMZvNdru9q6uLw+H8+9//BoUINqYXFhZUKhUwKz09ncViYQOnv7//7du3nZ2dzc3NdXV1fX19ExMT2LfR6/VFRUW9vb1Go5HNZoMTis/ny2QykCVZrdauri4ul9vQ0FBZWVlVVTU4OAjy6NLSUkIh6/V6m5ubS0pKpqamlEpleXk5MLexsRGnCNXV1eA97+zsjMfjVHWU4eFhsVjc3NwMjjO8946Ojt7e3sPDQ7PZLBKJVCpVfn4+9qyysrL4fD4OA3Csij1xuVwOSiaDwcBms91udyAQAHcgn88vKSl5+fJlW1sbaGZra2tZLFbZxVVSUsJisZaWluDjzW63NzQ0cDgcu93ucDjUajU8V5hMJoPBUFNTIxAIpFKpUql0u92hUAhEr+RE0ePxlJSUyOVylUrV0tIiFApBXogDjEAgwGazh4eHyWnqzMxMUVER2beRyWRutxswsbS09ObNGw6HYzabdTpdRkZGa2urRCLhcDgWi0WlUmGFWllZWVpaWl1djaMms9kcjUbxGYhEIviMYWUslUqbmppKSkqwz6lUKnFKBJetUKyEussl+MZfGsRvgm/EpzSLITa5ZmZmCgoKMjMzmUymSCR6/fp1e3t7V1fXyMjI+vo6hmU4HFapVA8fPmQwGE+fPr1///7w8HBnZ2ddXd3ExIRIJCooKICTFKlUOjExUVdXNzw8fHR0BNi1WCzz8/PgVMMWalpaGjiXDQYDNO3gMrGkpCQ3N5fJZJaVlfF4PC6Xm5+fX1xcXFhYWFBQUF9fX1VVVVRU9Pz5c7FYDD8MXC43Ly/vwYMHKpWKLB2i0ejAwABWoxwO58GDB/Bvkp2dXVxcXF5eXlVVBYoJnOCDVP3FixcPHz7Mzs7u6+t78+aNSqUCWSjcWWVlZaWlpYERrK2tTaFQYANKIBC8fPmyo6NDJBL98ssv+fn5LBaLz+cPDw9XVVXl5uaKxeL09HQul0u2Uz59+qTT6fh8fk5OTlFRUWVlJXb2MX9MT0/XarWhUOjs7CyRSBiNxtLSUqFQyGazy8rKwM+ekZEBzxsymcxoNDKZzOzsbAaD8fe//72urs5qtXK5XDabXVBQcO/evdra2vb29qamppGREbgsYLFYT548efToEXbPxGJxTk5OdnY2l8tVKBSENm9hYUEoFP7zn//My8vLyckRCAR+v//169fFxcVFRUVw/jAwMMDn87HzQD1Jm56erqur+/nnnzMzM1ksVnl5OchsBwcHP336ZLfbW1tbBwcHy8rKsrKyqqurnz9/LhKJiKfgs7OziYkJtVqtUCiEQqFarTYYDEKhcG5uLhgM6vX67u7urq6u9vZ2OFqqrq4Wi8VwmoNVTlFRUUVFBQ4nT05OotGoXC5/8OBBVlYWXhB4VtPT0x8/flxTU9PR0dHZ2anRaLCR3dLSMjExQXRU/H5/Y2NjXl5eWlpaZmamQCBQKBTo3j6fLxgMVldXW61WomMTCASam5tzcnKwcjKZTERhNx6PDw0NPX78uLCwEIxd8BnCZrN5PF5+fn5eXl5XV1d3d7dEIvn1119x8tTW1kaIA6PRqFarlclkmGG8efPGYDBIJJLCwkJQjHG5XIvFgjXNyckJLMuoCH4JuKl/kyPad3g3pUEc7yMWi5lMJmCWWq0eHh6enp4G1SRRfvr48WMgEIAetNFotFqt6+vrOD0HfZXJZJqYmBgbG3O5XOFweHFxMRwOHx0dgTzo/fv3BwcHS0tLs7Oz29vbUIDR6XQejycejxOjjP39fY/HMzQ01N/fPz4+Pj8/73a7BwcHrVarw+GYm5tbXl622+16vX58fByLhsXFRUxnzGYz1VnayclJLBYzGo16vd5kMlmtVniGnZmZMZvNJpPJbreHQiFogJyfn8NZGuhV4Q5iY2NjeXkZZI2JRGJpaclgMIyMjExNTblcLuzSWCyWgYEB7IT4fD6n0wkiabPZ7PF4EomE1+s1m80Wi2VkZGR6epoQQ5+ensZiMcwH1Wr1+Pj47Oysx+OBT0iLxRKJRGAsfnx8DA+ZaLXX643H4y6XS6/XQ8UClGEY8CKR6OEKpsh5AAAPy0lEQVTDh0qlMhQKuVyu4eFhnU5nMpnm5ubgyHRtbW1xcXF8fFx/cVksFrAaLS0t4UhwamoKbOPoG263u7a2NiMjQ6VSWSyWxcXFs7Ozzc1Np9Op0WgMBsPMzEw0Gp2ZmVleXqbqIH7+/Hlra8vj8fT395tMpvHxcWxEgE79/PwcREubm5vv3r2DI6TJyUm4ogZuwlno0tKS3+93OBzBYDAcDjudzt3d3UQisXxxbWxsgGfNZDKNjo76fL7FxUWHwwGnmjabjTAIojmRSAQezgYGBqanpyORCL4TOp3O6/UGg0EUF4/HDw8PwbFFeEISiYTf7zcajeD4hN3y+vo6rNt2d3eR4dHREawod3d3l5eXzWYzOnA8HicHBkdHR9FodHJy0mQyyeXyvLy8np4eu93udrtBqDk5ObmysrKxsbG0tGSxWLRardFoXFhYIAqgiUQiEAjMz8/DdzlovILBoMfjgU6X2+3e3d3FLA2TJKj9UMH6pvB3CNPJm3wHQPz4+DgWi62urq6srGCowGf24eEhbFuwA/Dx48fNzc1oNAq/43BMvru7Cw1laExDixzq21Ddg002OhP4sM7Pz+EafH19neiJw6gB9j7r6+sg0oOucSgUIp7O4X89FAqhXJioRCIROAjHooHoiZ+enm5ubsK1OYxIoe0eiUTAMghTfkweLRYLJrA4icI+BvE+BXPtSCQCBWfwah0fH8fj8Y2NjbW1tUgkkri43r9/D/48LMM/ffoUj8e3tragXE+mdWjv7u4uCOHQwI8fP0KMOzs7WB/AJuXw8HB7ezsQCEBR+vz8/ODgYHNzEy8rFovBzQW0faqqqmw2G8zBwfsI7XKwfICdCv6m4TM+FosdHBx8+PAhdHHhm0r6tNfrVSqVYrF4cXGRasOVSCSCwSB8xn/69Amq9OQwlqDG4eFhOByGLjNIzOHPD6ruUI5OJBLxi2tvbw/OH2DqdXJysrW1tbe3d3h4iMkECoKJ1t7eHmE3+/DhA/gg4ToqkUiEw+FYLAYdfOriAGqsKysr0NxHV4T3InTXRCIBY4KTkxMUAcVwQpsVCoVWV1fRcNh8ARw/f/4ci8X29/eJbRpaGovF3r9/v7Ozg6NFcsAImyPMoyUSicFgwGFAKBSC0QPa8vHjx/39fcwY0OfxaqC3DgkQlXxikEHsCch7BF4TO6Ob4Pu71T8hgro2cAf2xK+tN9WmjigqUXc8ydggd6/mQ01/9S7pSbiFkU+4BqnWcVefJTEkE9i2oNqXdGCRGOZ5BF+AI0Qr2eVyaTQaMgklkyZSEFmKYt1AisDA2N/fJwKBsXISsZA8kwSg4YdpHZJdNeFDQfv7+7CkFYlEWNGT+T4eTD4yCaMeGnjJUD4cDttsttHRUapAyGeSELYAAcnrJsbASRp46RYxd8LMF9UgJjBUA3GAOJEGyYfaYxF5UzXIm7oqGWJqT3JAo8DCRj7tVDNLUgH42SC85CQeAULXAxwnd3d2dsxms8vluqrWTRjKSA5XK0zyoQN/ngTuAIjDVDdJ/8Cgha0d6U/XigyGZOj3gEtgHBUCyINXbYIx8QeXLPxbJqkVyYcEACWAdcJ/dPXohsSQwPn5+eHh4d7eHiESIjhFMidfCwSoz6LVpKpXUZ5kAmlc+5c8jrswbcWAxy3y2aDWDcr+Hz9+3N7eBhs4yAyouZEwaQKpAEqhQuSllwJgon6iqK1DYiwaqOgP9ARWktJJoVeFgGNMIliiSkGtGKk8kTxiiLgQf+n32o5HakLQnMRQ80St0JmRLWp+KQ31WZKMRJIAnkIC6vcGhLcgZiCJEbiU203lXnqK+vda4VMT0OEvkUCqgzjGJHUEXm0VGQnkgJvEXE1MsIb0OTIFRmJqx6KSMwAK8akgNNnYq4lGo5ubmzs7O9hbRz4w1w4Gg2QVfwkdUAHyS0onMRgk5O9NAerQpaa51FLqrVvDRG5JUgIir5ZyKeamZElyTnLrEohf23aq3EjpVMQhkUkKSnILWV1qJkl/SXSoIXnkaoCkvxpAEVfjSQwaQv7+IQHUEM1JniHGZvI0ye9Sx1rylPTdJBJIXRAn8I03TTYWrjaG2hUuLQaROHmPpA5pzBwvZUgGHvIB6GMGdHR0BE/wVqvV5/PNzs5CceLk5CQej8/Pz2s0GjivuVRtahHUWwQLqDNKauTV8LVAdjXZ7425NVvqaE+S+RcmS5LDpVuXoO3S3Ut/SekIkEaR+Evpv+Rv8mfJ20RWt4L4TT0BD5Lcrg2QIq69+3WRRAK3Pv7fl56k7beWTicgEkhdEAfdKF4zhg2h3cGBYZIeQL2F453Pnz8nEokkG9kogjq9wqIbk3oqcGAfhqgoeL1euOj1eDyTk5OwXzg7OwsGg9A5c7vdZCsTSwr4hYHZOnkTCJAh9OUBAkxf/siXpPyTsv2Som9NQxXarYmpCb5Bo0jdUO6tJZL0dICWwNdJIHVBnGxfBIPBgYEBtVrd3t4ul8vdbrfT6TQajR0dHQMDA1D8UigUEolEqVTCw6HFYkkkEgcHB2tra/CvaLFY6uvrW1paRkZGotFoOByemJhobW2VSqVms3lhYQGUWK2trUajMRQKkUObnZ0dt9stl8tlMplOpwuHwzDmrqurMxqNLpdramqqsbHx9evX09PTo6Oj8LStUCgqKipYLBaXy4VeY1NTk1wuHxwc9Pv90PFKJBI3bXpScefW8K0wcWsO1yb4k7K9tqzfG0nt67/r2W/QKFI3VOzWEkl6OkBL4OskkNIgjrnw5ORkcXExrCKLi4ulUmlLS0t1dXV2dnZjY6NCoaitrWUymVlZWQwG4/Xr16BtCwQCPp9vZGSko6MDltmFhYXFxcX19fWDg4NqtVoikTCZzKKiIpD8iUQi+MwuKCiw2+1E2c7r9UokkszMTAaDIZPJfD6fQqHIzs6+f/8+k8nEN6CxsRGekXU6XX9/v1Kp5HA4WVlZGRkZbDbbZDKNjIzk5OSkpaWVlJT09vbu7OxAB4u6YsD7+12QRGDiVqRInWy/oiZXH7nU168muCnmq4V8U4ZX40ndyMu9moYaQ9LTAVoCXyeBFAVx7AiDwn94eDgtLU2lUpnNZo1Gk5eXx2AweDxeeXm5xWIZHBz817/+1dbWZjAYlEolLN35fL7ZbIbNGMzeBALB3NycyWRqbm7OzMwE0aDJZILREEhZpVJpZmbmDz/8oFarYbZwdnam1Wrv3bsnEomGhob8fn84HLbb7bDw/umnnzIyMkZHR2UyWVNTk1KpbG5u5vF4HA5Hr9ePjo729/dzuVwwIvX39+fn5z948ODFixcw0iODnPrmqMP72jA1MR2+KxK49lUi8q40ga5nykogRUGcyOvo6MhsNjMYDJvNtra25nK5wDghEomUSuXc3Nzo6Oi9e/dsNtvm5qbD4RBcXG1tbY2NjVVVVaBhApPn8fFxKBTq6em5f//+gwcPpFJpNBo9Pj6ORqOjo6OVlZVsNvv58+c//PBDb28voZhYWlp69eoVLNclEolGo2lsbCy5uH788cdnz54NDQ01XlxgnWaz2aWlpX6/f2VlZWRkhMvltra2dnR0wF752bNnubm5gUCANPBSIMlop8f8JVnRf2kJ0BLAKvz/UlkQx8fHJpMpLy9Pp9PZbDaDwVBRUQEa7r6+vuXl5ampqUePHsELhF6vFwgEr1+/tlgsTCYzLy+vrq4OvCKVlZV+v99ms7W2tj579iw9PV0sFjudztXVVVCDPn36tLCwkMlk/u1vf+vp6SH0gaFQSKPRiESivLy858+fCwQCELnw+XwQ5mm1WvDcd3d3y2SysrIyNps9MTExOjqqVCrLysoEAgGPx8vNzWWxWLm5udnZ2V6vd2dnJxaLXVWFpEE8lXsjXTdaAikogVSfiZ+cnBgMhp9//rmwsJBzcYGJqba2VqFQrKyszM7OgsibxWLl5eVVV1ePj4+vrq5mZGSkp6dLpdLj42OlUgl2JAaDgW3x8vLy4uJiNpvd2NhYU1NTXFz85MmT6urq2traf/zjH319faAPPD4+9nq9XV1dYrE4Pz8f7FGZmZkFBQUtLS3gidZoNPCc8vbtW5VKVVdXV1xczOPxioqKmExmZWUlvjoFBQVcLhc47nQ6p6am1Go1oaAjPYMGcSIKOkBLgJbAl0gg1UH8/PzcbDaD2VUoFLa1tbndbkzJx8bG4vH43t6e1Wptamri8/l1dXVTU1PxeDyRSHR3d/f09DgcjvPz80AgoNFoBAKBSCTq6ekJBAJOp7O7uxsx8K3c0NAgkUiam5sbGhpmZmYODw8hvo2NDa1WKxKJamtrVSqV0+nEzju8cHV1dc3OzoKtaWJiYnJy0mazDQ8Pw/kOWPlHRkb6+/sLCwtrampaW1t7e3t9Pp/Van379i0N4l/SR+k0tARoCSSRwB0A8cnJyfz8fLlcbjQaPR7PwcHB9vY2+OFgcZNIJGZmZsbHx+GxEK0NBoNra2vY2j45OQmFQhaLZXJyEvvRHz58WFlZGRsbs1gsPp9vc3PT7Xbb7fZ3797Nz89vb28T5b+Dg4PFxUWTyWSz2QKBwOHhoc/nGx8fh+aiz+eLx+OBiysUCkUika2trUgkAlY8p9Pp8XjC4fDKyoper7darbOzs4FAAI/Mzs4SHRjyhuiZOBEFHaAlQEvgSyTwG4jfChx/bQK3293Q0ODxePb39//amnyD0onN0U2Bb1AHughaArQE7pAEfqOiTbXqEvyCouHu7i5mr4eHh19OOpxqjfrC+pC23xT4wnzoZLQEaAl8JxJIaRAHZJ+cnIBw6ujoCBRXMF6n/lLN5e/0m7sJu0n8nW4dXXlaArQE/nAJpCKIo5HgpSINxl8qiBNc+1+anpNG3RQgAqEDtARoCdASwHZFym2n4MVcAnEy7/6Wk+6bkPSPir/aBW/N+eojdAwtAVoC37MEfpuJ3wocf0kCML6SogkBLBjrSfytAYL+Xxe4Nf8/NsGtlfxji6NzoyVAS+CuS+Dk5CRFQZzQfEPEVBD/XTh+KywmSfDt326SyuDWt68SXSItAVoCqSyBuwTiVIBLZZn+N3WjtvHa8H+TOf0sLQFaAv97EvgNxK8Fi1SIhJse1AR+FchvKlTvz6gDaeBNgT+jUDpPWgK0BO6uBD5//nz3QPzuivvWmt+E3ST+1hzoBLQEaAl8VxJIaRD/rt4EGkvA+qbAdygTusm0BGgJJJEADeJJhPMX3LoJu0n8X1AnukhaArQEUlgCNIin1sshYH1TILWqS9eGlgAtgb9aAr+B+E148T8Tf3xx3YnmoKpJfu9EK+hK0hKgJfDNJHB8fEyD+DeT9u0FJYFv3Lo9CzoFLQFaAt+TBH4D8VuB464nOLq47kQrUNUkv3eiFXQlaQnQEvhmEjg6Ovp/SeLsGYVh8vQAAAAASUVORK5CYII=;" vertex="1" parent="1">
                    <mxGeometry x="60" y="160" width="492" height="285" as="geometry"/>
                </mxCell>
                <mxCell id="7" value="" style="shape=image;verticalLabelPosition=bottom;labelBackgroundColor=#ffffff;verticalAlign=top;aspect=fixed;imageAspect=0;image=data:image/png,iVBORw0KGgoAAAANSUhEUgAAAagAAABHCAIAAADdtUR0AAAgAElEQVR4Aex96VPiS5bo+yPm68REz5svExMTMREzEfNhZqKjO2a6O3p6uXt1Vd/ay6q6tWjV1bLcdwEVZBXZBQSRVXFBAVHEjX0RwRVwwR0FRUTF5UV4IjIIrKqu7r739u13Kz8QSf5ObidPnjyZec7J/3PxIXzAwAcMfMDADwwD/+cH1t8P3f2AgQ8Y+ICBiw+M7wMRfMDABwz84DDwgfH94Ib8Q4c/YOADBj4wvg808AEDHzDwg8PAB8b3gxvyDx3+gIEPGPjA+D7QwAcMfMDADw4DHxjfD27IP3T4AwY+YOC7Znzn5+ffGdLPL8OfU116a99RWjrYu6t7WyFnZ2d/WkbIlVHs+7fn3ZW++2tGpe8Gzvianve7aW1GA777v+fn52dnZ3+9nf1rb3/GiP//zPgyuvrGv+8mxPSv6XM1o6h0sIxPGX/PLsNV+NPT06uJGXnf8y8Q6HsC/zlg70DIHyw2Pe831fGrlX57JWfUld6djE/o7/n5+Tc4yqjY7yxydnZ2enr6V82703H1bTG+09PTeDy+cRkSicTp6enFxcUfnJNHR0e7u7tra2vRaPTo6Ci9oSieTs3vQ3AoIzQgPTukpAOkx68WjvKmUqlEIhGPx1Op1NsKOT4+Pjg4iMfj0HcoGVF/RuHpMIeHh/v7+wcHB++gM9SS9AYjDF+lzvPz88PLcHR0dPUratvR0VEsFjs+Ps4oFv1FHYdC3tYMBP+2SHr3/+RC3lb429JTqVQ8Hj84OEgmk+/G7RsF8KtsC7Aaj8cTiUQsFksmk6jqk5OTvb29DEwCtSCYd0SABhKJxNtgzs7OkslkIpGAKgCfb8NkIpGIRCKbm5snJydvK/Dd6TBzTy/D22p5dwnft6/fFuOLxWI2m43D4bS0tHi93v39fZjz6TP8Ki4WFxc1Gg2NRtPr9UtLS1cBLi4ugGThU+oypIOdnZ2lUilEuBmDdHJykkqlMhLTs6fH30joALCzs+Pz+ZxO5/r6enoWFD87OwuHwx6Px2azxeNxlH5xcQHUn0ql0qkQoeX8/HxmZsZqtbrd7ng8fnR0dHx8nLFgwNqb3gsAAAynUql0FEHVR0dH09PTfr9/aWkpmUwi/KQ37PDwcHl5eXBwMB3z6Rzq7Oxse3t7amrKZrMlEok3FpJe4MXFBYLJmPMg+QJwekcysiMAgM8o5I3A70iMRqN2u93j8YRCoXg8nkwm31jg6enp4eHh1XIODg5gyFCDU6nU9PS00+mcm5sbGRmZm5uDXGdnZ1tbWyMjI2tra+nlpI94ejrKhRJ9Pp/ZbJ6amspgnWg4EolEMBj0+XzhcBgmBYw7KiE94vP5Ojs7W1tbNzc309PfM45mLjC+N84LhJP3LPMvDvYNMz4YmM3NzZGRESwW+/Lly4cPH3711VcdHR0wQm/rcCwWs9vtHA6npqamoqKCQCD09fVtbGwAPOIL6C+QLEoHvB8eHvp8vvHx8cnJyfPz81QqdXx8DMwOscjT09Pj4+N05gjzE4jy7Ozs+PgYTdf01p6cnCQvw8XFRTgc7u3t7e7uRrQOhSSTSRCpLi4u5ubmuru7eTxeJBKB9RmY8hsnG6rx4ODA4/GMjo4ODw+PXgag/pOTk6OjIyQ7AwMFWoeuwS/gH6EF2n9+fh6JRHQ6nUajcblckJhKpdIllIuLi93dXbvdzmKx3G43wJydnZ1cBvh7fHy8vLys0+lEIlEkEsmoBWDe9ntwcJA+hxErB5xAs9GsTi/k7OwMuP/p6WkymUyfYDDE6cDn5+cnJycwvhnpFxcXOzs7Q0NDIyMj/f39MpnM6XRubm7CIpHONaDXQCGoutPTU8S20F7k9PS0v79foVB4PB6tVuvz+YAM4vH4zMxMc3Ozw+E4OTkBfgEDhJD2RjJDK9bU1NTo6KjL5UJ1AXdLJpMgQ0SjUaPR2NPTMzk5mSENQMcRRV1cXHi93uHhYbPZvL29nUwm04VE2CVkDM3x8TFqJ6yyAAYdSSQSqFVo+NKx/VcR/yYZHxAuCDuDg4P19fV1dXVZWVl///d/X1BQYLFYACOImBCCUqmU3+8nk8k4HI5EIgkEAi6Xq9Fo/H5/MBi0Wq1jY2Obm5uxWGx7e3thYcHpdIJMtHsZAoHAyMiI8zIIBIKqqioCgeByudxut8vlcjgcU1NTfr8/EAicn5/v7+8HAoHZ2Vmfz7e4uHhxcRGLxcLhcCAQgJIHBwcnJycjkQhq3tnZWTwen5ubM5vNJpNpfX3d5/NJLoPX6wWwVCq1vb1tNptHR0e9Xi/wL4lEUl9fv3IZRkdHR0ZGHA5HKBQ6OTlZW1sDBuf3+9fX1/f392dmZqBfWq22r69PqVTW19eXlJSQSCToiMViGR4e9ng8wWBwaWlpfHzc7/dHIpFYLDY7OzsxMTE2Nra4uBiPx4Hoz8/Pj46OIpGI1+vt7u4mEAhsNttkMgHjdjgc4+Pj6+vriOi3t7dNJhMWizWbzdCpaDQavgwnJyf7+/vT09MzMzPt7e3l5eVDQ0Mul2tubi6ZTK6urs7Ozs7NzdlstpmZmQx+Go/H5+fnDQbD6Oioz+fb3d1dWVnZ2Ng4Pj5OJBKbm5vBYHB3d3d5ednj8VitVhDHgEhgLzk1NWW1Wh0Oh9lsXllZOTs7Ozw8DAaDdrvd4XDs7OxA2yYvg9frdTqdNpvNbrdPT08vLCzMzs5CxqWlpf7+/p6eHiKRePv2bRwOp9PpgsGgw+EYHR21WCzhcBhkvbOzs729vZWVlZmZmVQqdXR0tH4ZIMVgMHg8nvX19cPDQ5FIxGQy7XZ7V1eXw+FIJBJut3tgYEAkEr169aq/v39lZcVqtQ4PD9tstnA4vLm5ubi46PF4LBYLUAKg+vj4eGlpaWJiwmq1RiIRh8MB1IKQeXR0tLy8bLfbdTpd4DJ0dHS0traiaXV0dBSNRv1+P+DB7XZvb2/HYrHp6Wmv1zs9PR0KhWZnZ/1+/9RlsNvtTqdzZ2dncnIS9T0ejwcCgbGxMYfDEQ6HY7FYKBRyOBw+n295eXl1dXV6etpoNJrN5kgkcnR0BBuXqzMazZ3vbeSbZ3ywDoN4kkqlOjs7//Zv//bWrVtdXV3p6wZC1vn5+d7e3uDg4MOHDwcHB3d3dwFZ8Xjc7XZjMJgbN25cv36dy+XabDaDwfDs2bP79+/fvXs3OzvbYrEMDAyUlJT85Cc/uXfvXnV19aNHj/71X//1n//5n58+ffr111+/fPny+fPnNTU1BAKBx+PF4/Hp6WmRSESj0fB4fFtb297ens1mg40Ag8F4/vz5T37ykxcvXvT19R0cHCCiDAaDdDr94cOH165dE4lEer2+o6NDqVT6/X6A2d/fHxkZefDgwccff5ybmzt+GdRqNYvFmp6elkqlv//973/xi188fPiQxWItLi5yudybN2/+27/9W05Ojkwm8/v9ZWVlX331VX5+PgaDYTKZZDL5V7/61Y9+9KN/+qd/evXqVU5OTlZW1s2bN7/++msMBlNfX//RRx/V1dW53e5AIIDH4z/66KNf/vKXNBoNeDFIKLFYTK/X5+Xl/fjHP/7lL39ZW1s7MDAQCAQoFMqDBw9u3brV2dmJtj+7u7tmsxmPx9tsNuiUx+Pp6enp7e2NRCIej6e+vt5sNvP5/Js3b965c+f+/fs1NTXBYFClUlVXV+fl5X388cevX7+enJxEh1Pn5+dms7m2tva///u/f/vb3xYUFPT397PZbLVavbe3FwqFdDpdS0sLLCRPnjy5ceNGU1PT1NQUNODk5GRzc7Ouru7u3btffvnl7du3W1tbl5eXnU4nHo+/e/fus2fPenp6DAZDVVXV06dPc3Nz6+vrCwsLHz58ePPmzezs7IqKipKSko8++ojH442Pj/f09LS0tDx+/PhHP/rRP/zDP9y/f5/H4z19+vTXv/71559/zuVyYXU8OTlZXV3t7+/HYrHhcHhlZUWr1SqVShqNlpOT85//+Z9ZWVkCgSAcDvP5fBaLZbFY2tvbDQaD3+/Pycn5+c9//tOf/vT+/fsKhUKv1z9+/PhXv/rV/fv3pVKpxWIRCoVffvnlgwcPhEJhOByGTcnMzAwGg7l27VpWVpZare7p6RkYGLDb7WjTvbGxIZPJcnJyfvGLX5BIJJ1O193dLZFIHA4H4GpjY8NgMOTl5d25c+f27dtZWVlardblcmGxWLfbHQ6HrVZre3s7m82mUChPnjy5du3a7du3GQzGy5cvs7KyyGTy9PS0z+ejUCjXrl178OABMHQ2m33nzp2srCwmkymXy0tKSn7zm9/cvHlTLBYvLS29cfsC7fme/36TjA91FYnZwWCwrq7ub/7mb/Ly8pAckUqlDg8PkbR8enq6tbU1MDCQm5s7OTmJUBkKhRQKBZFIbG1tVSgUNTU1YrG4tbU1OztbLBYLhcLi4mKxWEwkEr/66quqqiq5XG4wGKhU6osXL4qKioaGhmpraysqKmQy2eDgYGtrK4FAiMViILPw+Xw8Hs9ms4PBoFqtlsvlVqvVbDa3t7cXFBR88sknjY2NgUAAerS6ukqn058/f/7FF1988sknz549IxAICoVCLpejKZpMJhcWFqRSaXl5eXZ2dkFBgVQqVSgUFAqlpaWFy+UymUyJREIkEnE4XGdnJ4fDodPpcrm8pqaGRCL19/eXlJSQyWSDwSAQCNhsNo1GKykpycvLq6mp6enpqa6uxmKx3d3dVVVVeDxeJpMRicSmpiY+n8/j8ZhMJpvNbmtrw+FwYrEYhLiTk5OFhQUKhdLc3Nze3l5fX0+n01ksFhaLffLkyfXr1z///PPi4uL+/n7Y16yvrw8ODhKJRLvdDh13OBxKpbKzs3N7exum0MjISEtLS3Z2tlKppNPp9fX1o6OjTCYTg8G0trYSicT6+nomk4nOtlZXV2UyGQaDgaGsq6tTqVQMBqOjo2Nzc3N6ehrkLzqdnp+ff+3atRs3bjx9+pTNZsOu9ujoKBwO4y6DWq0mXgYSiZSfn//w4cPr16//9re/LS0tJRAIRUVFzc3NarVar9cXFBTU1tbyeLz8/PyGhgYul0skErlcrlQq7ezslMvlwGJqamr6+/tnZ2e7urowGMzDhw8fPHig1+tByEokEkajsaysDAQigUBgMBiMRqNKpSopKbl79+6rV68mJiaam5uZTObIyAiDwWhubm5rayOTyc3NzQwGIz8/v7e31+fzqVSq0tLSrKysJ0+eyOVyNpv97NkzqVTq9/thhYhEIlqt9vbt2xUVFR0dHcFgUKPRKJXKoaEhOCBOpVJdXV0FBQWff/75p59+evv27ZKSEqlU2tbWhgZra2tLp9O9evWqqalJLpcXFhZKJBK1Wl1eXu52u1dWVkwmU2trK51Op1AojZcBh8Pl5eU1NzcLhcLKysrOzk4ul/vpp59ev379iy+++PLLL1tbW3E4XHZ2tlwul0qlbDabQCBIJJLW1taamhqDwYAGGs39v5bIt8L44KglHo+3tbU9fvz45z//eXt7++rq6sXFBWxwEokEOq85PT2NRCIGgwEYH2Kak5OTzc3NfD5/amoqFArV1taSyWQKhVJQUOByuaxWa11dHYvFIhKJFRUVbDa7t7fXaDTKZLLm5maFQpFMJpuammAdC4VCHR0dtbW1+/v7CwsLysvQ0tLC4/F6e3tZLJZUKg0EAgMDA+3t7RQK5Ve/+hWQC4yiz+d78uTJl19++fvf//7OnTvPnj3D4XDtlwFtdXd3d10ul0wmw+PxL1++vHHjBo/Hk0qlBAKhrKyMx+M5HI6VlRWlUllVVUWlUltaWgYHB5PJJBxr8ni8srIylUq1ubnZ29srEAiYTCaNRhMIBFqtNhQKkclkHo+3s7PT1NTEYDBMJpNer+fz+RgMpqCgoL293ev1bmxs4PF4Mpm8v79/cXERj8fNZnNNTU1vb+/m5qZarebz+Tgc7vr167du3bp///6DBw8KCgrUajUsQqurqwMDA2Qy2ePxQMdtNptMJuvs7Nzd3Z2cnARaFwgE1dXVcA3CYDB6enpIJBKFQnE4HMPDwwKBoLKyEs4Qzs7OPB4Pl8ul0WiRSKS/vx+GhkKhyOXyra2t6elplUpVWVn54sWLO3fu3Lhx48mTJ8+ePaNSqfv7+2hL29DQIBaLt7e3+/v76+vr79+///Of//z69etZWVnXrl0rKirCYDDFxcU6nW5+fn5ubq66ulosFk9OTuJwOB6Pp9Pp+vv7YXkAPt7c3FxQUADCbygU6urqampqys/P//Wvf93Z2QmM7/z83OPxNDY2dnV1tbW1UalUm802MjIik8nodPqDBw8eP348ODjY3NzMYrGMRiOFQqmoqIDFaWpqanJyEovFKpXK8fFxhULR2NiYk5Pz6aefcrlcNptdXl4+MzOTfshgMBhevnxJo9E0Go3T6ZTJZCKRSKvVwrYjkUhQKJR79+598sknWVlZd+/ezcvLEwgEYrEYMb7t7W29Xl9RUaHVaufm5nA4nEAgaG1tLSwsdLlcKysrMDo0Go1Op3d2dur1eqVSmZubq9PpbDZbYWEhjUYrLS398Y9//Ogy3Lp1i8Ph1NXVVVVVhUKh3t5eCoUiEAiCwaDL5SouLpZIJNPT038tnC6jnd8W49va2tJqtdevX//kk09EItH29jacpoVCoY2NDThhRbvdRCJhMpkeP35sNBr39vagiXa7nUKhqNXqpaWljY0NOp1OJBIJBEJtbW0gEJiZmWlqahKLxd3d3b29vfX19SA6KRQKoVCo0+kuLi54l2Fvb29tbU2pVFZWVu7t7c3PzyuVSo1GMzg4qFQqi4uLsVisXC6fn58vLi7Ozc1tbGy8ceMGFouFe4CzszObzXbr1q0HDx7k5OSUlJSwWCyRSCQUCtva2uBo+eLiYnp6WiAQPH/+vPAyZGVlCYVCqVRaX1//+vXr9vb2jY2Nvb29vr4+LBaLx+MFAgHsKBUKBQaDaWhoqKys1Ol0yWTSaDRKpVIul0un00UikclkikajdDpdIpFcXFy0t7e3tbXBgaZUKq2oqMjOzlar1bBjBUESbh7W1tZ0Oh0ejx8dHU0mk319fUKhEIPBfPrpp0+ePCkpKamurubz+Q6HAwZifX3daDQSCATE+CwWi0Qi6ejoiEajbre7vLy8r69PIpEwGIyTkxO/3y+RSBQKBZlMFggEkUhkcXGxr6+vtrZ2eXkZTtxHR0f5fL5YLD46OjKZTC0tLV1dXXV1dQKBYHt72+fztbW15eXlPXr0KCsrCw4lKBRKb28vXD3H4/HZ2dnGxsbOzs7T01On00mhUL788suf/OQnd+/eLS0tLS8vFwqFra2t5eXlTqcTDhBpNNrw8PDBwQGXy+3p6XG73ePj43w+n0ajtbe3K5VKFotVXV09Pj7ucrm6u7u//vrr4uLiioqKzz//XKvVoouvtbW17u7u2trakpISCoXi8/laWlqePHlSV1f39OnTV69ejY2NcbnclpaW4eFhWJKLi4utVmssFltfXyeRSAwGo6mp6fHjx2VlZcXFxXfu3GlpaeHz+UQiER3pnJ6eHhwcwIlBY2NjVVVVfX09hUIRCoUDAwOw1d3f34fj8nv37hUVFTU2NrJYLC6XKxaL0W3V1tbW4OBgY2Oj1Wrd2NggkUhisRiOGs1mczAYNBqNLS0tVCqVw+FYLJbp6Wmz2UwkEr1e78LCQn5+fm1t7evXrz/++OPS0tLGxkYajdbT08Niseh0eiqVGhgYIJFIcDYyPT1dVVUlFArRPVgGW/n+//1WGF84HJZIJP/1X//1j//4jz/96U9ramoUCkV/f79UKv36669lMlkymTw5OUHC3fHxsdfrxePxMOQCgaCtra2lpYVEIlVUVDQ2NpLJ5OzsbDqdLhAIysvLly8Dj8cTXAY2m11dXZ2bm1tcXKxSqXA4XHV19cDAAAaDYbPZkUhkZ2dHqVQ+evSoubm5tra2oKBAJpN5PJ6BgYGPPvqIRCIZjcbJycnXr1+/fPmysbHx9u3b9fX1iKSCwWBjY2PZZairqxOJRBKJhMPhgFgBY+x2u2k0GpB4aWnprVu32Gy2SCRqaGior69vbGxsamoSCoUEAgGDwchkstra2vLy8vb29pKSkqqqKolE8vr1646OjqOjI5BbRSJRe3s7BoOpqanp6+urq6uTy+UXFxew37ddhra2ttra2sbGxvr6+oaGhubmZiwWK5VKYV2JxWJTU1OVlZU4HI7FYn399dc4HI5KpRYUFOTn55eWltbX14tEIkS7a2trGo3mwYMH1dXVUqlULpdLJBIajfbixYumpqa6urpHjx7BgTqFQkkkEi6XSygUqlQqIpHIYrGWlpZmZ2e7u7sxGAzc4KdSqbm5uebm5pcvX7a0tFRdBr1eT6FQMBgMhUKpqqoqKSkpLy+vr68vLS3Nzc3FYrFNTU0ajebg4CCVSh0cHCwsLFRWVpaWlgqFQugsjUaD47zq6mo8Hi+Xy1tbW/Pz8y0Wy9bWVjAYbGho0Ol00Wi0qalJqVTa7faxsTEgJ6FQqFAoQPJtaGigUCgkEun58+dFRUUVFRW3bt2CqoEy9/f33W73s2fPXr16pVarZ2dnm5qa7ty5QyKRXr58mZub29vbS6VSmUzm0NAQmUyGIairqwMxMCcnBwTwW7duFRUVFRQUfPnll8CwiERiNBpF3CESidjtdi6XW11d/fr16+LiYiKRKBKJBgcHQQ5IJBJdXV0VFRVPnz7FYDAEAoHBYEilUiBjKGdzc3NoaKiurm5iYmJzcxPOiMRicUlJSUNDAx6Pr6qqwuFweDyewWCA5sPIyAiBQHC73dPT0zk5ORwOp7m5+dGjR2VlZTgcjkwmazQaKpVaW1u7vb3t8XiEQuHr169pNBqJRMrJydFqtW9T50Jd+95GvhXGFwqFhELhj3/845/+9KefffbZixcvqFRqW1ubSCR6/vy5RCJJJBJwzQ+yxvn5Oeg9cTicsrKyFy9ekMnkjo4OvV5Po9GqqqoqKiqoVOrAwMDQ0BCJRFpeXt7c3NRqtXDJwGQyi4qKamtrW1tb3W43j8erra3l8/lkMrmzszMWi8Xj8dHRURwOV1VVVV5eDhNjeXnZZrPduHGjvb19dnZ2aWmJTqfX1tbChJRIJEhVZXd3d3x8XCQSwQmdWq3WarUdHR19fX3z8/MwtKFQCM5TiEQiiUQqKyvr6urS6/Xt7e1arZbP55eVlVVXV5eUlMCNs0AgKC0tff36dUNDg1QqnZiYoFKpRqPx4uLCarX2XQar1drU1FRZWSmVSplMpl6vPzs7g0/Tl0Gr1ba1tY2OjjIYjIKCgtLSUsAASFsnJye7u7sSiYRAIFRXVxcVFbHZbI1Go9VqWSxWQ0MDiURCGjkwBENDQ08uQ3FxcW1trUQiEYlEeXl51dXVNTU11dXVQ0NDfX197e3tBwcHPp+vu7vbZDK1tbUpFIpwOBwMBk0mE0h/oNgRi8X6+vowGExtbe2rV6+gBI1Gw+VyS0pKQG9JKBQODg62t7fjcLjy8nIej2exWEDsAlGoqqrq2bNnFRUVNTU1KpXK5XKp1WoqlVpVVYXFYqFHJBLJ6/Xu7u6Gw2GBQDA2NhaNRsVicX9/v9frnZyc7O3tbW9v7+rqGhwc1Gq1YrEYxlosFsNlEZFIrKmpGR8fTyQSoJ9wfHwMpwdMJnNqampra6ujo6O4uBhWLzKZrNPpxGKxUqm02WxSqbSrq8tkMuFwOGDQWCxWJpMplcr8/Py6ujo8Hl9eXt7d3d3T0yMWi+E4AognFou5XC4ul4vBYOrq6sRisUwm6+/vdzqdcMZ3fHw8Pz8Pa0xDQwPcMwwNDRmNRnQSDdyTz+dPTk7u7Oy0tbX19/cPDQ0plUoMBlNYWFhdXc1kMoVCoVwud7lcs7OzDodDLBbPz8+HQqG6urrBwcGRkRHY3jY0NMB1kEQiaW5ujkQiW1tbExMTDQ0NsFdoaWmZmZlBdy/fWwb3toZ9K4xva2trfHycTCbDzrSwsJDP5w8MDFgsFplMZrFYQBcUaS1B487Ozrxer0AgeP36dVdX19LS0uHhocvlam9vFwqFgUAgGo0uLS319PSEw+Hd3d1AILCysuJ2u1UqVU1NjVqtXl9fT6VScCSvUCj6+vomJyePLsPa2prZbBYIBAqFYnx8PBAI7OzseL3e8vLyiYmJeDx+cnJitVpVKpVYLNZqtZOTk7A9v7i4ANUwj8cD27qxsbHp6enJyUm/37+1tQWqTMlkcnl5WalUdnR09PT0AE9cXFz0er2bm5sDAwOVlZVFRUUlJSVcLvfg4GB2dlapVJaUlAwNDYF6x9jYGOwQA4GAy+WampqKxWJGo1EikQDHn5qaOjw89Pv9s7OzkcswNzfn8/lSqdTY2BjnMoD6RfpgLy0t6fV6oVCoVqvHx8dDodDp6andblcoFCKRyG63I122vb09n89Hp9NBNKNSqcPDwxaLRXwZlEqlwWAIBoOzs7NutxuuHUC3xm63u1yuWCwWiUQWFhZsNlv6fNjY2ACBC4/HNzU1DQ0NLS4uulwuBoMBnMLj8RwcHMzNzSmVytra2p6eHjgOvri4SCQSS0tLeDy+oKAA2HQoFIIRMRgMRCIRj8ebzeb5+fmhoaG1tbXDw8NYLGaxWAKBQDweHx8f93g8y8vLa2trs7OznsswfxlcLpdEItHpdDMzM3CT0NnZqdPplpaWkJby+fn58fGx1WqdnJyMx+Pn5+fz8/OdnZ1NTU0KhcJkMoGGjcvlCgaDbrd7cXExGo12dXXB+cDw8PD8/PzMzIxEIpHL5bAQQorVakV6KnDwvbS0pFarBQJBV1fX6uqqz+ebnp5eXV0F9XVQoFteXjYajWw2u6enx263LywsBIPBnZ0dGO79/f1QKGS1WsPh8P7+vt1un5mZWVtbi8VicrmcwWCoVKrR0VGr1Wq32y78dIgAACAASURBVJeXlzc2NpaXlx0Ox+7ubjQa1Wg0y8vLu7u7s7OzIpGopaUFdH2sVuvQ0BAM6N7entlshr3L1tYWOqZPp7e/lvi3wvhAvRbseHZ2dra2tvb29uBCAzTmQSsShjMdU/F4fHNzc319/ejoCGkFxuPxWCwGYOfn57FYDLbJIDMmk0lY52FtBJ27nZ2d3d3dvb09RF4nJyegBoiM4eASE4fDgdR2fn4OVmhw4wxKsOgUEvSVDg8Pd3Z2gEsiGwwQbUB9JJFIHB4eghoztD+ZTIIu67Vr1z7++OOampqRkZGLi4tkMrlzGWANAJ07qO7k5AQKOT093d/fBz01ZDaQYfMAyhAAtrOzg5RsEVYPDg5isdje3t7+/v729jYc/x0fH0MjQVUV1ImPj4/j8fjW1tbGxsb29jb0BbJHo9H9/X1QJD6+DOieCizzEJ6hEIQ3WNvOzs7gGFcikWg0mo2NjUQisbq6ur+/j5TJwV5ie3sbEgF7R0dHGxsbXC5XoVBsbGwgG0E4FwPSAn3a/f19oAr4dHR0dHp6Gr0MsGtO1zA/Ojo6PDzc3d2FuqCnh4eH0WgUHb+gLgA9wN9kMhmNRoGe4/E4EAOgCNkCAvONRqMHl2Fvb299fR0gAdtwv4cGCEVgUIAIkeI9fIX5kkwm9/b2YrEYtBypl4P54NHR0f7+PpxyACSyrjk+PgYjSKji4OAAWcIAPChUggFcPB4HVgi2fbFYbGdnB7oPc2RraysSiYBIjrCEevHXEvm2GN+7+59uBJNOahlmpO+PVgQJIwrTJqMNqCJIj8fjCwsLo6OjGSZlGbngLyr/bV/fAQB7BNg2joyMvPtYBJWDVOffWGN6Yka/0j+B4iRKAeOTjJKB68EilPEJZfyjIqgLyDwDsofD4cnJSZ/PF41Gr5o9vbGK09PTRCLh8XjQhg7A3t1lgIHa000y3lhFeiJqOSoBUtAajKgLAJDq1dX1BhWbQdIZI4LA0iMg5aVDQr2oKPibngXiqP1IsLgK88YUuEAHSSIDt1elkzeWgBoAuALko2Zn4O0dJXxnn75rxpeOF8ApIAUkJoT0dFJDWf5gBCH6jZDpOEUkgiLpX//Y+DdSCDqYA9nkbXMJoSijkdDljMSrfxFFIk6XPgqAwKu53jMlY75BU5Fgcnx8DMcOyLT+PYtFYOnDihK/1QgyfwaDMzDge0+u/caGAYre+Ak4HbJrBJYNzA51HFE4RN5BeFDRO6gFFQWNATOMt8G/rcFX09/YVKCxd7T2ajnfdspfjPGhGYgGAEw+gLbQqKOv32zkezgSGSMNBHS116enp8gsF2WBZQO2ou+gXUSUiOtl0CLsuP9kue/8/DyZTMZiMdhpIgkFtRPN7Yx60wHeM/7nl/CeFSFSgeMOMP1GW3hA6buL+hOaimZHRt50qkAwwCuhDQgeiASG4I0D8e42v+0rIiFU0dsg35H+Pkh7R/Zv5NP3gvGdnp6CQyTwRwKzPR3F30YcDtqWlpbg3PobweZ7UsO7B/7qV0gBtADjg/uWDE4HUxQo/ujo6G0yI0iUGZMBDm4ODw/T1Yz+WJwEg0GLxTI+Po6U1C4uLvb29lZXV3d3dw8ODqBVwDWgtRlj/cfW+B3AA5JRRensBjUefX1HBFxFbG5uRqNR8FCQQS2Hh4eAoncUAp8yKOT8/Pzg4GB9fR1c7wDMyclJ/DK8Wz7d2dlZX1+H81PkNyGjYX+wPVcBENtFjdnc3NzY2EBmoFezfMcpf3nGB7uJvb29QCCwvb2N1Nm/A0Ts7u7CZRY6rPkzK82gyDeWBjPnbbSVSqVWVla2trausi005SAvOCAAa//0ik5OTnZ2dkKhULqfhXSA9MMjlG6xWFwuF7rIRul/VMThcPT29ur1+nQltcXFRZPJ5PP5lpaWNjc3wR/B5uYm7MVAtEecHSLvg8Y/qmF/GjDck7wNk6ip71l4MpmcnJy02WzT09M7OzvIiw/KvrGxEQ6H0S0tSn+fCHjc0mg06Brw5OQE7qmQbejVcpAPNLvdvrS0tLOzc3h4+Ocj//T0FG4X0eU+XLXbbLa3HXBnLMNXm/qNp/wlGR8iHTDXHR8fD4fDb+MI33jPLy4u1tbWCASC1+v9Zhnfu7sAjP4qDGxR9/b2RCLRwMDA1tbWu7ucSqWWlpb8fn+6Rhhctvp8vo6ODmSA8e5y4KtIJFKpVOme+N4nVwZMIBCYnp7e2tpK753T6eRwODqdbmJiwu12+/1+UK/LyPvn/E2v7s8pJyPvzs4OeB9AOt4ZAH/U3/39fZ1OJ5fLtVrt7OwsyH2o5WdnZ9PT06Ae9EcVC8A7Ozs9PT2NjY1o6To5OVlaWlpYWHjH3d3JyYnJZFKpVGq12uFwzM3NbW9vv+Oo5D0bdnR05PP55ufnUWOWl5dB4RHpxmYU9W6xNAP4G/n7XTO+9EajteX09BTspebm5qanp00mk06n0+v1ZrMZ1A5mZmaGhoZ0Ot3Y2FgoFJqbm7Pb7Xq93ul0Li8vg9qgwWAwm81gLeR2u7u7u4eHh6empkCDT3sZfD4f6LiMj48PDQ1JJJKnT58ajUbQ89JqtaA1GovF0DnX0dHRysqK0Wjs7+8HP06rq6tTU1MGg6Grq2toaGh2dhZJqWdnZ4uLi4FA4Pj4GLZ4c3NzW1tbCwsLJpOpo6NjeHh4bm4OFFb7+vpAIWt1dRU2TYeHhzMzM7m5uWVlZUqlMhAIOByOgYGBnp4el8u1vLwMCvQTExPg/UWn0w0ODoKtmN1u12q1TqfT7Xbr9XrQlDabzeDSUqPRdHZ2Tk5OIotAUFJbWFgYHx/v6OjIyclpbm6emZkJhUIWiwWQn87CTk9Pd3d3h4eHu7q6tFrtwsLCzMyM3W4fHR1dWFhYXV31+/3d3d1dXV0ulwvUKfx+/+joKIVCKS0tHRwcBGuT0dHRwsLCsrIys9m8vLw8PT09MDDQ19cH3mrTVTvD4bDNZtPr9RMTE4uLi4lEYmpqymg0arXasbEx5KsRdtNer1ev12u1WlBk83q9fX193d3dXq93a2trdXXV5XKNjY1ZLJaxsbGRkRHwHha8DHq93mAwuN3ug4ODjY0Nt9vd2dmp0WjUanVLS0tubi6DwQAVd5vN1tfXBwpuaNDTSfro6Aic3+n1eqPRGA6Hk8nk+vq6w+FQKBRYLBZ0yL1eL2wwwdalr6/PZDJZrVav17u0tHRwcABK7FqtNhgMrq+vB4PBkZERnU43NDQ0MzMTjUbBF8vQ0NDY2Jjb7Qb9eTweD2I+GMuDk9SNjQ2v1zs6OqrT6UAT8+LiYn193W63y+XyqqoqMpmsUqnAfmNhYSEQCBiNxr6+PtC4dLvdoDPvcDiWl5ej0SjYuo2NjaEDjaOjo9nZWb1e39/fb7FYvF7vxMTEzMwM2nMsLi4KBAKpVGoymbxeL8xuh8MBLtSgtSD0IWEILQnp6P0G498LxpdKpQKBQFtbm81m6+npAacD4OICHIsqlUowEeVwOP39/SqVisfjkclkvV4/Ojqq1WoFAgGdTudwOEajsbOzk8/nM5lMlUo1NjY2OzurVqvB0VNLS8vY2JjX66VSqVwut6mp6fbt2yqVCgwzmExmU1MTl8sFL2+A5eXl5YGBAQaDQaFQeDxef3//4OCgQqEAS0wGg9He3o4UnVKplMlkGhgY2N/fX15etlgsXV1dZrNZo9EwGAwajcZkMtVq9cbGxuDgIJfLpVKpYOIOxyuJRMLr9WZlZWVnZ3O5XI/H09fXx+PxaDQan8/v6emxWq08Ho/L5YI2rEgk4nA4Ho+nt7eXzWYzGAwOhwNGxI8ePSouLgbyBX9KlZWVEokE+dE6OjpaXV3t7Ozk8XhsNvvu3bv19fUmk6m9vR0Mfmk02tjYGKLdSCQCzkgoFEpbW5vFYuns7GSxWHK5fGRkBDx/sNlsJpMJfiXAPLatra28vDw3N9dgMOh0up6eHq1W+9VXX2VnZ/f19YGdPIvFYjAY4CAHnMKD2o1Op+NwOGw2m8ViqdVqi8XCYrEAFWq1OhAIgGwCSGOz2RwORyQSgUWNRCKhUqngDWFoaAjc8/D5fL1eD04T+Hz+4OCgwWAA011wGwGrqVgsplKpfD4frNwePHjQ0NBgt9thNaXT6Xg8vre3FxwxoKkI8/bg4GBoaEgqlXI4HAKBYDAYpqamQKWZSqW+fv0alJ8NBoPNZhseHpbL5RQKhcvlqlQqg8FgMpkmJibsdrtQKARjOJVKBSyYQqE0NTW1tLSIxeKpqamZmRlQM2YymSwWy2q1KhSKDMY3NjbW29s7NzcnEAioVKpIJGpsbOzu7l5eXu7t7W1tbaXRaK9evWpoaGhraxsYGBgbGxscHJTL5Twer6WlRaFQuN1unU6H0N7T0wPGHiwWq6urC609KysrHR0dWCyWy+VqtdqRkRGwZkEAwWAQbAeA+XI4HPCXA6sdaKT/QBmf0+ksLCwEZ22fffYZMK/CwkIYLRwOZzKZxGIxmUxuamqqrq4Gayen06lUKvPy8phMJpVKra6uLiwsfPz4cWFhoUajsVgsMzMzwWAQhDsSifTkyRMsFsvj8XJzc6VSaU9Pz1dffQUz/9GjRzKZjM/nFxQUcLlc5G9qeHiYTCY3NjaCl4SioiIKhQLmR1qtlkwmv3z5cn5+/vDwEG792tvbuVzu1tbW5ORkZ2dnY2Mjh8MhkUh1dXWwGcFisWAtB33MycmhUqlo6QuHw0VFRQ0NDQaDIRwOA38Ri8UFBQXFxcV8Pv/58+ckEsnn8wUCAT6fn5ub29raWl1dXVpaqlKpysrKCgoKGAxGbm4uh8NZWVlxOBw6nQ68eGEwGPCKeHFxEY1Gx8bG6uvrORyOw+EoKSkBzDx+/Liuro7NZufk5LDZbKfTCXN7amqKRCIRiUSlUgnuXUkkUl5eHnA0Ho+XnZ3NZDKJRCL4HCQQCPn5+YODg2w2u7S0tLe3t6mpCY/HazSa/Px8LBY7NTVFJpPr6+uFQqFSqSSRSI2NjXD4fXh4GAqF8Hh8aWkpeO6qqqpqaGi4d+8eBoMBaTQcDsMxaDAYFIvFN2/elMvl4+PjGo0GjNvYbLZQKCQSidXV1SQSqaqqislkzs/P4/H4kpISNpsNDhRyc3MFAkFdXd2rV68aGxvBHkutVsO2A0zrZDLZ1taW3+83mUwSiQSsHvv6+gAzMGPhrubg4GBiYqK/v7+trS0nJwcWy5cvX4KNMIFAYF0GOp3e0tKCw+GKi4vb2tpAcANfgSQSqaGhARxwqFQqMPIFG14ejyeXy1++fNnT0+P1esFusqGh4f79++BQEo/Ho93lycmJXC4HpzL5+fmVlZUOh6OiogKPx6vV6tevXzMYDJ1Ox+VyYXWhUCitra1UKvXp06cCgQBc3k5PT4+NjalUKj6fX1VVVVZWBl4PampqvF4v0lq32+0EAiEnJ6e/v9/n81kslvr6+q6uLjCzubi4CAaDQqEQDBwtFotOpyMSiaWlpW1tbXC68v4PQqCV5s+MfF8kPpfLVVhYqFarwax6fn4eLFWpVCpsEA4ODsBLErBCOp2u0WgWFxfFYvHvfvc7HA6HxWJramrYbDaJRKquri4oKGCxWFqt1m63U6nU8vLy0tLSp0+fFhUVUalUsVgM5q5YLBYc9TQ2NoZCoYWFBSCXiYkJwKxcLv/666/BZwaZTKZfBg6Ho1QqV1dX1Wp1ZWXl/Pw8OIU/Pj6Wy+UCgWBra2tqagpme2trK0gim5ubCoWitrZ2ZGSEzWZXVVXV1dU9e/asqakJ7RrW1taqqqrA4hKk4Kqqqtra2uzs7OLiYjDU7+zsBPX6jo6OwsLCurq6169fFxQUcDichoYGMpkMtajV6mQyaTAYaDRaYWFhTk5OdXV1d3c39AscSfD5fLPZnEwmwU8fDoe7c+dOZWUlg8EoKyuTy+Wzs7MAbzaby8rKBgcHV1dXk8nk1tZWW1sbgUAIh8NGo5FMJmdlZWGxWGA0OBwOjD2j0ajJZKJSqd3d3XQ6nUqlmkwmDAbD4XB2dnYoFAqfzw8EAqurqxKJBIvFwskm+MIrLCwE5NTX17NYLFhFwORZpVIhgcvj8YjFYiwWGwwGj4+PFxcXq6urW1pa5ufnFxcX29vbKysrm5ub4ZwxkUiA/GKxWOx2O41Gu3PnDoPBoFKpdXV1DAajpqampaUFDCcWFxe7urrIZDI4EBseHmaxWCDAVldXoyUE6V0eHx9vb29zOBwcDldZWfngwYOysjI8Hp+fnw92deD3oaWlBXYzWCy2vr4eiGd3d3dsbAzKz8/PNxgMy8vLi4uLBAKhpKQE1ien0+nz+SoqKrq6unQ6HVhPv3jx4ubNmyqVqrW19SrjIxKJRqORRCIpFIrj42Pwr8VisYqLiwcGBiKRSF9fn1QqBTdoIKW+fv3a4/GAfc7k5CSYmYPHw+LiYph9Uqk0/egQnKTm5+dXV1f39PSYTKaGhoaOjg5kye73+xkMhlKpVKlUUEJeXt6LFy/AtwViYen73B/EVvf09NTtdhcXFyuVSpFIVFNTs76+PjU1xWKxwM0ZmUyORCKjo6NgN0oikbhc7sjIyObmplwuv337dnNzM3gf6+zslMlkHA4Hi8WC24+WlpbKykrw5AFuo8hkskgk8vl8bre7oKCASqWCe4JAIDA/P9/e3k6n061WK4yHVCrNzc1taGhoaWkBm3Mej9fa2qrT6eLxuF6vr6mpmZ6e3tvbAw1EcCgwNzdnMBiEQmFjYyOYhQ8MDBwdHfX19VVVVbW2tmIwmIqKChDZmpqa0I5yZ2cHg8EIhUJwNw10z2az8/PzgfGBL5mLi4uDg4Pu7u6ysjIymQwG/11dXeBVBXxDtbe3r6ys0Gg0MH0vKiqqqanp7OyEfq2srEgkEthoR6NRBHbv3r3Gxka1Wt3W1jY8PIz4i8ViKSsr6+npmZ+fB+fJQqGQQqFEo1GLxdLU1PTw4UM6nS6TyaBYIpHIZDLB02JjY6NGo6HT6TQazWaz4XA4JpO5vr4OXlqnp6dBeq2qqoLN0dHR0fj4OPhhBXebYNWrUqnodDoGg8Hj8UgUnZycbG1tLSkpgVHw+/2VlZU8Hm92dnZ+fh48VrFYLKFQCMaCXC6XxWL5fD6/389kMu/duycWizs7OxUKBXjNaW5ujsfj0WgUDuDq6+u7u7tXV1fBDScej6+oqKitrZXL5XCBvrOzA7Zoh4eHCwsLwJppNNqTJ0/KysqwWGxOTs7IyAjc6giFQjhJ4HK5tbW1lZWVfr9/e3t7eXnZYDDAcpifn6/RaObm5hYWFggEQnl5OZlMlsvlcABXWlrK4/GAcohEYnl5OUi74FsX3YmdnJzIZDICgaDX65ubm7Va7cXFRUdHB41Go1KpUMXq6iqYbCPGV19fn5OTY7PZwAhSrVZjsVjYQxQVFeXl5YlEIjqd3tvbm64bEIlEjEYj+BMBYRaDwWQwPvCx1tTUVFNTw2AwKisr8/PzqVRquk3OD5Hxeb3e6upqtVotEomqqqpWVlZcLhccGIFXoqGhoZaWFiKRCKd7PB7PZDLt7OwYDIaysjK1Wj06Ojo+Pg5P6mg0mr6+vsLCwqysrPz8/JqaGg6HI5VKX716VVtby+FwQBTv6Oi4efMmuFR78uRJf39/d3d3Q0MD+GuBodVqtXg8HuSFsbExuJhrb2/v7e3d3d3V6XQYDMbr9e7s7MD5lFwuBxkBvFwAF4MTnL29vf7+fvAbiMPh6HT66OhoTU0NMAjYuB0cHJBIJHDOzmAwqqqqGhsbJyYm6uvrKysrRSJRc3MzSKPxeFytVoN3BvBU6HK5RkZGwGlHRUUFiUTSarXgNlWtVpNIJAKB0NHRAYwPWBIIU2NjY+Xl5XV1dXw+Py8vTygUOp1OeKsE+QuYmpoCz73gZmJoaAjcE21ubvp8PnA41tHRAa+OgC19WVkZuCeoqKgYGBiAs7ypqam6urqGhgar1drc3NzU1AS+TgkEQl1dHZJ8gWWDDwKj0QhPL+n1+t7eXrFYnJeXNzAwABdQoVCora3t9u3bSqVyZGSks7MTi8VSqVTVZaBSqRgMhs/nt7a2Go3Gs7OzlpYWFovl8XjAL2xBQQFciVgslsHBQfC7aTAY9Ho9vHwCvp2Hh4dhr6BWqxkMBplMlkgk4XB4fHzc6XSC3sbBwYHT6czNzaXT6QMDA6WlpUQikUajZWdnt7W1dXZ2gmMVOLVUqVR4PD4vL0+lUul0ur6+PnAl2dzc3NDQwGAwZDKZRqPB4XB1dXVcLlepVIJ/06KiIvB2VVRUBM5lHz16pFAoYKOKtrrHx8dKpZJCoRiNRhaL1dfXd3Z2Bt4KuFxufn4+JML6JBQKuVwuHIw+efJEIpGYTKahoaGGhoaysrL6+vqOjg54XUAqlTIYDI1GA/oDaBG1Wq09PT0cDgeDwZSUlOBwuN7e3mAwCACBQADkktra2ry8vL6+PjheaGpqWlhY+EGc8WUwdfh7enoaCoUkEgkcHmm1WnC+otPpxsfHu7q6eDwebL5KS0s5HE57e/vAwMD09HQikQCPyiAbgjN3oVDY3NwMTuJUKhVsteB4hclkarVai8UCuxtY/cxms8ViAY/HNBoN/O2AT/Dz8/O1tbXh4WECgdDQ0EClUsHLqclkGh8fj8Vik5OTXV1di4uL8Ijq6enp5OQkCCZwT6JUKkdHRx0Oh9/vTyaTTqezo6PDarWKxWLwM8hms2HTAZPn5ORkdHRUKBQymcy+vr6WlhYajSaRSMRisUKhgJcW4DWvvb29zs5OAoEwNTWl0WiQaNzR0eH1esVicVNTEziGa25uplAoRCJRKpU6nU7Q3UmlUpubm+3t7UQiEQ4x1Wq10+lUKBRwYAovE6Hz6Wg06nK5WCxWXV0deGRSqVRdXV2xyzA1NQWXBuA12u12GwwGymVobGxkMBhms1mr1Q4ODq6vr8tkMjjR7+/vB5/4NBpNJpOh5yPAeg+wRCKR8Hg8n8/v6+uDM0QajSaVSmdnZ1FHZmdnoc3g/H1kZAT8VhGJRJlMZjKZRkZGjEaj1+s9OzszGo2Dg4PhcDgajU5OTspkMhaLRSaTWSzW8PCwRqMRiUQUCoVAILS2toKTISqVqlAoOjs7BQJBU1MTh8Pp6OgAx858Pl+r1YK9FzjRam1tbboMsMEfHR0FF7BwNAyaAENDQz6fb2JiQqFQNDc30+n01tbW4eHhoaGh0dFRt9sN4huZTO7q6jJchsHBwbm5uWAwKJVKh4eH9Xo9gUCgUqnNzc08Hs9sNsPVBNqBJhIJs9k8MDAALlvAbY/NZoOHhDo7O+l0Orzt1dXVNTExMTo6Ojk5abfbe3t7W1paGAwGj8fTaDRwFslkMoEzwu0EUCBSAltfX+/t7W24DDKZzGg06vV6l8uFHNPHYjGn02m32/v7+/l8flNTE3QZZBfw9/H/+eVGBuND1gjwQNTm5ubW1tbS0lIikdjd3QXfyw6HQyaTNTQ0FBYWYjAY8Bm1srISiUTAW8bCwoLVah0ZGRkfH4dVEbyEe73elZWV3d1dp9M5MTHhcDiQUojb7bZcBtDajUQicH0MJSD9cngWcnV1dXh4eGBgYGRkBBQOVi9DIpHY2toKhULRaBTktdPT0729vWAwCK92TU5OBgIBcHYCnj82NzfBvxa8i2YymcBvEqjsw/UIPNprtVqXl5f9fr/T6ZycnJyZmQkEAouLi0tLS/CyGhzeUanUjY2NUCg0MTGhVquHh4dB3WFhYcHtdtvt9tnZWXg1wm63g24NsoGHNzBhwsDzZjs7O4FAwGq1Dg4Ojo2NBYNB9GwQuJNxuVzDl2FhYQHmIVh6gEur8fHxkZERu90eiURWV1edTufo6CjoW6yuri4uLq6srCQSiZmZGbPZPDExsbS0ND09PTw8PD4+Pjc3h1RtgPHBZhMEWIfDAce+JpNpbGwMcIhOxA8PD6enpycug9frjUQi8FQYYGNzczMcDq+uru7s7JydncF7aeARMhqNzs/PT0xMwPUCoNfv9xuNxqGhIafTGQ6HHQ4HKJqEQiGPxzM2NgbPyzmdTriysNvtyJBmf38fHnUzmUwulwv8ja+vr0PGiYmJUCgEDYDd9NLSks1mM5vN8GxbOBwG8wZQQAFPZaDYDKoke3t7CwsLm5uba2trQNU2mw0e6ltfX19dXQWcgAkjdHxvb29raysajaZSqY2NjfX19Ugksra25nK5hoaGzGZzIBDYugx7l2F9fd3tdsN7b8vLy1NTUyMjI9DC2dlZeOEPqTHArggcZcOV9Pz8/MbGxtra2vb29sHBARzVwfPqsKP3+/1QoN/v39nZAbEdqCiDOYC0+C39fteXG+l9A66X/ptudIUUKeHtFTqdTiAQxGJxKBQCFSp49++qhcM7MAXlpwOgWtITIQ62w2B8k65fhiDR86NI6e8dpaFcb4yAGQPy+PRGGJR4fn6+vLwMeyLwCYpwiGDeFgFr3Ix2oqUb5YLlN/0vMGWU8sdGQEP1bcrb6aUBzLvtDdB9wruPwNFX1F+Ukl4jxNM/QRz0y9IhEVrOzs6WlpakUik4NIQXnBEZQBfSM36XcXg5GnUHmRWjyJ/cGJi8QKvpnc0oEFUNbBHNUMgOY5cO80Pc6qIZmy7oZuBxZ2dnZmYGXkhYWloCjCOPBoim32iqfXp6mv7OLLyija7hwe41ozr4C6XBM95gXYSeqQYz9XR7/vfRO88Y6YxK4et7TphkMrm5uQli4Obm5lW2lVE4IBklIkMiZLSLuoxoFFIy2gw4h8RkMgnCBWADjQKqJT1ydnYGz7DCO7kZwOm1XPUilb78IGNSEAmhIzDPwYEj9AhZAcPES68uvS7U64ymAgxwPUQqQJ+I+4M1WyQS2dvbA00mZHuH2pBe7PvHgfCutvMdJSCGkg4DrUpP+QbjMK3eViBCeEbD0pcN1wxrPwAAGrJJREFUJEkAzBt/31b+N5L+l5T4UG8RRt7IQcDhx/b29u7uLiJE4BEg0sN8QIXAigTYgTgi5ePjY/DxeXVKIGzCTEZ0DBayQPHAc2FeQQNgjDMGGBV1NfI2ggZyT68UISejcGC4+/v7h4eHiMKgIlR4ejoqGTXmDzJKgER+ipCNMCoBsIcqRfUiAPDshv6CA0vEKFE6RJDsAGc9GXkhMR3manZYk9JhkFRytW0Z2d8GgFZWgE8fBUAITN0Ma/yMhfzqDgPVnrEava0ZCP5tEWgMaiTaM4K/iYxiM/6ml4loDzHudHzCiCNBATzLpmdHJQO9peMB4tBOAIO5g3blUFEGwaMC02v5BuN/ecaHeFAGKaBOonTAO8wi8C4Lvt7g6SIEj6gtnVjhK0hwINdc/QpDDqUBJHhYAvkCuQgGB7wwbKhS1Iv0lDfGQVjI8MOBJmo6z4IWou6jKuBECQqHZiBIIK8M1gZfr1ISpID2GRw8geNlaAN4zYOGwax4Y3femAhekd/4KSMR5gCaDzBtYCYkk0nw1w1HCuBbO0MmRRMSxgiVAwtVBh4yqoa8x8fH4FQ53bECQCKmloE6kDEPDw+RMyFUMhI2YSBAHxB9RRHgqumcJaMK6M7V9meApa++SAoG3odEclQpAKQTWHocnNCA5AEEln4WDHlhUgBBpkvfaHEFjL3xF9YJ1H7EQ9FsheFAtIog09v/Dca/a8b3tqanUinkWALBICwgUotGo6DpsrCwgEQ8GBXIlT5z0lEJX6FABAnDnM7CgCKhwM3NTaPROD8/D+dNZ2dn4XBYq9XCy6fxeDyDcNM5FOrC1UgikYB7XnjeAXqRToLpWWD+oK/QfiTnwnE7eNSAXDATrnIH9DUdabBs+P1+oVCIx+OxWCyFQunr64M30pAYld7N9La9MQ6MEs2KP0i+7wBwu93Dw8Ozs7OxWCyRSGxsbIAldfpWHbUBOg5e3cEd0xvBEDxEUqnU+vo63OSCKWE6rwHLuYxlFYgqEomAwXgkEkFdgDago7SMqZ5Oe4iwIW8G5aBBRyVDayE9vQvp5UAhiJxAcE4HSG8AKhBFICOCR38RAHxC6egRTjTLUAOAl8HaA1wYreuoR5ACEw0RGKr9alPTe/2NxL8XjO/s7CwYDIJS8f7+Plot4XFVeCgAlpFYLDYzMwMm0GhIAHFbW1sul0uv1y8tLQEwvCeABgbhC/gdOAROR3E6iZ+fn29sbDAYDK1WCyodi4uLWq2Wy+W2t7ePjo6CPyh0qg2baPQoBKoLRaBTqVRqYWGhtrYWLNhQFxBBIHiIIIpBDAUuQGD773A4DAbD7u4ucMaDg4PDw0NgWGgBh3IARWj7BtXB7ZDRaITHEgsLC3E4nFKpBKVlRLJvY6OA2IwGw180dRFNQ/sRB8/IdfWI4/z8XCQSVVZWslgsuJPt6el5+PAhl8uNxWKwvEHDkMgA8sj+/j5cwXs8nvTaUY1IKIMXMltbW+HxPNBfmZubgzFN98OO8IYKWVxcHB4eViqVKysraOzSGR/E0/ubTmkZM/wq40MAqEbANioQKkVgEEFcCWE7AwA1FYp9YyEZWRAkSoeWAFvP+JrB+xCq09sDWVCXUQSVjyIA+S39fi8Y38HBwcDAwO9//3sikajT6WZnZ+12OygurK2thcPhubk5j8cDCrpSqVShUFitVlCUt9vtFosFNE7IZPKLFy/a29snJydnZ2eHh4dNJtPs7Czo1gMGwcvIzMyMxWKx2Wxra2t7e3sbGxtOpxO8uaBnfba3t2k0GmjzXlxcmEwmNpvN4/HAbdTc3Jzb7R4dHR0ZGVleXgb3JBqNxmg0+nw+dKOChg2Gc29vb3x8PDs7+8mTJ0wmM5VKxePxlZUVp9NpsVg8Hg8Ua7fbfT7f4eEhODuw2WygmBKJRMDlhs1ms1gs3d3dKpUKUOTxeLq6utDjWyaTyWg0ejwe0F3w+/0ej8dsNttstuXlZdAzgKsGeEsX7HOlUqnRaIS6dnZ2QB8iFArNz8/7/X7Qcpibm4Pn7qBMn88H2hWjo6OgLYTuXqAB4INvYmJieHjY6XTu7e0hfnR6erq2tmaz2cBhX/pm8/j4mEqlZmVlvXr1yuv1ejweEon0s5/9rKGhIRwOT09Pg2rewsICeJ0Dpz6gdVFXVwevsoGPLHicDJ6mi8Vifr/fbrc7nc6xsTGRSITD4UQikUwma29vb21ttVqtPp+vv79/bGxsYWEBlHgWFhbASUE4HI5EIi6XSyaTgZpkhuEBmvnA+mHQgQauxtEMB4aVQSrp8G8sAa3oqJz0CGKC6YkZZb4P47sKg1gwYqNXq0B4QM1AkYy+oCZdLQQh5NuIfC8Y39raGovF+ru/+7t///d/f/ToEYPByMnJuXHjxsOHD/v7+w0GA1jp5+TkPHz48Nq1a6WlpZ2dncFgkEwmP378OCsrSyKR1NfXf/bZZ//3//7fTz/9tKqqisPh3Lx583e/+x0GgzGbzWhSxeNxj8fT0NDw5MmT3Nxc0Nrt6up6+PDhrVu38Hg8vOIIzo7Aq4pMJru4uGhra8Pj8dAY0PksLy+/cePG7du31Wo1PFP/s5/97NNPP62trfV6vUiVNH3YwuEwWK2Bo47FxUW/3y+Xy58+ffr73/8+Ozsbi8U+f/78wYMHFRUVKysr8Arlo0ePwLDR5/MxmcySkhIwQWlsbBSJRMFgUK1W5+Xl/cd//EdlZWVbW5tAIPjyyy+/+OKLsrKy8fFxcKbw6tWrW7duPXv2rLu7GzazFxcX8Xhcq9UWFxdPTEysra3t7u5ub2+3tbXBe+qDg4MdHR3gT+nFixf37t374osviESi1WoFq+Hi4uLGxkaZTMZmsz/77LOHDx8ymcy5ubne3t7i4uLf/OY3ZWVl3d3der3+zp07H3/88evXr0HtHHCytbUlk8nu3r177dq1+vp6pMCcSqUODw/5fP7LyzA4ONjf319VVXXnzh02m+12u0kk0u3bt69fvw42cCaTqaCg4PPPP3/8+DGJRPrkk0/+5V/+5d///d/JZDI4tvjss8/AIDIQCIA5fV5e3suXL8vKygQCAbox29/fdzqdTU1N//M//3P79m0mk7m8vAw2Krm5uTgcTi6Xq1Sqe/fu/e///u/vfve7hoYGZI4KPbo6ezMYx7vBrn6FlPR0xO9Q5I2VviPxjaW9Gz79a3r2jN6lg70tnp4ddQFF0nMB5Lf0+71gfPF4XKPR/PrXv66vr9fpdH6/X6PRAIGCwTyHwykqKlKpVGALBTrrfD7/yZMnN2/efPjwYU5ODthIZmdni8Viq9VqsVj4fH5hYeHt27dbW1sRgfr9fjabfefOnaysrGfPnj18+BCPxxOJxNzcXBaLZTKZNjY24KDn7OxsZmZGIBCwWKzV1VVwWhUKhfh8PnijevbsWWVlZXd3N5iFjo6OEggE8LkkEAgQc4GRA2nfZrO1traCDS+NRtPr9UNDQ21tbeD3gkQivXr1Si6XM5lM8H3U2NiYnZ396NGjmzdvfv311xwOp6CgAIvFAipaW1vBpxCVSiUSiSqVymaz+Xw+m83G4/Hy8vLu3LkjFApZLFZtbS2LxeJyuQwGA4w9YNN0+P/au/antI7+/V/1x868v3Q6k3am03aaTqeTSzOTNNF4ixBFxQBiuCsKeEFE8ADi0YA3FBMTlRbJRTEBxWuC5kLMJNUgIBoT3hmfmZ0zePnS75uqdc75ac/uns/uPuw+7Nmzn2cTCbfbnZWVJZVKcV4qdi9bLBapVFpVVdXR0bGwsABlGofDARA0Go1YLJbJZAaD4c6dO2Kx+MKFC7///vvZs2dxGPz169f5fH5TU5PX6+3r66upqcnPz8eR8MvLy1h9+/Tp0+DgYGtrq9VqdTgcWq1Wo9EQ/eFEIkFRFARj1Gp1TU1NbW1tYWFhW1vb06dPh4eH6+vrORzO+fPnGxsb9Xr92bNnYd/v9+P8bLlcTtO0SCQ6f/785cuXL1y4UFRU5HA4eDyeRCK5ffu2TqeDJw+ID/PQSCTyxx9/1NXVZWdnFxUV0TRtNBpra2vhrIL3YpqmGxsblUqlQqGAsiZ5AyWjNG0Ak1tkILfMwH7PpsUTjiABppFMwsw6ZGIkLQ/zcZb4yK/z/wl8+PBhbGzs0qVLbrd7ZmZmcnKyu7u7urr62rVrOTk5crncYDBIJJJgMLi6ujo8PKzVagUCQUlJyZkzZ3777bdr164VFBTgZU2j0UxMTCwtLfX09FgsFpFI9Msvv2g0GiKiOzw8XFRUdPr06ezsbC6Xe+HCBZVKVVdXB9migYGBhYUFsqq1uroKmTOXy4XpQzQabWpq0mg03d3dAoFApVI5nU6v1zs6OtrT09PQ0JCXl3flyhVovRAs8OKTTCadTieXyy0tLb1y5UpeXh6OebbZbDU1NTiwnMfjBQKBoaGhup3r4sWLP/74Y0FBwcWLFwsLCzUaDVxBg8Hg0tLSrVu3IJEELUnsKVtaWnK5XFartays7PTp03D5ImpOLpeLz+f7/X502Xg8Pjg4mJeX19zcDKfRhYWFcDh8586dX3/9taioyOl0xuNxg8FgNpvD4fD9+/dNJlNpaSmfzwdrTE1NcTicb775hsfjZWVlwfO8srIS6gwul8vhcBgMBpFIBOdQIhmdTCb1er3JZJqenn79+jWU+8LhMGFkOJ/eu3cPAhMOh6OsrAwrD93d3QaDgc/nnzp1SqVSGY1GDodjNBohKqfT6eBJ5nK5rl+//sMPP5SUlGRnZ1+/ft1qtZaUlDQ3N6+srEDKaWBggMz4UqlUKBQCenl5eVevXlWr1RqNRq/X0zQ9PT1NUZRUKl1cXHz48CFN07tnfOQXZ5IFIkFJzHAaSZFnmfEkkjy4O4aZ//8MMx9HH2BWdffjpFySxIxhhkmGAwJ7lk4i0x4k8f9E4FjM+FKplN/vz8vLw0nver0eyhxcLregoKCqqqq1tRXTrk+fPo2Pj9fX1/N4PLz5FhQUSCQSvV5P7Vz19fVYDczPzxeJRHw+PysrS6fTETGP3t7e7OzsS5cu8Xg8mUwGT363211dXV1QUFBZWQnZFfSG7e1tt9tdUVFRXFysUqmgsAK/xUAgQNO0VCotLi5WKpUSieTGjRt8Pj83Nxd1fvbsGXbAYHUDu1i0Wu1XX3315ZdffvHFF19//XVxcbHJZGpvb6coKhKJjIyMKBSKSCTi9/tbWlrkcvmZM2d++uknoVAoEok0Gg2YjqKolZWVd+/edXV1wSEcWjXoH36/H00rKio6e/asQqGQyWRVVVU49cLr9ZaXl5O/gfX19cHBQT6fPzc3R5bePnz44PP5vv32Ww6H09PTs7GxgU86a2trkO0qKyuDPInf7w+Hw8XFxd99951EIsGfx+jo6MjIiNlsLi0tzc3NhSyKVqvl8XgikWhwcBBSNOvr60ql0mg0RiKRDx8+9Pb2VlRULCwsYLodj8ehJjszM6PRaCwWy+PHj8vLy6GwVFpaKhAIeDzeqVOnGhsbh4aGrFarXC4Xi8XKnautrQ1i0SUlJefOnZPJZPD87+/vv3nzZmdnZyqV+vPPPzH7xpfZ7e3ttbU1u90uEAhkMll+fn5hYaFCodDpdFar9e7du8vLy1CgWFtbm52ddTqdUql0Py31f2KssjY/IwJHRnzk3waNmZyczM3NlcvlEokkPz8/NzeXx+MJhcLc3FyJRAKx4ufPn6dSqYmJCYPBoFQq1Wp1QUFBaWkp/uEdDofVas3KytJqtQ0NDT///LNQKKyoqLh8+XJ9fT0Z6n6/X6vV5ubmisXihoaG5ubm7u5umqZlMllOTg6kT4lGCIpTKBT/+c9/amtrQ6HQ5uamXq/X6XTDw8MtLS0gPi6Xy+FwSkpKZDJZcXExl8sVi8Ver3dycvLOnTtYXkwkEoFAQK1WczgcnMjT2tqal5enVCobGhqMRuPy8vLg4KBIJIKrLxQreTze1atXBQJBdXW1zWa7e/cuVK0I8QmFQqvVWlFRwePxKIpyOp16vT47O1upVFZUVOTk5OCTpUKhmJ6efv78OeSe/H4/YI/H411dXefOnZPL5S0tLbdu3fJ4PG63GxoK5eXlWq328ePHCoVCKBQaDAbZzlVVVSUWiy0Wy8OHD1+/fq3T6a5evQq1KKPRODg4aLfbdTpdeXn5mTNnBAKB2WzWaDSFhYUcDoeiKHKyh91ul8lkKpVKr9ffvHlTKpWSGd/GxobJZDIYDJFI5NmzZ69evVpeXgYlmUymnJwcgUBQUVFx+vRpSDZBPQGqixDXKy8v1+l0IN+qqqqamhqTyTQ6OioQCEwmEzay0DTN5XI1Gk39ztXU1MTn87lcrlqt5u9c0ARtbW29ffv22tpaX19faWlpXV3dzZs3y8rKKisrPR5PKBS6f//+nku6n3GgsqY+LwJHSXxM7guHw0ajUa1WQ8kHIp1YWjKbzV1dXR0dHZFIJBaLjY6O6nQ6s9k8Pj7e1NQEbeSOjg74vQuFQsiiSKXSmpqa6upqKFDh69vW1tarV6/Gxsag5gJ5S4/H43K5VCoVhorH4yFfQlKp1MuXL/Hpw+VyvX37FnMTh8OB1TrM9Uwmk81mM5lMoOOGhgaLxYJjLiwWy8rKSiqVSiQSExMT9M715s2b9fX16elptVrd0tLS3t7e19cXiUR8Pl9zczM+8kKWo6enBwI+dXV1PT09wWDQbDa73e7V1dX19XWv12uz2Z48edLW1lZZWSkWiymK6ujoADVDZ9DpdNp2rnA4DHnUxsZGMk/Z2toaGRnhcrk8Ho/P50ul0vb2drvd3tnZ6fP5MBW9d+8eRNnEOxdFUcPDw2azub+/f3p6enV11ePxGAwGuVxeVVVls9l8Pl9PTw+UTaVSKUVR3d3d0Meura31+XxEMy4QCFitVpiFIDDZmrO5uYlDM4A5zmasr6+32WzQxEbrKisrnU6n2+1ubGxUKBQQdh8ZGWlpablx40ZbW5vNZoOOXl1dndPpnJqaMplMLpdrY2MjkUiQmbVQKJRIJDabjaIorN9Br8lut0P83efzbW1tBQIB6OiJxeLq6mqLxeL1eu/fv9/f38/8s/y8Q5S19k8gcJTEx2xPLBabn5/HN9xAIICPif39/SMjI9B0mpqaikQis7OzLS0tKpUKwop+vx/asx6PBx8lceIMZFT6+voghBcKhTCi4FEQjUb9fr/D4bDb7Q8ePFhaWgoEAhgkY2Nj0Wg0FouR5WqI+vb19cFNeHt7e2ZmJhQKvXz5EjMjmqafPn26srISCoVMJtPAwMCjR4+CwWBnZ6fRaKRpGhJpm5ub8/PzwWDw6dOneKnE1hbIxszOzr5//z4cDj948OCvv/7Cjg0IiszPz1ut1s7OzrGxsZWVlYmJibm5OWw5fPHixczMDM7TGhoaamhowGFGi4uLXTvXgwcPFhcXg8Gg3+8n24B9Ph9RbYMsOD6nQF+6t7d3aGhofHw8Ho9DqWV0dBQzvsbGxs7OzqmpqWg0iq8oKysrOA0qEAiYd67bt28/f/58cnKyt7fXZDI9fPjw2bNnoVDIYrHY7Xav1wu5ViCA47homqYoyufzvX//HtsgsA0zFAoFAgGo2qRSqWg0OjQ09OTJk7dv3/p8voGBgb6+Po/Hg6PdnE4nRVE4egmMRtP05OTk4uKi3+9vampqb28fGxt78+bN5OTkzMwMHBs2NjZevHgBvamOjo6ZmZkXL148fvwYh2CMjo4Gg8FAIDA1NQVpuVgs9uTJE4qiurq6cHjL/Pw8lFTSzrpj9m02fAwRODLiI1hgRRM72tbX17EFF3uPt7a24vE4mRjOzc0ZDIbvv/++trYWZycmk8loNLq2tgY33o8fPyaTSbJvGRt00cUxojDqNjc34euKW9SE6ZWFgZe28wirfsR96uPHj9hLnEwm19fXiQYvNnYmk0lw99zcHHEhgJsOxjxaTYwgCQaxJx4ZEA/fEkAE7ibrcQRGrCeSeDyOVOKOgiZAcwE7bJEBoCV2ro2NjVgsBjUqAPXu3bumpiaLxQKHNvgyw5MXRnBg27t374ADioNHF3ZBb29vR6NRoiPArDOKw05XNJM0OZFIQDwqkUjgJPJYLAY/Kmw+RxibmZM7F2k+BD9Qyc3NTcgura6uJpPJWCyGjfGEZOPxOIqAfyu6DbzNtra2YrFYNBol8lzYaoOCyL5r0kVJ09jAMUfg6IkPoxHddzdYzC719u3bR48etbW1jY+PE612wpvMTr+nHWwoAakxPZN2ZyYMBe4jGZgMQiKJqA4zBlJ3c3Nz0Wh0z7KY7cKDpCxmEjMMzVtkIxPStEIzv8WH5j3zE9IEr+EVb3Z2lhTKhJrUkKTuaXPPSNJkpIKJCPHhFn51IFBS1p7WDogkPz1KRANJM8mDe9oHCMwmk/xs4N+LwHEhPtIXSXc/OIA+ysxDLBB/KWYqCTNJjUSmBZiuNmlJmdwyawJaT+sfew6wNBbAg8TU7nKRlGb5794S+5kHQCKZ598vJyQh0piIMBRxdN3z8b/bzP3yw/h+qWz8CUbg5BDfbmrYMyYTUsskz57GEckcq5l3nX8R8aWxFbO9mYf3JD4yvdqNJNNy5qgekJMYPCAPm3RSEfi3Eh/G3gHss19SJqSWSZ797KeRQub9BuOQmZ+MTATSStydn/lshuG0IjK8TWtjhk+lZUub0pJU0kwSszuQYesOzkbMHpyNTT2RCPyLiY+MkOMWICNqz1fa/brR7sxMO3uG9zOVefyeZg8ncj/iy6T0zBt4QE5S0AF52KSTigBLfJ+fNsmI2s1lf6sbETt7csTfMsVm3o0AE97dqWzMyUbgWBBf2sD+/FR0iBbJcPpfAie7z7GtYxE4cgSOC/Glcd//whon49kj7xlsBVgETjACLPEdU548wX2ObRqLwJEjwBIfS3xH3gnZCrAIHDYCLPGxxHfYfY4tj0XgyBFgie84Et+Rdwu2AiwCJxuBY0R8JxtotnUsAiwCxwcBlviOz2/B1oRFgEXgkBBgie+QgGaLYRFgETg+CLDEd3x+C7YmLAIsAoeEAEt8hwQ0WwyLAIvA8UGAJb7j81uwNWERYBE4JARY4jskoNliWARYBI4PAizxHZ/fgq0JiwCLwCEh8F99E2S5C+KX6QAAAABJRU5ErkJggg==;" vertex="1" parent="1">
                    <mxGeometry x="94" y="460" width="424" height="71" as="geometry"/>
                </mxCell>
            </root>
        </mxGraphModel>
    </diagram>
</mxfile>